<svg width="40" height="40" viewBox="0 0 40 40" fill="none" xmlns="http://www.w3.org/2000/svg">
<path d="M24.3748 1.6665H10.2082C9.26886 1.6665 8.36803 2.05281 7.70383 2.74045C7.03964 3.42808 6.6665 4.36071 6.6665 5.33317V34.6665C6.6665 35.639 7.03964 36.5716 7.70383 37.2592C8.36803 37.9469 9.26886 38.3332 10.2082 38.3332H31.4582C32.3975 38.3332 33.2983 37.9469 33.9625 37.2592C34.6267 36.5716 34.9998 35.639 34.9998 34.6665V12.6665L24.3748 1.6665ZM27.5623 34.6665H24.3748L20.8332 28.4332L17.2915 34.6665H14.104L19.2394 26.4165L14.104 18.1665H17.2915L20.8332 24.3998L24.3748 18.1665H27.5623L22.4269 26.4165L27.5623 34.6665ZM22.604 14.4998V4.4165L32.3436 14.4998H22.604Z" fill="#388C4B"/>
</svg>
