<svg width="40" height="40" viewBox="0 0 40 40" fill="none" xmlns="http://www.w3.org/2000/svg">
<path d="M2.85718 20C2.85718 29.4671 10.5329 37.1429 20 37.1429C29.4672 37.1429 37.1429 29.4671 37.1429 20C37.1429 10.5329 29.4672 2.85715 20 2.85715C10.5329 2.85715 2.85718 10.5329 2.85718 20ZM21.7857 11.4286C21.7857 11.9022 21.5976 12.3564 21.2627 12.6913C20.9278 13.0262 20.4736 13.2143 20 13.2143C19.5264 13.2143 19.0722 13.0262 18.7373 12.6913C18.4025 12.3564 18.2143 11.9022 18.2143 11.4286C18.2143 10.955 18.4025 10.5008 18.7373 10.1659C19.0722 9.831 19.5264 9.64286 20 9.64286C20.4736 9.64286 20.9278 9.831 21.2627 10.1659C21.5976 10.5008 21.7857 10.955 21.7857 11.4286ZM20 15.7143C20.3789 15.7143 20.7423 15.8648 21.0102 16.1327C21.2781 16.4006 21.4286 16.764 21.4286 17.1429V28.5714C21.4286 28.9503 21.2781 29.3137 21.0102 29.5816C20.7423 29.8495 20.3789 30 20 30C19.6212 30 19.2578 29.8495 18.9899 29.5816C18.722 29.3137 18.5715 28.9503 18.5715 28.5714V17.1429C18.5715 16.764 18.722 16.4006 18.9899 16.1327C19.2578 15.8648 19.6212 15.7143 20 15.7143Z" fill="#83CFFB"/>
</svg>
