<svg width="40" height="40" viewBox="0 0 40 40" fill="none" xmlns="http://www.w3.org/2000/svg">
<path fill-rule="evenodd" clip-rule="evenodd" d="M8.7534 17.9358C13.5627 9.31194 15.9673 5 19.7753 5C23.5833 5 25.9879 9.31194 30.7972 17.9358L31.3965 19.0104C35.393 26.1768 37.3912 29.76 35.5852 32.38C33.7792 35 29.311 35 20.3746 35H19.176C10.2396 35 5.77139 35 3.96539 32.38C2.15938 29.76 4.15763 26.1768 8.15411 19.0105L8.7534 17.9358ZM19.7753 12.0833C20.4579 12.0833 21.0113 12.643 21.0113 13.3333V21.6667C21.0113 22.357 20.4579 22.9167 19.7753 22.9167C19.0927 22.9167 18.5393 22.357 18.5393 21.6667V13.3333C18.5393 12.643 19.0927 12.0833 19.7753 12.0833ZM19.7753 28.3333C20.6854 28.3333 21.4232 27.5871 21.4232 26.6667C21.4232 25.7462 20.6854 25 19.7753 25C18.8652 25 18.1274 25.7462 18.1274 26.6667C18.1274 27.5871 18.8652 28.3333 19.7753 28.3333Z" fill="#EA2B4D"/>
</svg>
