<svg width="24" height="24" viewBox="0 0 24 24" fill="none" xmlns="http://www.w3.org/2000/svg">
<path d="M14.625 1H6.125C5.56141 1 5.02091 1.23178 4.6224 1.64436C4.22388 2.05694 4 2.61652 4 3.2V20.8C4 21.3835 4.22388 21.9431 4.6224 22.3556C5.02091 22.7682 5.56141 23 6.125 23H18.875C19.4386 23 19.9791 22.7682 20.3776 22.3556C20.7761 21.9431 21 21.3835 21 20.8V7.6L14.625 1ZM13.5625 8.7V3.2L18.875 8.7H13.5625Z" fill="#6B6B8D"/>
<path d="M11.5675 17.2044V17.1049C11.5695 16.7638 11.5997 16.4918 11.6582 16.289C11.7186 16.0863 11.8063 15.9225 11.9214 15.7977C12.0364 15.6729 12.1748 15.5599 12.3366 15.4585C12.4575 15.3805 12.5657 15.2996 12.6613 15.2157C12.7568 15.1319 12.8328 15.0393 12.8894 14.9379C12.9459 14.8346 12.9742 14.7196 12.9742 14.5928C12.9742 14.4583 12.942 14.3404 12.8777 14.239C12.8133 14.1376 12.7266 14.0596 12.6174 14.005C12.5102 13.9504 12.3912 13.9231 12.2606 13.9231C12.1339 13.9231 12.014 13.9514 11.9009 14.0079C11.7878 14.0625 11.6952 14.1444 11.6231 14.2536C11.5509 14.3608 11.5119 14.4944 11.5061 14.6542H10.3129C10.3227 14.2643 10.4162 13.9426 10.5937 13.6892C10.7711 13.4338 11.006 13.2437 11.2985 13.1189C11.5909 12.9922 11.9136 12.9288 12.2665 12.9288C12.6544 12.9288 12.9976 12.9931 13.2959 13.1218C13.5942 13.2486 13.8281 13.4328 13.9977 13.6745C14.1674 13.9163 14.2522 14.2078 14.2522 14.549C14.2522 14.7771 14.2142 14.9798 14.1381 15.1573C14.064 15.3327 13.9597 15.4887 13.8252 15.6252C13.6907 15.7597 13.5318 15.8815 13.3485 15.9907C13.1945 16.0824 13.0678 16.1779 12.9683 16.2773C12.8709 16.3768 12.7977 16.4918 12.749 16.6224C12.7022 16.753 12.6778 16.9139 12.6759 17.1049V17.2044H11.5675ZM12.1466 19.076C11.9516 19.076 11.7849 19.0078 11.6465 18.8713C11.51 18.7329 11.4427 18.5672 11.4447 18.3742C11.4427 18.1831 11.51 18.0193 11.6465 17.8829C11.7849 17.7464 11.9516 17.6781 12.1466 17.6781C12.3318 17.6781 12.4946 17.7464 12.6349 17.8829C12.7753 18.0193 12.8465 18.1831 12.8484 18.3742C12.8465 18.5028 12.8124 18.6208 12.7461 18.728C12.6817 18.8333 12.5969 18.9181 12.4916 18.9825C12.3864 19.0448 12.2713 19.076 12.1466 19.076Z" fill="white"/>
</svg>
