<svg width="24" height="24" viewBox="0 0 24 24" fill="none" xmlns="http://www.w3.org/2000/svg">
<path d="M14.625 1H6.125C5.56141 1 5.02091 1.23178 4.6224 1.64436C4.22388 2.05694 4 2.61652 4 3.2V20.8C4 21.3835 4.22388 21.9431 4.6224 22.3556C5.02091 22.7682 5.56141 23 6.125 23H18.875C19.4386 23 19.9791 22.7682 20.3776 22.3556C20.7761 21.9431 21 21.3835 21 20.8V7.6L14.625 1ZM13.5625 8.7V3.2L18.875 8.7H13.5625Z" fill="#2765DC"/>
<path d="M10.3127 15.6397C10.2795 15.5241 10.2327 15.4219 10.1725 15.3332C10.1123 15.2429 10.0387 15.1668 9.95152 15.105C9.86597 15.0417 9.76774 14.9933 9.65684 14.9601C9.54753 14.9268 9.42633 14.9102 9.29325 14.9102C9.04452 14.9102 8.82589 14.972 8.63736 15.0955C8.45041 15.2191 8.30466 15.3989 8.2001 15.635C8.09553 15.8695 8.04325 16.1562 8.04325 16.4952C8.04325 16.8343 8.09474 17.1226 8.19772 17.3603C8.3007 17.5979 8.44645 17.7793 8.63498 17.9045C8.82351 18.028 9.0461 18.0898 9.30276 18.0898C9.53565 18.0898 9.73447 18.0486 9.89924 17.9663C10.0656 17.8823 10.1923 17.7643 10.2795 17.6122C10.3682 17.4601 10.4125 17.2803 10.4125 17.0727L10.6217 17.1036H9.36692V16.3289H11.4035V16.942C11.4035 17.3698 11.3132 17.7373 11.1326 18.0447C10.952 18.3504 10.7033 18.5865 10.3864 18.7529C10.0695 18.9176 9.70675 19 9.298 19C8.84173 19 8.44091 18.8994 8.09553 18.6982C7.75016 18.4954 7.48083 18.2079 7.28755 17.8356C7.09585 17.4617 7 17.0181 7 16.5048C7 16.1103 7.05703 15.7586 7.1711 15.4496C7.28676 15.1391 7.44835 14.8761 7.65589 14.6606C7.86343 14.4452 8.10504 14.2812 8.3807 14.1687C8.65637 14.0562 8.95501 14 9.27662 14C9.55228 14 9.80894 14.0404 10.0466 14.1212C10.2842 14.2004 10.4949 14.3129 10.6787 14.4587C10.8641 14.6044 11.0154 14.7779 11.1326 14.9791C11.2498 15.1787 11.3251 15.3989 11.3584 15.6397H10.3127Z" fill="white"/>
<path d="M13.2054 14.0665V18.9335H12.1764V14.0665H13.2054Z" fill="white"/>
<path d="M14.052 18.9335V14.0665H17.2745V14.9149H15.081V16.0746H17.0606V16.923H15.081V18.9335H14.052Z" fill="white"/>
</svg>
