<svg width="24" height="24" viewBox="0 0 24 24" fill="none" xmlns="http://www.w3.org/2000/svg">
<path d="M14.625 1H6.125C5.56141 1 5.02091 1.23178 4.6224 1.64436C4.22388 2.05694 4 2.61652 4 3.2V20.8C4 21.3835 4.22388 21.9431 4.6224 22.3556C5.02091 22.7682 5.56141 23 6.125 23H18.875C19.4386 23 19.9791 22.7682 20.3776 22.3556C20.7761 21.9431 21 21.3835 21 20.8V7.6L14.625 1ZM13.5625 8.7V3.2L18.875 8.7H13.5625Z" fill="#BE3A5A"/>
<path fill-rule="evenodd" clip-rule="evenodd" d="M14.4758 16.9277C14.1421 17.2491 13.6496 17.3931 13.0761 17.3931C12.9649 17.3944 12.8537 17.3877 12.7434 17.3732V18.9535H11.7779V14.5917C12.2137 14.525 12.6539 14.4946 13.0944 14.5008C13.696 14.5008 14.1237 14.6183 14.4121 14.8543C14.6864 15.0782 14.8721 15.445 14.8721 15.8771C14.871 16.3116 14.7307 16.6784 14.4758 16.9277ZM12.7447 15.2968C12.8138 15.2768 12.9478 15.2569 13.1465 15.2569C13.6325 15.2569 13.9068 15.5007 13.9068 15.9063C13.9068 16.3595 13.5882 16.6277 13.0709 16.6277C12.9294 16.6277 12.8268 16.6222 12.7447 16.6022V15.2968Z" fill="white"/>
<path d="M6 14.5H7.17334L8.4126 17.5234H8.46533L9.70459 14.5H10.8779V19H9.95508V16.071H9.91772L8.75317 18.978H8.12476L6.96021 16.0601H6.92285V19H6V14.5Z" fill="white"/>
<path d="M15.3221 18.209V17.4597L17.2008 14.5H17.8468V15.5371H17.4645L16.2801 17.4114V17.4465H18.9498V18.209H15.3221ZM17.482 19V17.9805L17.4996 17.6487V14.5H18.3917V19H17.482Z" fill="white"/>
</svg>
