<svg width="48" height="48" viewBox="0 0 48 48" fill="none" xmlns="http://www.w3.org/2000/svg">
<path d="M29.25 2H12.25C11.1228 2 10.0418 2.46357 9.2448 3.28873C8.44777 4.11389 8 5.23305 8 6.4V41.6C8 42.767 8.44777 43.8861 9.2448 44.7113C10.0418 45.5364 11.1228 46 12.25 46H37.75C38.8772 46 39.9582 45.5364 40.7552 44.7113C41.5522 43.8861 42 42.767 42 41.6V15.2L29.25 2ZM27.125 17.4V6.4L37.75 17.4H27.125Z" fill="#FF551F"/>
<mask id="path-2-outside-1_3023_2430" maskUnits="userSpaceOnUse" x="13" y="19" width="24" height="22" fill="black">
<rect fill="white" x="13" y="19" width="24" height="22"/>
<path d="M29.0151 32.5851C29.0151 32.5851 34.4114 31.6736 34.4114 33.391C34.4114 35.1084 31.0683 34.4098 29.0151 32.5851ZM25.0254 32.716C24.1681 32.8925 23.3325 33.151 22.5321 33.4872L23.2092 32.0679C23.8862 30.6485 24.5887 28.7134 24.5887 28.7134C25.3966 29.9804 26.3367 31.17 27.3952 32.265C26.5969 32.3759 25.8058 32.5275 25.0254 32.7192V32.716ZM22.8892 22.4651C22.8892 20.9685 23.4089 20.56 23.8135 20.56C24.218 20.56 24.6733 20.7414 24.6886 22.0409C24.5568 23.3476 24.2631 24.6357 23.8135 25.8795C23.1975 24.8352 22.8788 23.6614 22.8875 22.4699L22.8892 22.4651ZM15.0199 39.0495C13.3645 38.1269 18.4916 35.2867 19.4209 35.1952C19.4158 35.1968 16.7532 40.0147 15.0199 39.0495ZM35.9873 33.5945C35.9704 33.4368 35.818 31.6909 32.4834 31.7651C31.0935 31.7442 29.7043 31.8355 28.3313 32.0379C27.0012 30.7895 25.8559 29.3814 24.9256 27.8508C25.5117 26.2728 25.8664 24.6283 25.9801 22.9619C25.931 21.0694 25.4452 19.9844 23.8879 20.0002C22.3307 20.0159 22.1038 21.2855 22.3086 23.1748C22.5093 24.4444 22.8877 25.684 23.4343 26.862C23.4343 26.862 22.7149 28.9484 21.7636 31.0238C20.8123 33.0993 20.1623 34.1874 20.1623 34.1874C18.5081 34.6892 16.9508 35.4346 15.5497 36.3953C14.1549 37.6049 13.5879 38.5338 14.3225 39.4627C14.9556 40.2639 17.1713 40.4452 19.1518 38.0276C20.2041 36.7789 21.1654 35.4659 22.0294 34.0976C22.0294 34.0976 25.0491 33.3264 25.9886 33.115C26.928 32.9037 28.0638 32.7365 28.0638 32.7365C28.0638 32.7365 30.8212 35.3214 33.4804 35.2299C36.1397 35.1384 36.011 33.749 35.9941 33.5976"/>
</mask>
<path d="M29.0151 32.5851C29.0151 32.5851 34.4114 31.6736 34.4114 33.391C34.4114 35.1084 31.0683 34.4098 29.0151 32.5851ZM25.0254 32.716C24.1681 32.8925 23.3325 33.151 22.5321 33.4872L23.2092 32.0679C23.8862 30.6485 24.5887 28.7134 24.5887 28.7134C25.3966 29.9804 26.3367 31.17 27.3952 32.265C26.5969 32.3759 25.8058 32.5275 25.0254 32.7192V32.716ZM22.8892 22.4651C22.8892 20.9685 23.4089 20.56 23.8135 20.56C24.218 20.56 24.6733 20.7414 24.6886 22.0409C24.5568 23.3476 24.2631 24.6357 23.8135 25.8795C23.1975 24.8352 22.8788 23.6614 22.8875 22.4699L22.8892 22.4651ZM15.0199 39.0495C13.3645 38.1269 18.4916 35.2867 19.4209 35.1952C19.4158 35.1968 16.7532 40.0147 15.0199 39.0495ZM35.9873 33.5945C35.9704 33.4368 35.818 31.6909 32.4834 31.7651C31.0935 31.7442 29.7043 31.8355 28.3313 32.0379C27.0012 30.7895 25.8559 29.3814 24.9256 27.8508C25.5117 26.2728 25.8664 24.6283 25.9801 22.9619C25.931 21.0694 25.4452 19.9844 23.8879 20.0002C22.3307 20.0159 22.1038 21.2855 22.3086 23.1748C22.5093 24.4444 22.8877 25.684 23.4343 26.862C23.4343 26.862 22.7149 28.9484 21.7636 31.0238C20.8123 33.0993 20.1623 34.1874 20.1623 34.1874C18.5081 34.6892 16.9508 35.4346 15.5497 36.3953C14.1549 37.6049 13.5879 38.5338 14.3225 39.4627C14.9556 40.2639 17.1713 40.4452 19.1518 38.0276C20.2041 36.7789 21.1654 35.4659 22.0294 34.0976C22.0294 34.0976 25.0491 33.3264 25.9886 33.115C26.928 32.9037 28.0638 32.7365 28.0638 32.7365C28.0638 32.7365 30.8212 35.3214 33.4804 35.2299C36.1397 35.1384 36.011 33.749 35.9941 33.5976" fill="white"/>
<path d="M29.0151 32.5851L28.9485 32.1907L28.1255 32.3297L28.7494 32.8841L29.0151 32.5851ZM25.0254 32.716H25.4254V32.2253L24.9448 32.3243L25.0254 32.716ZM22.5321 33.4872L22.1711 33.315L21.719 34.2626L22.687 33.856L22.5321 33.4872ZM23.2092 32.0679L22.8481 31.8956L23.2092 32.0679ZM24.5887 28.7134L24.926 28.4984L24.4896 27.8142L24.2127 28.577L24.5887 28.7134ZM27.3952 32.265L27.4502 32.6612L28.2298 32.5529L27.6828 31.987L27.3952 32.265ZM25.0254 32.7192H24.6254V33.2293L25.1208 33.1077L25.0254 32.7192ZM22.8892 22.4651L23.2658 22.6001L23.2892 22.5346V22.4651H22.8892ZM24.6886 22.0409L25.0866 22.081L25.0888 22.0587L25.0885 22.0362L24.6886 22.0409ZM23.8135 25.8795L23.4689 26.0827L23.9007 26.8147L24.1896 26.0155L23.8135 25.8795ZM22.8875 22.4699L22.511 22.3349L22.4881 22.3989L22.4876 22.4669L22.8875 22.4699ZM15.0199 39.0495L14.8252 39.3989L14.8253 39.399L15.0199 39.0495ZM19.4209 35.1952L19.5395 35.5772L19.3817 34.7971L19.4209 35.1952ZM32.4834 31.7651L32.4774 32.165L32.4849 32.1651L32.4923 32.165L32.4834 31.7651ZM28.3313 32.0379L28.0575 32.3296L28.1984 32.4618L28.3896 32.4336L28.3313 32.0379ZM24.9256 27.8508L24.5506 27.7115L24.4831 27.8931L24.5837 28.0586L24.9256 27.8508ZM25.9801 22.9619L26.3792 22.9891L26.3805 22.9703L26.38 22.9515L25.9801 22.9619ZM22.3086 23.1748L21.911 23.2179L21.912 23.2276L21.9136 23.2372L22.3086 23.1748ZM23.4343 26.862L23.0714 27.0303L23.8343 26.862H23.4343ZM20.1623 34.1874L20.2784 34.5702L20.4264 34.5253L20.5057 34.3926L20.1623 34.1874ZM15.5497 36.3953L15.3235 36.0654L15.3048 36.0783L15.2877 36.0931L15.5497 36.3953ZM14.3225 39.4627L14.6364 39.2147L14.6363 39.2146L14.3225 39.4627ZM19.1518 38.0276L18.8459 37.7698L18.8423 37.7741L19.1518 38.0276ZM22.0294 34.0976L22.3676 34.3111L22.755 33.6975H22.0294V34.0976ZM28.0638 32.7365L28.3374 32.4447L28.1965 32.3127L28.0056 32.3408L28.0638 32.7365ZM29.0151 32.5851C29.0817 32.9796 29.0817 32.9796 29.0817 32.9796C29.0817 32.9796 29.0817 32.9796 29.0817 32.9796C29.0818 32.9795 29.082 32.9795 29.0822 32.9795C29.0827 32.9794 29.0835 32.9793 29.0847 32.9791C29.0869 32.9787 29.0905 32.9781 29.0952 32.9773C29.1048 32.9758 29.1192 32.9734 29.1383 32.9704C29.1763 32.9644 29.2327 32.9557 29.3048 32.9451C29.4491 32.924 29.6559 32.8957 29.9043 32.8669C30.4025 32.8092 31.0619 32.7504 31.7172 32.744C32.3808 32.7375 33.0051 32.7854 33.4503 32.9228C33.6725 32.9913 33.819 33.0729 33.9048 33.154C33.9796 33.2247 34.0114 33.2959 34.0114 33.391H34.8114C34.8114 33.0568 34.6746 32.7808 34.4543 32.5726C34.245 32.3748 33.9699 32.2459 33.6861 32.1583C33.1196 31.9836 32.3948 31.9374 31.7093 31.9441C31.0156 31.9509 30.3258 32.0127 29.8122 32.0722C29.5547 32.102 29.34 32.1315 29.1891 32.1535C29.1137 32.1646 29.0541 32.1738 29.0132 32.1802C28.9927 32.1835 28.9768 32.1861 28.9659 32.1878C28.9605 32.1887 28.9563 32.1894 28.9534 32.1899C28.9519 32.1902 28.9508 32.1903 28.9499 32.1905C28.9495 32.1906 28.9492 32.1906 28.949 32.1906C28.9488 32.1907 28.9487 32.1907 28.9487 32.1907C28.9486 32.1907 28.9485 32.1907 29.0151 32.5851ZM34.0114 33.391C34.0114 33.5388 33.9763 33.635 33.932 33.7009C33.8871 33.7676 33.815 33.8292 33.6999 33.8784C33.4567 33.9822 33.0641 34.0105 32.5511 33.9222C31.5362 33.7474 30.2548 33.1517 29.2808 32.2861L28.7494 32.8841C29.8287 33.8433 31.2454 34.5092 32.4154 34.7106C32.9948 34.8103 33.5662 34.8053 34.014 34.6141C34.2444 34.5158 34.4496 34.3645 34.5955 34.1478C34.742 33.9302 34.8114 33.6726 34.8114 33.391H34.0114ZM24.9448 32.3243C24.0622 32.506 23.2018 32.772 22.3772 33.1184L22.687 33.856C23.4633 33.5299 24.2739 33.2791 25.1061 33.1078L24.9448 32.3243ZM22.8931 33.6594L23.5702 32.2401L22.8481 31.8956L22.1711 33.315L22.8931 33.6594ZM23.5702 32.2401C23.9147 31.5178 24.2636 30.6691 24.525 30.0049C24.6561 29.672 24.7658 29.3837 24.8428 29.1786C24.8814 29.076 24.9117 28.9941 24.9325 28.9377C24.9429 28.9096 24.9509 28.8878 24.9563 28.8729C24.959 28.8655 24.9611 28.8598 24.9625 28.856C24.9632 28.8541 24.9637 28.8526 24.9641 28.8516C24.9643 28.8511 24.9644 28.8507 24.9645 28.8504C24.9646 28.8503 24.9646 28.8502 24.9646 28.8501C24.9647 28.85 24.9647 28.85 24.9647 28.85C24.9647 28.85 24.9647 28.8499 24.5887 28.7134C24.2127 28.577 24.2127 28.577 24.2127 28.577C24.2127 28.577 24.2127 28.577 24.2127 28.577C24.2127 28.577 24.2127 28.5771 24.2126 28.5772C24.2126 28.5774 24.2124 28.5777 24.2123 28.5781C24.212 28.579 24.2115 28.5803 24.2108 28.5821C24.2095 28.5857 24.2076 28.591 24.205 28.5981C24.1998 28.6123 24.192 28.6335 24.1819 28.661C24.1616 28.716 24.1318 28.7964 24.0939 28.8974C24.018 29.0994 23.9098 29.3836 23.7806 29.7119C23.5216 30.3701 23.1807 31.1986 22.8481 31.8956L23.5702 32.2401ZM24.2515 28.9285C25.074 30.2183 26.0307 31.429 27.1076 32.543L27.6828 31.987C26.6427 30.911 25.7193 29.7424 24.926 28.4984L24.2515 28.9285ZM27.3401 31.8688C26.5284 31.9816 25.7238 32.1358 24.93 32.3307L25.1208 33.1077C25.8879 32.9193 26.6655 32.7702 27.4502 32.6612L27.3401 31.8688ZM25.4254 32.7192V32.716H24.6254V32.7192H25.4254ZM23.2892 22.4651C23.2892 21.7541 23.4142 21.3631 23.539 21.1631C23.6537 20.9793 23.7624 20.96 23.8135 20.96V20.16C23.4599 20.16 23.1066 20.345 22.8603 20.7396C22.6241 21.118 22.4892 21.6795 22.4892 22.4651H23.2892ZM23.8135 20.96C23.9526 20.96 24.0245 20.9879 24.0847 21.0631C24.167 21.1659 24.2813 21.4259 24.2886 22.0456L25.0885 22.0362C25.0806 21.3564 24.9596 20.8759 24.7093 20.5632C24.4369 20.2229 24.0789 20.16 23.8135 20.16V20.96ZM24.2906 22.0007C24.1621 23.2745 23.8758 24.5304 23.4373 25.7435L24.1896 26.0155C24.6504 24.741 24.9514 23.4207 25.0866 22.081L24.2906 22.0007ZM24.158 25.6763C23.5782 24.6933 23.2793 23.5905 23.2875 22.4728L22.4876 22.4669C22.4782 23.7322 22.8168 24.9771 23.4689 26.0827L24.158 25.6763ZM23.2641 22.6048L23.2658 22.6001L22.5127 22.3302L22.511 22.3349L23.2641 22.6048ZM15.2146 38.7001C15.0895 38.6304 15.0939 38.5859 15.0937 38.5834C15.0904 38.5508 15.1021 38.4583 15.2123 38.2913C15.4309 37.9602 15.8926 37.5515 16.4811 37.138C17.0584 36.7324 17.7174 36.3498 18.2877 36.0639C18.5727 35.921 18.8312 35.8044 19.0426 35.7218C19.2654 35.6348 19.403 35.5989 19.4601 35.5933L19.3817 34.7971C19.2065 34.8144 18.9806 34.8872 18.7516 34.9766C18.5112 35.0705 18.2296 35.198 17.9291 35.3487C17.3285 35.6499 16.6349 36.0522 16.0212 36.4834C15.4186 36.9068 14.8508 37.3868 14.5447 37.8506C14.3925 38.081 14.2679 38.3625 14.2975 38.6621C14.3301 38.9919 14.5364 39.238 14.8252 39.3989L15.2146 38.7001ZM19.3023 34.8132C19.2084 34.8563 19.1151 34.9374 19.1022 34.9534C19.0971 34.9603 19.0896 34.9711 19.087 34.975C19.0827 34.9814 19.0795 34.9867 19.0786 34.9881C19.0763 34.992 19.0742 34.9956 19.0733 34.9971C19.0711 35.0009 19.0684 35.0056 19.0658 35.0101C19.0601 35.0199 19.053 35.0325 19.0429 35.05C19.0233 35.0841 18.9943 35.1342 18.9569 35.1976C18.882 35.3246 18.7731 35.5053 18.6372 35.7194C18.3646 36.1487 17.9864 36.7068 17.5584 37.2323C17.126 37.7631 16.6624 38.2361 16.2224 38.5178C15.776 38.8037 15.4553 38.8341 15.2145 38.7001L14.8253 39.399C15.4512 39.7475 16.1133 39.5377 16.6538 39.1915C17.2007 38.8413 17.728 38.2908 18.1786 37.7375C18.6336 37.179 19.0303 36.5926 19.3125 36.1483C19.454 35.9255 19.5675 35.7371 19.646 35.604C19.6852 35.5375 19.7157 35.4848 19.7365 35.4487C19.7466 35.431 19.7549 35.4166 19.7597 35.4082C19.7624 35.4035 19.7637 35.4012 19.7642 35.4004C19.7647 35.3996 19.7636 35.4014 19.762 35.4041C19.7615 35.4049 19.7586 35.4097 19.7545 35.4159C19.752 35.4196 19.7445 35.4303 19.7395 35.4371C19.7267 35.453 19.6334 35.5341 19.5395 35.5772L19.3023 34.8132ZM36.385 33.5518C36.3732 33.4413 36.316 32.8514 35.7592 32.3068C35.2006 31.7607 34.2094 31.3266 32.4745 31.3652L32.4923 32.165C34.0921 32.1294 34.8443 32.5312 35.1998 32.8788C35.557 33.2281 35.5845 33.5899 35.5896 33.6372L36.385 33.5518ZM32.4894 31.3651C31.078 31.3439 29.6673 31.4366 28.2729 31.6422L28.3896 32.4336C29.7413 32.2344 31.109 32.1445 32.4774 32.165L32.4894 31.3651ZM28.605 31.7463C27.3009 30.5221 26.1786 29.1421 25.2674 27.643L24.5837 28.0586C25.5332 29.6206 26.7016 31.0569 28.0575 32.3296L28.605 31.7463ZM25.3005 27.9901C25.8999 26.3764 26.2628 24.6942 26.3792 22.9891L25.581 22.9347C25.47 24.5625 25.1235 26.1693 24.5506 27.7115L25.3005 27.9901ZM26.38 22.9515C26.3551 21.991 26.2207 21.153 25.8369 20.5505C25.4267 19.9065 24.7728 19.5912 23.8839 19.6002L23.892 20.4001C24.5603 20.3934 24.928 20.6127 25.1622 20.9804C25.4229 21.3896 25.5561 22.0403 25.5802 22.9723L26.38 22.9515ZM23.8839 19.6002C23.4411 19.6047 23.0566 19.6988 22.7407 19.8996C22.4218 20.1025 22.2054 20.3935 22.0669 20.7343C21.8003 21.3905 21.8082 22.2694 21.911 23.2179L22.7063 23.1317C22.6043 22.1909 22.6232 21.4903 22.8081 21.0355C22.8953 20.8208 23.0149 20.6734 23.17 20.5747C23.3283 20.474 23.5561 20.4036 23.892 20.4001L23.8839 19.6002ZM21.9136 23.2372C22.12 24.5439 22.5094 25.8191 23.0714 27.0303L23.7971 26.6936C23.266 25.549 22.8985 24.345 22.7037 23.1124L21.9136 23.2372ZM23.4343 26.862C23.0561 26.7316 23.0561 26.7316 23.0561 26.7316C23.0561 26.7316 23.0561 26.7316 23.0561 26.7316C23.0561 26.7317 23.0561 26.7317 23.0561 26.7318C23.056 26.732 23.0559 26.7324 23.0557 26.7328C23.0554 26.7337 23.0549 26.7351 23.0543 26.737C23.0529 26.7408 23.0509 26.7466 23.0482 26.7543C23.0429 26.7697 23.0349 26.7927 23.0243 26.8228C23.003 26.883 22.9716 26.9716 22.9308 27.0846C22.8492 27.3106 22.7304 27.6339 22.5821 28.0217C22.2851 28.7981 21.8708 29.83 21.4 30.8572L22.1272 31.1905C22.6077 30.1423 23.0287 29.0933 23.3293 28.3075C23.4797 27.9143 23.6002 27.5863 23.6833 27.3562C23.7248 27.2412 23.7569 27.1506 23.7788 27.0886C23.7897 27.0576 23.7981 27.0337 23.8037 27.0175C23.8065 27.0094 23.8087 27.0032 23.8101 26.999C23.8109 26.9969 23.8114 26.9953 23.8118 26.9942C23.812 26.9936 23.8122 26.9932 23.8123 26.9929C23.8123 26.9927 23.8124 26.9926 23.8124 26.9925C23.8124 26.9925 23.8124 26.9924 23.8124 26.9924C23.8124 26.9924 23.8124 26.9924 23.4343 26.862ZM21.4 30.8572C20.9277 31.8876 20.5307 32.6717 20.2527 33.1967C20.1137 33.4593 20.0044 33.6571 19.9303 33.7885C19.8932 33.8543 19.865 33.9034 19.8462 33.9358C19.8368 33.952 19.8298 33.9639 19.8252 33.9717C19.8229 33.9756 19.8212 33.9784 19.8202 33.9802C19.8197 33.9811 19.8193 33.9817 19.8191 33.982C19.819 33.9822 19.8189 33.9823 19.8189 33.9824C19.8189 33.9824 19.8189 33.9824 19.8189 33.9824C19.8189 33.9824 19.8189 33.9824 19.8189 33.9824C19.8189 33.9823 19.8189 33.9823 20.1623 34.1874C20.5057 34.3926 20.5057 34.3925 20.5058 34.3925C20.5058 34.3925 20.5058 34.3924 20.5058 34.3924C20.5059 34.3923 20.5059 34.3922 20.506 34.3921C20.5061 34.3919 20.5063 34.3916 20.5065 34.3912C20.5069 34.3905 20.5075 34.3896 20.5082 34.3883C20.5097 34.3859 20.5118 34.3823 20.5145 34.3777C20.5199 34.3685 20.5278 34.3551 20.538 34.3375C20.5585 34.3022 20.5884 34.2502 20.6272 34.1814C20.7047 34.044 20.8173 33.84 20.9597 33.5711C21.2445 33.0333 21.6482 32.2355 22.1272 31.1905L21.4 30.8572ZM20.0462 33.8047C18.3535 34.3181 16.759 35.0811 15.3235 36.0654L15.7759 36.7252C17.1427 35.788 18.6627 35.0603 20.2784 34.5702L20.0462 33.8047ZM15.2877 36.0931C14.5852 36.7023 14.0354 37.2853 13.7727 37.8705C13.6373 38.172 13.5723 38.4862 13.611 38.8093C13.6498 39.1326 13.7886 39.4324 14.0088 39.7108L14.6363 39.2146C14.4892 39.0286 14.4233 38.864 14.4054 38.7141C14.3874 38.5639 14.4136 38.3962 14.5025 38.1981C14.6884 37.7842 15.1195 37.2979 15.8118 36.6975L15.2877 36.0931ZM14.0087 39.7107C14.4484 40.2673 15.3351 40.5181 16.302 40.346C17.2921 40.1698 18.4213 39.5505 19.4612 38.2811L18.8423 37.7741C17.9018 38.9223 16.9329 39.4212 16.1618 39.5584C15.3674 39.6998 14.8297 39.4593 14.6364 39.2147L14.0087 39.7107ZM19.4577 38.2854C20.5216 37.0228 21.4938 35.6951 22.3676 34.3111L21.6911 33.884C20.837 35.2368 19.8865 36.535 18.8459 37.7698L19.4577 38.2854ZM22.0294 34.0976C22.1283 34.4851 22.1283 34.4851 22.1284 34.4851C22.1284 34.4851 22.1284 34.4851 22.1285 34.4851C22.1285 34.4851 22.1287 34.485 22.1289 34.485C22.1292 34.4849 22.1298 34.4847 22.1305 34.4846C22.1319 34.4842 22.1341 34.4836 22.137 34.4829C22.1427 34.4814 22.1512 34.4793 22.1624 34.4764C22.1847 34.4707 22.2175 34.4624 22.2597 34.4516C22.344 34.4301 22.4655 34.3992 22.6143 34.3615C22.9119 34.2859 23.3184 34.183 23.7541 34.0735C24.6281 33.8539 25.6125 33.6096 26.0764 33.5053L25.9008 32.7248C25.4252 32.8318 24.43 33.0788 23.5592 33.2976C23.1226 33.4073 22.7154 33.5104 22.4174 33.5861C22.2684 33.6239 22.1467 33.6549 22.0622 33.6764C22.02 33.6871 21.987 33.6955 21.9646 33.7012C21.9534 33.7041 21.9449 33.7063 21.9391 33.7078C21.9362 33.7085 21.9341 33.709 21.9326 33.7094C21.9319 33.7096 21.9313 33.7098 21.9309 33.7098C21.9308 33.7099 21.9306 33.7099 21.9305 33.71C21.9305 33.71 21.9304 33.71 21.9304 33.71C21.9304 33.71 21.9304 33.71 22.0294 34.0976ZM26.0764 33.5053C26.5361 33.4019 27.047 33.3086 27.4455 33.2409C27.6442 33.2071 27.8138 33.1799 27.9335 33.1611C27.9934 33.1518 28.0408 33.1445 28.0731 33.1396C28.0892 33.1372 28.1016 33.1353 28.1099 33.1341C28.114 33.1335 28.1171 33.133 28.1192 33.1327C28.1202 33.1326 28.1209 33.1324 28.1214 33.1324C28.1217 33.1323 28.1218 33.1323 28.1219 33.1323C28.122 33.1323 28.122 33.1323 28.1221 33.1323C28.1221 33.1323 28.1221 33.1323 28.1221 33.1323C28.1221 33.1323 28.1221 33.1323 28.0638 32.7365C28.0056 32.3408 28.0055 32.3408 28.0055 32.3408C28.0055 32.3408 28.0055 32.3408 28.0055 32.3408C28.0054 32.3408 28.0053 32.3408 28.0053 32.3409C28.0051 32.3409 28.0048 32.3409 28.0045 32.341C28.0039 32.341 28.003 32.3412 28.0019 32.3414C27.9996 32.3417 27.9962 32.3422 27.9918 32.3429C27.9829 32.3442 27.97 32.3461 27.9532 32.3487C27.9198 32.3537 27.8711 32.3612 27.8098 32.3708C27.6872 32.39 27.5142 32.4178 27.3115 32.4522C26.9072 32.5209 26.3805 32.6169 25.9008 32.7248L26.0764 33.5053ZM28.0638 32.7365C27.7902 33.0284 27.7903 33.0284 27.7904 33.0285C27.7905 33.0286 27.7906 33.0287 27.7907 33.0288C27.7908 33.0289 27.7911 33.0291 27.7913 33.0294C27.7918 33.0299 27.7925 33.0305 27.7934 33.0313C27.7951 33.0329 27.7975 33.0351 27.8006 33.038C27.8067 33.0436 27.8154 33.0516 27.8267 33.0618C27.8492 33.0823 27.8819 33.1116 27.9241 33.1485C28.0085 33.2223 28.1309 33.3266 28.2858 33.4509C28.5951 33.6992 29.0361 34.0295 29.5638 34.3573C30.6057 35.0046 32.0437 35.6795 33.4942 35.6296L33.4667 34.8301C32.2579 34.8717 30.9876 34.3 29.986 33.6777C29.4919 33.3708 29.0774 33.0605 28.7866 32.8271C28.6414 32.7105 28.5277 32.6136 28.4508 32.5464C28.4125 32.5128 28.3833 32.4867 28.3642 32.4693C28.3546 32.4606 28.3475 32.4541 28.343 32.45C28.3408 32.4479 28.3392 32.4464 28.3382 32.4455C28.3378 32.4451 28.3374 32.4448 28.3373 32.4446C28.3372 32.4446 28.3372 32.4446 28.3372 32.4446C28.3372 32.4446 28.3373 32.4446 28.3373 32.4446C28.3373 32.4447 28.3374 32.4447 28.0638 32.7365ZM33.4942 35.6296C34.8862 35.5818 35.6554 35.19 36.0548 34.684C36.4503 34.183 36.4043 33.6672 36.3916 33.5532L35.5966 33.6421C35.6007 33.6795 35.6276 33.934 35.4268 34.1884C35.23 34.4378 34.7339 34.7865 33.4667 34.8301L33.4942 35.6296Z" fill="white" mask="url(#path-2-outside-1_3023_2430)"/>
</svg>
