<svg width="24" height="24" viewBox="0 0 24 24" fill="none" xmlns="http://www.w3.org/2000/svg">
<path d="M14.625 1H6.125C5.56141 1 5.02091 1.23178 4.6224 1.64436C4.22388 2.05694 4 2.61652 4 3.2V20.8C4 21.3835 4.22388 21.9431 4.6224 22.3556C5.02091 22.7682 5.56141 23 6.125 23H18.875C19.4386 23 19.9791 22.7682 20.3776 22.3556C20.7761 21.9431 21 21.3835 21 20.8V7.6L14.625 1ZM13.5625 8.7V3.2L18.875 8.7H13.5625Z" fill="#193262"/>
<path fill-rule="evenodd" clip-rule="evenodd" d="M9.23759 16.6975C8.86679 17.0545 8.31959 17.2146 7.68239 17.2146C7.55884 17.216 7.43534 17.2086 7.31279 17.1924V18.9483H6.23999V14.1018C6.72414 14.0277 7.21333 13.994 7.70279 14.0009C8.37119 14.0009 8.84639 14.1314 9.16679 14.3937C9.47159 14.6424 9.67799 15.05 9.67799 15.5302C9.67679 16.0128 9.52079 16.4204 9.23759 16.6975ZM7.31421 14.8853C7.39101 14.8632 7.53981 14.841 7.76061 14.841C8.30061 14.841 8.60541 15.1119 8.60541 15.5625C8.60541 16.0661 8.25141 16.3641 7.67661 16.3641C7.51941 16.3641 7.40541 16.358 7.31421 16.3358V14.8853Z" fill="white"/>
<path fill-rule="evenodd" clip-rule="evenodd" d="M17.9628 18.3654C17.4588 18.7951 16.692 18.9995 15.7548 18.9995C15.1932 18.9995 14.796 18.9626 14.526 18.9256V14.1026C15.0103 14.0301 15.4993 13.9959 15.9888 14.0004C16.8972 14.0004 17.4876 14.1679 17.9484 14.5249C18.4464 14.9042 18.7584 15.5087 18.7584 16.3768C18.7584 17.3163 18.4236 17.9652 17.9628 18.3654ZM15.6134 14.8996C15.7058 14.8774 15.8618 14.8553 16.1018 14.8553C17.033 14.8553 17.615 15.3946 17.6078 16.4166C17.6078 17.5888 16.9694 18.1429 15.989 18.1355C15.8546 18.1355 15.7058 18.1355 15.6134 18.1133V14.8996Z" fill="white"/>
<path d="M12.9737 15.4656C12.9547 15.274 12.8731 15.1251 12.729 15.019C12.5849 14.9129 12.3894 14.8599 12.1423 14.8599C11.9745 14.8599 11.8328 14.8836 11.7172 14.9311C11.6016 14.977 11.5129 15.0412 11.4511 15.1235C11.391 15.2059 11.3609 15.2993 11.3609 15.4038C11.3577 15.4909 11.3759 15.5669 11.4155 15.6318C11.4567 15.6968 11.5129 15.753 11.5842 15.8005C11.6554 15.8464 11.7378 15.8868 11.8312 15.9216C11.9246 15.9549 12.0244 15.9834 12.1305 16.0071L12.5675 16.1116C12.7797 16.1591 12.9745 16.2225 13.1519 16.3017C13.3292 16.3808 13.4828 16.4782 13.6127 16.5938C13.7425 16.7094 13.8431 16.8456 13.9143 17.0024C13.9872 17.1591 14.0244 17.3389 14.026 17.5416C14.0244 17.8393 13.9484 18.0974 13.7979 18.3159C13.6491 18.5329 13.4337 18.7015 13.1519 18.8219C12.8716 18.9406 12.5335 19 12.1376 19C11.7449 19 11.4028 18.9398 11.1115 18.8195C10.8217 18.6991 10.5952 18.521 10.4321 18.285C10.2706 18.0475 10.1859 17.7538 10.178 17.4038H11.1732C11.1843 17.5669 11.231 17.7031 11.3134 17.8124C11.3973 17.92 11.5089 18.0016 11.6483 18.057C11.7892 18.1108 11.9484 18.1378 12.1257 18.1378C12.2999 18.1378 12.4511 18.1124 12.5794 18.0618C12.7093 18.0111 12.8098 17.9406 12.8811 17.8504C12.9523 17.7601 12.988 17.6564 12.988 17.5392C12.988 17.4299 12.9555 17.3381 12.8906 17.2637C12.8272 17.1892 12.7338 17.1259 12.6103 17.0736C12.4884 17.0214 12.3387 16.9739 12.1614 16.9311L11.6317 16.7981C11.2215 16.6983 10.8977 16.5424 10.6602 16.3302C10.4226 16.118 10.3047 15.8321 10.3062 15.4727C10.3047 15.1781 10.383 14.9208 10.5414 14.7007C10.7013 14.4806 10.9207 14.3088 11.1994 14.1853C11.4781 14.0618 11.7948 14 12.1495 14C12.5105 14 12.8256 14.0618 13.0948 14.1853C13.3656 14.3088 13.5762 14.4806 13.7267 14.7007C13.8771 14.9208 13.9547 15.1758 13.9595 15.4656H12.9737Z" fill="white"/>
</svg>
