<svg width="56" height="56" viewBox="0 0 56 56" fill="none" xmlns="http://www.w3.org/2000/svg">
<path fill-rule="evenodd" clip-rule="evenodd" d="M51.3327 28C51.3327 40.8867 40.886 51.3334 27.9994 51.3334C24.2668 51.3334 20.7389 50.4569 17.6102 48.8986C16.7788 48.4845 15.8285 48.3467 14.9312 48.5867L9.73716 49.9765C7.48238 50.5798 5.41958 48.517 6.02287 46.2622L7.41263 41.0681C7.6527 40.1708 7.51487 39.2205 7.10076 38.3891C5.54245 35.2605 4.66602 31.7326 4.66602 28C4.66602 15.1134 15.1127 4.66669 27.9994 4.66669C40.886 4.66669 51.3327 15.1134 51.3327 28ZM36.2368 22.0959C36.9202 22.7793 36.9202 23.8874 36.2368 24.5708L26.9035 33.9041C26.2299 34.5777 25.1413 34.5888 24.4541 33.9291L19.7874 29.4491C19.0902 28.7798 19.0676 27.672 19.7369 26.9748C20.4063 26.2775 21.5141 26.2549 22.2113 26.9243L25.641 30.2168L33.7619 22.0959C34.4453 21.4125 35.5534 21.4125 36.2368 22.0959Z" fill="#53E27B"/>
</svg>
