<svg width="24" height="24" viewBox="0 0 24 24" fill="none" xmlns="http://www.w3.org/2000/svg">
<path d="M14.625 1H6.125C5.56141 1 5.02091 1.23178 4.6224 1.64436C4.22388 2.05694 4 2.61652 4 3.2V20.8C4 21.3835 4.22388 21.9431 4.6224 22.3556C5.02091 22.7682 5.56141 23 6.125 23H18.875C19.4386 23 19.9791 22.7682 20.3776 22.3556C20.7761 21.9431 21 21.3835 21 20.8V7.6L14.625 1ZM13.5625 8.7V3.2L18.875 8.7H13.5625Z" fill="#B264B4"/>
<path d="M7 14.8716V14H11.3014V14.8716H9.69795V19H8.60343V14.8716H7Z" fill="white"/>
<path d="M13.3447 14V19H12.2374V14H13.3447Z" fill="white"/>
<path d="M14.3323 19V14H17.8V14.8716H15.4396V16.063H17.5698V16.9346H15.4396V19H14.3323Z" fill="white"/>
</svg>
