<svg width="24" height="24" viewBox="0 0 24 24" fill="none" xmlns="http://www.w3.org/2000/svg">
<path d="M2.36416 12.958C1.98416 10.321 1.79416 9.002 2.33516 7.875C2.87516 6.748 4.02616 6.062 6.32716 4.692L7.71216 3.867C9.80016 2.622 10.8462 2 12.0002 2C13.1542 2 14.1992 2.622 16.2882 3.867L17.6732 4.692C19.9732 6.062 21.1242 6.748 21.6652 7.875C22.2052 9.002 22.0152 10.321 21.6352 12.958L21.3572 14.895C20.8702 18.283 20.6262 19.976 19.4512 20.988C18.2762 22 16.5532 22 13.1062 22H10.8942C7.44716 22 5.72416 22 4.54916 20.988C3.37416 19.976 3.13016 18.283 2.64316 14.895L2.36416 12.958Z" stroke="#B8B8B8" stroke-width="1.5"/>
<path d="M15 18H9" stroke="#B8B8B8" stroke-width="1.5" stroke-linecap="round"/>
</svg>
