<svg width="24" height="24" viewBox="0 0 24 24" fill="none" xmlns="http://www.w3.org/2000/svg">
    <path fill-rule="evenodd" clip-rule="evenodd" d="M2.33507 7.875C1.79507 9.002 1.98507 10.321 2.36507 12.958L2.64307 14.895C3.13007 18.283 3.37407 19.976 4.54907 20.988C5.72407 22 7.44707 22 10.8941 22H13.1061C16.5531 22 18.2761 22 19.4511 20.988C20.6261 19.976 20.8701 18.283 21.3571 14.895L21.6361 12.958C22.0161 10.321 22.2061 9.002 21.6651 7.875C21.1251 6.748 19.9741 6.062 17.6731 4.692L16.2881 3.867C14.2001 2.622 13.1541 2 12.0001 2C10.8461 2 9.80107 2.622 7.71207 3.867L6.32707 4.692C4.02707 6.062 2.87607 6.748 2.33507 7.875ZM8.25007 18C8.25007 17.8011 8.32908 17.6103 8.46974 17.4697C8.61039 17.329 8.80115 17.25 9.00007 17.25H15.0001C15.199 17.25 15.3897 17.329 15.5304 17.4697C15.671 17.6103 15.7501 17.8011 15.7501 18C15.7501 18.1989 15.671 18.3897 15.5304 18.5303C15.3897 18.671 15.199 18.75 15.0001 18.75H9.00007C8.80115 18.75 8.61039 18.671 8.46974 18.5303C8.32908 18.3897 8.25007 18.1989 8.25007 18Z" fill="url(#paint0_linear_3004_20509)"/>
    <defs>
        <linearGradient id="paint0_linear_3004_20509" x1="2.00012" y1="13" x2="21.0001" y2="13" gradientUnits="userSpaceOnUse">
            <stop stop-color="#EB63F7"/>
            <stop offset="1" stop-color="#6B68FD"/>
        </linearGradient>
    </defs>
</svg>
