<svg width="162" height="32" viewBox="0 0 162 32" fill="none" xmlns="http://www.w3.org/2000/svg">
<mask id="mask0_3284_17394" style="mask-type:luminance" maskUnits="userSpaceOnUse" x="0" y="0" width="162" height="32">
<path d="M162 0H0V32H162V0Z" fill="white"/>
</mask>
<g mask="url(#mask0_3284_17394)">
<path d="M42.041 6.07991C37.2995 6.07991 33.4274 9.99991 33.4274 14.7999C33.4274 19.5999 37.2995 23.5199 42.041 23.5199C43.9376 23.5199 45.7551 22.8799 47.1776 21.8399V23.4399H50.7337V14.7999C50.6547 9.99991 46.7824 6.07991 42.041 6.07991ZM42.041 19.9999C39.1961 19.9999 36.9045 17.6799 36.9045 14.7999C36.9045 11.9199 39.1961 9.59991 42.041 9.59991C44.8859 9.59991 47.1776 11.9199 47.1776 14.7999C47.1776 17.6799 44.8859 19.9999 42.041 19.9999Z" fill="#3D3D3D"/>
<path d="M103.996 6.07991C99.2548 6.07991 95.3826 9.99991 95.3826 14.7999C95.3826 19.5999 99.2548 23.5199 103.996 23.5199C106.762 23.5199 109.37 22.1599 110.951 19.9199L108.105 17.8399C107.157 19.1999 105.577 19.9999 103.996 19.9999C101.783 19.9999 99.8868 18.5599 99.1757 16.5599H112.61V14.7999C112.61 9.99991 108.738 6.07991 103.996 6.07991ZM99.1757 13.0399C99.8868 11.0399 101.783 9.59991 103.996 9.59991C106.209 9.59991 108.105 11.0399 108.817 13.0399H99.1757Z" fill="#3D3D3D"/>
<path d="M85.8211 6.08008C81.4748 6.08008 77.9977 10.0001 77.9977 14.8001V23.4401H81.5537V14.8001C81.5537 11.9201 83.5294 9.60008 85.9001 9.60008C88.2708 9.60008 90.2465 11.9201 90.2465 14.8001V23.4401H93.8025V14.8001C93.7236 10.0001 90.1674 6.08008 85.8211 6.08008Z" fill="#3D3D3D"/>
<path d="M24.6558 6.07991C22.5222 6.07991 20.6256 7.03991 19.2821 8.55991C18.0178 7.03991 16.0421 6.07991 13.9085 6.07991C9.9572 6.07991 6.79626 9.27991 6.79626 13.2799V23.4399H10.3524V13.2799C10.3524 11.2799 11.9329 9.67991 13.9085 9.67991C15.8841 9.67991 17.4646 11.2799 17.4646 13.2799V23.4399H21.0206V13.2799C21.0206 11.2799 22.6011 9.67991 24.5768 9.67991C26.5524 9.67991 28.1329 11.2799 28.1329 13.2799V23.4399H31.689V13.2799C31.768 9.27991 28.528 6.07991 24.6558 6.07991Z" fill="#3D3D3D"/>
<path d="M61.0068 6.07991C56.2653 6.07991 52.3932 9.99991 52.3932 14.7999C52.3932 19.5999 56.2653 23.5199 61.0068 23.5199C62.9034 23.5199 64.721 22.8799 66.1434 21.8399V23.1999C66.1434 26.0799 63.8518 28.3999 61.0068 28.3999C59.4263 28.3999 57.9249 27.6799 56.8976 26.3199L54.1317 28.4799C55.7912 30.7199 58.3201 31.9199 61.0068 31.9199C65.7484 31.9199 69.6205 27.9999 69.6205 23.1999V14.7999C69.6205 9.99991 65.7484 6.07991 61.0068 6.07991ZM61.0068 19.9999C58.162 19.9999 55.8703 17.6799 55.8703 14.7999C55.8703 11.9199 58.162 9.59991 61.0068 9.59991C63.8518 9.59991 66.1434 11.9199 66.1434 14.7999C66.1434 17.6799 63.8518 19.9999 61.0068 19.9999Z" fill="#3D3D3D"/>
<path d="M75.5469 7.28006H71.9908V23.4401H75.5469V7.28006Z" fill="#3D3D3D"/>
<path d="M73.7295 0.320038C72.3071 0.320038 71.2007 1.52004 71.2007 2.88004C71.2007 4.24004 72.386 5.44004 73.7295 5.44004C75.1519 5.44004 76.2583 4.24004 76.2583 2.88004C76.2583 1.52004 75.1519 0.320038 73.7295 0.320038Z" fill="#3D3D3D"/>
<path d="M4.34712 7.28017H0.791016V23.4402H4.34712V7.28017Z" fill="#3D3D3D"/>
<path d="M2.52879 0.320206C1.18536 0.320206 0 1.52021 0 2.96021C0 4.40021 1.18536 5.52021 2.52879 5.52021C3.95122 5.52021 5.05757 4.32021 5.05757 2.96021C5.05757 1.60021 3.95122 0.320206 2.52879 0.320206Z" fill="#3D3D3D"/>
<path d="M161.446 14.8C161.446 9.99996 157.574 6.07996 152.833 6.07996C148.091 6.07996 144.219 9.99996 144.219 14.8C144.219 19.6 148.091 23.52 152.833 23.52C155.599 23.52 158.207 22.16 159.787 19.92L156.942 17.84C155.994 19.2 154.413 20 152.833 20C150.62 20 148.723 18.56 148.012 16.56H161.446V14.8ZM148.012 13.04C148.723 11.04 150.62 9.59996 152.833 9.59996C155.045 9.59996 156.942 11.04 157.653 13.04H148.012Z" fill="#B3B3B3"/>
<path d="M125.57 7.27997H122.015V23.44H125.57V7.27997Z" fill="#B3B3B3"/>
<path d="M119.485 -0.000518799H115.929V23.4395H119.485V-0.000518799Z" fill="#B3B3B3"/>
<path d="M123.832 0.319962C122.41 0.319962 121.303 1.51996 121.303 2.87996C121.303 4.23996 122.488 5.43996 123.832 5.43996C125.254 5.43996 126.361 4.23996 126.361 2.87996C126.361 1.51996 125.254 0.319962 123.832 0.319962Z" fill="#B3B3B3"/>
<path d="M140.427 7.27971L135.765 18.7197L131.103 7.27971H127.231L133.869 23.4397H137.661L144.3 7.27971H140.427Z" fill="#B3B3B3"/>
</g>
</svg>
