<svg width="24" height="24" viewBox="0 0 24 24" fill="none" xmlns="http://www.w3.org/2000/svg">
<path d="M20.082 3.01784L20.1081 3.76738L20.082 3.01784ZM16.5 3.48753L16.2849 2.76904V2.76904L16.5 3.48753ZM13.6738 4.80284L13.2982 4.15372L13.2982 4.15372L13.6738 4.80284ZM3.9824 3.07498L3.93639 3.82357L3.9824 3.07498ZM7 3.48753L7.19136 2.76236V2.76236L7 3.48753ZM10.2823 4.87555L9.93167 5.53856L10.2823 4.87555ZM13.6276 20.0693L13.9804 20.7312L13.6276 20.0693ZM17 18.6335L16.8086 17.9083H16.8086L17 18.6335ZM19.9851 18.2229L20.032 18.9714L19.9851 18.2229ZM10.3724 20.0693L10.0196 20.7312H10.0196L10.3724 20.0693ZM7 18.6335L7.19136 17.9083H7.19136L7 18.6335ZM4.01486 18.2229L3.96804 18.9714H3.96804L4.01486 18.2229ZM2.75 16.1437V4.99789H1.25V16.1437H2.75ZM22.75 16.1437V4.93328H21.25V16.1437H22.75ZM20.0559 2.26829C18.9175 2.30794 17.4296 2.42636 16.2849 2.76904L16.7151 4.20603C17.6643 3.92188 18.9892 3.80636 20.1081 3.76738L20.0559 2.26829ZM16.2849 2.76904C15.2899 3.06693 14.1706 3.64877 13.2982 4.15372L14.0495 5.45197C14.9 4.95978 15.8949 4.45158 16.7151 4.20603L16.2849 2.76904ZM3.93639 3.82357C4.90238 3.88294 5.99643 3.99838 6.80864 4.21271L7.19136 2.76236C6.23055 2.50882 5.01517 2.38704 4.02841 2.32639L3.93639 3.82357ZM6.80864 4.21271C7.77076 4.4666 8.95486 5.02205 9.93167 5.53856L10.6328 4.21253C9.63736 3.68615 8.32766 3.0622 7.19136 2.76236L6.80864 4.21271ZM13.9804 20.7312C14.9714 20.2029 16.1988 19.6205 17.1914 19.3586L16.8086 17.9083C15.6383 18.2171 14.2827 18.8702 13.2748 19.4075L13.9804 20.7312ZM17.1914 19.3586C17.9943 19.1467 19.0732 19.0314 20.032 18.9714L19.9383 17.4744C18.9582 17.5357 17.7591 17.6575 16.8086 17.9083L17.1914 19.3586ZM10.7252 19.4075C9.71727 18.8702 8.3617 18.2171 7.19136 17.9083L6.80864 19.3586C7.8012 19.6205 9.0286 20.2029 10.0196 20.7312L10.7252 19.4075ZM7.19136 17.9083C6.24092 17.6575 5.04176 17.5357 4.06168 17.4744L3.96804 18.9714C4.9268 19.0314 6.00566 19.1467 6.80864 19.3586L7.19136 17.9083ZM21.25 16.1437C21.25 16.8294 20.6817 17.4279 19.9383 17.4744L20.032 18.9714C21.5062 18.8792 22.75 17.6799 22.75 16.1437H21.25ZM22.75 4.93328C22.75 3.46998 21.5847 2.21504 20.0559 2.26829L20.1081 3.76738C20.7229 3.74597 21.25 4.2517 21.25 4.93328H22.75ZM1.25 16.1437C1.25 17.6799 2.49378 18.8792 3.96804 18.9714L4.06168 17.4744C3.31831 17.4279 2.75 16.8294 2.75 16.1437H1.25ZM13.2748 19.4075C12.4825 19.8298 11.5175 19.8298 10.7252 19.4075L10.0196 20.7312C11.2529 21.3886 12.7471 21.3886 13.9804 20.7312L13.2748 19.4075ZM13.2982 4.15372C12.4801 4.62718 11.4617 4.65079 10.6328 4.21253L9.93167 5.53856C11.2239 6.22186 12.791 6.18034 14.0495 5.45197L13.2982 4.15372ZM2.75 4.99789C2.75 4.30071 3.30243 3.7846 3.93639 3.82357L4.02841 2.32639C2.47017 2.23062 1.25 3.49874 1.25 4.99789H2.75Z" fill="#B8B8B8"/>
<path d="M12 5.854V20.9999" stroke="#B8B8B8" stroke-width="1.5"/>
<path d="M5 9L9 10" stroke="#B8B8B8" stroke-width="1.5" stroke-linecap="round"/>
<path d="M19 9L15 10" stroke="#B8B8B8" stroke-width="1.5" stroke-linecap="round"/>
<path d="M5 13L9 14" stroke="#B8B8B8" stroke-width="1.5" stroke-linecap="round"/>
<path d="M19 13L15 14" stroke="#B8B8B8" stroke-width="1.5" stroke-linecap="round"/>
</svg>
