<svg width="24" height="24" viewBox="0 0 24 24" fill="none" xmlns="http://www.w3.org/2000/svg">
<path fill-rule="evenodd" clip-rule="evenodd" d="M6.61391 2.92632C5.3358 3.09811 4.56473 3.42484 3.99421 3.99445C3.42484 4.56436 3.09811 5.33526 2.92632 6.61353C2.75159 7.91358 2.75 9.62181 2.75 12C2.75 14.3782 2.75159 16.0867 2.92632 17.3867C3.09816 18.6653 3.42496 19.4357 3.99415 20.0045C4.56411 20.5745 5.33519 20.9016 6.61359 21.0736C7.91361 21.2484 9.62179 21.25 12 21.25C14.3782 21.25 16.0866 21.2484 17.3867 21.0736C18.6651 20.9016 19.4355 20.5746 20.0043 20.005C20.5741 19.4356 20.9016 18.6646 21.0736 17.3863C21.2484 16.0864 21.25 14.3782 21.25 12C21.25 9.62179 21.2484 7.91386 21.0736 6.61398C20.9016 5.33578 20.5747 4.56471 20.0045 3.99415C19.4351 3.42487 18.6646 3.09813 17.3863 2.92632C16.0864 2.75159 14.3782 2.75 12 2.75C9.6218 2.75 7.91384 2.75159 6.61391 2.92632ZM11.9426 1.25H12.0574C14.3657 1.24999 16.1748 1.24998 17.5862 1.43968C19.0308 1.63386 20.1707 2.03906 21.0653 2.93367C21.9602 3.82911 22.3659 4.96922 22.5602 6.41402C22.75 7.82546 22.75 9.63424 22.75 11.9426V12.0574C22.75 14.3658 22.75 16.1748 22.5602 17.5862C22.3659 19.0307 21.9605 20.1706 21.0655 21.0651C20.1714 21.9604 19.0313 22.3659 17.5866 22.5602C16.175 22.75 14.3658 22.75 12.0574 22.75H11.9426C9.63424 22.75 7.82521 22.75 6.41366 22.5602C4.9689 22.3659 3.82886 21.9604 2.93385 21.0655C2.03916 20.1713 1.63383 19.0311 1.43968 17.5865C1.24998 16.175 1.24999 14.3657 1.25 12.0574V11.9426C1.24999 9.63425 1.24998 7.82525 1.43968 6.41372C1.63386 4.96897 2.03905 3.82891 2.93349 2.93385C3.82895 2.03961 4.96938 1.63387 6.41409 1.43968C7.8255 1.24998 9.63426 1.24999 11.9426 1.25ZM2.93385 21.0655C2.93379 21.0655 2.93391 21.0656 2.93385 21.0655Z" fill="#141414"/>
<path fill-rule="evenodd" clip-rule="evenodd" d="M6.25 9C6.25 8.58579 6.58579 8.25 7 8.25H7.5C7.91421 8.25 8.25 8.58579 8.25 9C8.25 9.41421 7.91421 9.75 7.5 9.75H7C6.58579 9.75 6.25 9.41421 6.25 9ZM9.75 9C9.75 8.58579 10.0858 8.25 10.5 8.25H17C17.4142 8.25 17.75 8.58579 17.75 9C17.75 9.41421 17.4142 9.75 17 9.75H10.5C10.0858 9.75 9.75 9.41421 9.75 9ZM6.25 12.5C6.25 12.0858 6.58579 11.75 7 11.75H7.5C7.91421 11.75 8.25 12.0858 8.25 12.5C8.25 12.9142 7.91421 13.25 7.5 13.25H7C6.58579 13.25 6.25 12.9142 6.25 12.5ZM9.75 12.5C9.75 12.0858 10.0858 11.75 10.5 11.75H17C17.4142 11.75 17.75 12.0858 17.75 12.5C17.75 12.9142 17.4142 13.25 17 13.25H10.5C10.0858 13.25 9.75 12.9142 9.75 12.5ZM6.25 16C6.25 15.5858 6.58579 15.25 7 15.25H7.5C7.91421 15.25 8.25 15.5858 8.25 16C8.25 16.4142 7.91421 16.75 7.5 16.75H7C6.58579 16.75 6.25 16.4142 6.25 16ZM9.75 16C9.75 15.5858 10.0858 15.25 10.5 15.25H17C17.4142 15.25 17.75 15.5858 17.75 16C17.75 16.4142 17.4142 16.75 17 16.75H10.5C10.0858 16.75 9.75 16.4142 9.75 16Z" fill="#141414"/>
</svg>
