<svg width="16" height="16" viewBox="0 0 16 16" fill="none" xmlns="http://www.w3.org/2000/svg">
<path fill-rule="evenodd" clip-rule="evenodd" d="M7.99992 1.83334C4.59416 1.83334 1.83325 4.59425 1.83325 8.00001C1.83325 11.4058 4.59416 14.1667 7.99992 14.1667C11.4057 14.1667 14.1666 11.4058 14.1666 8.00001C14.1666 4.59425 11.4057 1.83334 7.99992 1.83334ZM0.833252 8.00001C0.833252 4.04197 4.04188 0.833344 7.99992 0.833344C11.958 0.833344 15.1666 4.04197 15.1666 8.00001C15.1666 11.9581 11.958 15.1667 7.99992 15.1667C4.04188 15.1667 0.833252 11.9581 0.833252 8.00001Z" fill="#141414"/>
<path fill-rule="evenodd" clip-rule="evenodd" d="M8 4.83334C8.27614 4.83334 8.5 5.0572 8.5 5.33334V7.7929L10.0202 9.31312C10.2155 9.50839 10.2155 9.82497 10.0202 10.0202C9.82496 10.2155 9.50838 10.2155 9.31311 10.0202L7.64645 8.35356C7.55268 8.2598 7.5 8.13262 7.5 8.00001V5.33334C7.5 5.0572 7.72386 4.83334 8 4.83334Z" fill="#141414"/>
</svg>
