<svg width="16" height="16" viewBox="0 0 16 16" fill="none" xmlns="http://www.w3.org/2000/svg">
<path fill-rule="evenodd" clip-rule="evenodd" d="M10.4452 4.66667C10.4452 4.39053 10.669 4.16667 10.9452 4.16667H14.6666C14.9427 4.16667 15.1666 4.39053 15.1666 4.66667V8.36389C15.1666 8.64003 14.9427 8.86389 14.6666 8.86389C14.3904 8.86389 14.1666 8.64003 14.1666 8.36389V5.86857L10.076 9.9342C9.76339 10.245 9.49392 10.5128 9.2492 10.6985C8.98687 10.8975 8.6954 11.048 8.3366 11.048C7.97779 11.0479 7.68636 10.8973 7.42408 10.6983C7.1794 10.5126 6.90999 10.2446 6.59742 9.93379L6.4146 9.75201C6.07183 9.41117 5.8496 9.19168 5.66455 9.05124C5.49107 8.91958 5.40996 8.90489 5.35625 8.90491C5.30254 8.90493 5.22144 8.91968 5.04805 9.05147C4.86311 9.19204 4.64103 9.41169 4.29851 9.75278L1.68606 12.3543C1.49039 12.5491 1.17381 12.5485 0.978958 12.3528C0.784106 12.1571 0.784769 11.8406 0.98044 11.6457L3.61614 9.02103C3.92876 8.70969 4.1982 8.44134 4.44293 8.25533C4.70527 8.05594 4.99682 7.90504 5.35588 7.90491C5.71494 7.90478 6.00661 8.05547 6.26909 8.25466C6.51396 8.4405 6.78359 8.70865 7.09644 9.01976L7.27927 9.20157C7.62175 9.54211 7.84377 9.76139 8.02865 9.90172C8.20197 10.0333 8.28302 10.048 8.33671 10.048C8.3904 10.048 8.47146 10.0333 8.64481 9.90179C8.82972 9.76151 9.05179 9.54228 9.39435 9.20181L13.4542 5.16667H10.9452C10.669 5.16667 10.4452 4.94281 10.4452 4.66667Z" fill="#141414"/>
</svg>
