<svg width="24" height="24" viewBox="0 0 24 24" fill="none" xmlns="http://www.w3.org/2000/svg">
<path fill-rule="evenodd" clip-rule="evenodd" d="M6.71097 2.88981C5.7049 3.02512 5.12544 3.27886 4.70256 3.7021C4.27932 4.12498 4.02512 4.7049 3.88981 5.71097C3.75159 6.73861 3.75 8.09329 3.75 10V14C3.75 15.9067 3.75159 17.2614 3.88981 18.289C4.02512 19.2951 4.27886 19.8746 4.7021 20.2974C5.12498 20.7207 5.7049 20.9749 6.71097 21.1102C7.73861 21.2484 9.09329 21.25 11 21.25H13C14.9067 21.25 16.2614 21.2484 17.289 21.1102C18.2951 20.9749 18.8746 20.7211 19.2974 20.2979C19.7207 19.875 19.9749 19.2951 20.1102 18.289C20.2484 17.2614 20.25 15.9067 20.25 14V10C20.25 8.09329 20.2484 6.73861 20.1102 5.71097C19.9749 4.7049 19.7211 4.12544 19.2979 3.70256C18.875 3.27932 18.2951 3.02512 17.289 2.88981C16.2614 2.75159 14.9067 2.75 13 2.75H11C9.09329 2.75 7.73861 2.75159 6.71097 2.88981ZM10.9436 1.25H13.0564C14.8941 1.24998 16.3497 1.24997 17.489 1.40319C18.6612 1.56085 19.6101 1.893 20.3581 2.64144C21.1069 3.38957 21.4391 4.3386 21.5968 5.51103C21.75 6.65025 21.75 8.10593 21.75 9.94355V14.0565C21.75 15.8941 21.75 17.3497 21.5968 18.489C21.4391 19.6613 21.1069 20.6102 20.3583 21.3583C19.6102 22.1069 18.6613 22.4391 17.489 22.5968C16.3498 22.75 14.8941 22.75 13.0565 22.75H10.9435C9.10593 22.75 7.65025 22.75 6.51103 22.5968C5.3386 22.4391 4.38957 22.1069 3.64144 21.3581C2.893 20.6101 2.56085 19.6612 2.40319 18.489C2.24997 17.3497 2.24998 15.8941 2.25 14.0564V9.94357C2.24998 8.10594 2.24997 6.65025 2.40319 5.51103C2.56086 4.33872 2.89307 3.38976 3.64167 2.64167C4.38976 1.89307 5.33872 1.56086 6.51103 1.40319C7.65025 1.24997 9.10594 1.24998 10.9436 1.25Z" fill="#141414"/>
<path fill-rule="evenodd" clip-rule="evenodd" d="M7.25 8C7.25 7.58579 7.58579 7.25 8 7.25H16C16.4142 7.25 16.75 7.58579 16.75 8C16.75 8.41421 16.4142 8.75 16 8.75H8C7.58579 8.75 7.25 8.41421 7.25 8ZM7.25 12C7.25 11.5858 7.58579 11.25 8 11.25H16C16.4142 11.25 16.75 11.5858 16.75 12C16.75 12.4142 16.4142 12.75 16 12.75H8C7.58579 12.75 7.25 12.4142 7.25 12ZM7.25 16C7.25 15.5858 7.58579 15.25 8 15.25H13C13.4142 15.25 13.75 15.5858 13.75 16C13.75 16.4142 13.4142 16.75 13 16.75H8C7.58579 16.75 7.25 16.4142 7.25 16Z" fill="#141414"/>
</svg>
