<svg width="24" height="24" viewBox="0 0 24 24" fill="none" xmlns="http://www.w3.org/2000/svg">
<path fill-rule="evenodd" clip-rule="evenodd" d="M12 2.25C12.4142 2.25 12.75 2.58579 12.75 3V14.0682L15.4465 11.1189C15.726 10.8132 16.2004 10.792 16.5061 11.0715C16.8118 11.351 16.833 11.8254 16.5535 12.1311L12.5535 16.5061C12.4114 16.6615 12.2106 16.75 12 16.75C11.7894 16.75 11.5886 16.6615 11.4465 16.5061L7.44648 12.1311C7.16698 11.8254 7.18822 11.351 7.49392 11.0715C7.79963 10.792 8.27402 10.8132 8.55352 11.1189L11.25 14.0682V3C11.25 2.58579 11.5858 2.25 12 2.25ZM3 14.25C3.41421 14.25 3.75 14.5858 3.75 15C3.75 16.4352 3.75159 17.4364 3.85318 18.1918C3.95188 18.9257 4.13239 19.314 4.40903 19.5904C4.68536 19.867 5.07434 20.0481 5.80822 20.1468C6.56361 20.2484 7.5648 20.25 9 20.25H15C16.4352 20.25 17.4364 20.2484 18.1918 20.1468C18.9257 20.0481 19.314 19.8676 19.5904 19.591C19.867 19.3146 20.0481 18.9257 20.1468 18.1918C20.2484 17.4364 20.25 16.4352 20.25 15C20.25 14.5858 20.5858 14.25 21 14.25C21.4142 14.25 21.75 14.5858 21.75 15V15.0549C21.75 16.4223 21.75 17.5247 21.6334 18.3917C21.5124 19.2917 21.2535 20.0497 20.6513 20.6513C20.0497 21.2535 19.2917 21.5124 18.3917 21.6334C17.5247 21.75 16.4223 21.75 15.0549 21.75H8.9451C7.57773 21.75 6.47532 21.75 5.60829 21.6334C4.70847 21.5124 3.95055 21.2536 3.34897 20.6516C2.74661 20.05 2.48762 19.2918 2.36657 18.3917C2.24996 17.5247 2.24998 16.4223 2.25 15.0549L2.25 15C2.25 14.5858 2.58579 14.25 3 14.25Z" fill="#141414"/>
</svg>
