<?xml version="1.0" encoding="utf-8"?>
<!-- Generator: Adobe Illustrator 24.0.1, SVG Export Plug-In . SVG Version: 6.00 Build 0)  -->
<svg version="1.1" id="Layer_1" xmlns="http://www.w3.org/2000/svg" xmlns:xlink="http://www.w3.org/1999/xlink" x="0px" y="0px"
	 viewBox="0 0 24 24" style="enable-background:new 0 0 24 24;" xml:space="preserve">
<style type="text/css">
	.st0{fill:#141414;}
</style>
<path class="st0" d="M12,20.8c-4.5,0-7.6-2.7-9.3-5c-0.9-1.1-1.4-1.9-1.4-3.8c0-1.9,0.5-2.6,1.4-3.8c1.8-2.3,4.8-5,9.3-5
	c4.5,0,7.6,2.7,9.3,5c0.9,1.2,1.4,1.9,1.4,3.8c0,1.9-0.5,2.6-1.4,3.8C19.6,18,16.5,20.8,12,20.8z M12,4.8c-3.9,0-6.6,2.4-8.1,4.4
	c-0.8,1.1-1.1,1.5-1.1,2.8c0,1.4,0.3,1.8,1.1,2.8l0,0c1.5,2,4.2,4.4,8.1,4.4c3.9,0,6.6-2.4,8.1-4.4c0.8-1.1,1.1-1.5,1.1-2.8
	c0-1.4-0.3-1.8-1.1-2.8C18.6,7.1,15.9,4.8,12,4.8z M12,15.8c-1,0-1.9-0.4-2.7-1.1S8.3,13,8.3,12s0.4-1.9,1.1-2.7
	c1.4-1.4,3.9-1.4,5.3,0c0.7,0.7,1.1,1.6,1.1,2.7c0,1-0.4,1.9-1.1,2.7S13,15.8,12,15.8z M12,9.8c-0.6,0-1.2,0.2-1.6,0.7
	c-0.4,0.4-0.7,1-0.7,1.6s0.2,1.2,0.7,1.6c0.8,0.8,2.3,0.8,3.2,0c0.4-0.4,0.7-1,0.7-1.6s-0.2-1.2-0.7-1.6C13.2,10,12.6,9.8,12,9.8z"
	/>
</svg>
