<svg width="24" height="24" viewBox="0 0 24 24" fill="none" xmlns="http://www.w3.org/2000/svg">
<path fill-rule="evenodd" clip-rule="evenodd" d="M20.0559 2.2683C21.5847 2.21504 22.75 3.46998 22.75 4.93329V16.1437C22.75 17.6799 21.5062 18.8792 20.032 18.9715C19.0732 19.0314 17.9943 19.1467 17.1914 19.3586C16.1988 19.6206 14.9714 20.2029 13.9804 20.7312C12.7471 21.3886 11.2529 21.3886 10.0196 20.7312C9.0286 20.2029 7.8012 19.6206 6.80864 19.3586C6.00566 19.1467 4.9268 19.0314 3.96804 18.9715C2.49378 18.8792 1.25 17.6799 1.25 16.1437V4.9979C1.25 3.49874 2.47017 2.23063 4.02841 2.3264C5.01517 2.38704 6.23055 2.50882 7.19136 2.76236C8.32766 3.06221 9.63736 3.68615 10.6328 4.21254C11.4617 4.6508 12.4801 4.62718 13.2982 4.15372L13.6738 4.80285L13.2982 4.15372C14.1706 3.64878 15.2899 3.06693 16.2849 2.76905C17.4296 2.42637 18.9175 2.30795 20.0559 2.2683ZM21.25 4.93329C21.25 4.2517 20.7229 3.74597 20.1081 3.76739C18.9892 3.80636 17.6643 3.92188 16.7151 4.20603C15.8949 4.45158 14.9 4.95978 14.0495 5.45198C12.791 6.18034 11.2239 6.22187 9.93167 5.53857C8.95486 5.02206 7.77076 4.4666 6.80864 4.21272C5.99643 3.99839 4.90238 3.88294 3.93639 3.82357C3.30243 3.78461 2.75 4.30071 2.75 4.9979V16.1437C2.75 16.8294 3.31831 17.4279 4.06168 17.4744C5.04176 17.5357 6.24092 17.6575 7.19136 17.9083C8.3617 18.2171 9.71727 18.8702 10.7252 19.4075C11.5175 19.8298 12.4825 19.8298 13.2748 19.4075C14.2827 18.8702 15.6383 18.2171 16.8086 17.9083C17.7591 17.6575 18.9582 17.5357 19.9383 17.4744C20.6817 17.4279 21.25 16.8294 21.25 16.1437V4.93329Z" fill="#141414"/>
<path fill-rule="evenodd" clip-rule="evenodd" d="M12 5.104C12.4142 5.104 12.75 5.43979 12.75 5.854V20.9999C12.75 21.4141 12.4142 21.7499 12 21.7499C11.5858 21.7499 11.25 21.4141 11.25 20.9999V5.854C11.25 5.43979 11.5858 5.104 12 5.104Z" fill="#141414"/>
<path fill-rule="evenodd" clip-rule="evenodd" d="M4.27257 8.81809C4.37303 8.41625 4.78023 8.17193 5.18208 8.27239L9.18208 9.27239C9.58393 9.37285 9.82825 9.78005 9.72778 10.1819C9.62732 10.5837 9.22012 10.8281 8.81828 10.7276L4.81828 9.7276C4.41643 9.62714 4.17211 9.21994 4.27257 8.81809Z" fill="#141414"/>
<path fill-rule="evenodd" clip-rule="evenodd" d="M19.7274 8.81809C19.627 8.41625 19.2198 8.17193 18.8179 8.27239L14.8179 9.27239C14.4161 9.37285 14.1718 9.78005 14.2722 10.1819C14.3727 10.5837 14.7799 10.8281 15.1817 10.7276L19.1817 9.7276C19.5836 9.62714 19.8279 9.21994 19.7274 8.81809Z" fill="#141414"/>
<path fill-rule="evenodd" clip-rule="evenodd" d="M4.27257 12.8181C4.37303 12.4162 4.78023 12.1719 5.18208 12.2724L9.18208 13.2724C9.58393 13.3728 9.82825 13.78 9.72778 14.1819C9.62732 14.5837 9.22012 14.8281 8.81828 14.7276L4.81828 13.7276C4.41643 13.6271 4.17211 13.2199 4.27257 12.8181Z" fill="#141414"/>
<path fill-rule="evenodd" clip-rule="evenodd" d="M19.7274 12.8181C19.627 12.4162 19.2198 12.1719 18.8179 12.2724L14.8179 13.2724C14.4161 13.3728 14.1718 13.78 14.2722 14.1819C14.3727 14.5837 14.7799 14.8281 15.1817 14.7276L19.1817 13.7276C19.5836 13.6271 19.8279 13.2199 19.7274 12.8181Z" fill="#141414"/>
</svg>
