<svg width="24" height="24" viewBox="0 0 24 24" fill="none" xmlns="http://www.w3.org/2000/svg">
<path fill-rule="evenodd" clip-rule="evenodd" d="M12 6.75C10.7574 6.75 9.75 7.75736 9.75 9C9.75 10.2426 10.7574 11.25 12 11.25C13.2426 11.25 14.25 10.2426 14.25 9C14.25 7.75736 13.2426 6.75 12 6.75ZM8.25 9C8.25 6.92893 9.92893 5.25 12 5.25C14.0711 5.25 15.75 6.92893 15.75 9C15.75 11.0711 14.0711 12.75 12 12.75C9.92893 12.75 8.25 11.0711 8.25 9Z" fill="#141414"/>
<path fill-rule="evenodd" clip-rule="evenodd" d="M12 2.75C6.89137 2.75 2.75 6.89137 2.75 12C2.75 17.1086 6.89137 21.25 12 21.25C17.1086 21.25 21.25 17.1086 21.25 12C21.25 6.89137 17.1086 2.75 12 2.75ZM1.25 12C1.25 6.06294 6.06294 1.25 12 1.25C17.9371 1.25 22.75 6.06294 22.75 12C22.75 17.9371 17.9371 22.75 12 22.75C6.06294 22.75 1.25 17.9371 1.25 12Z" fill="#141414"/>
<path fill-rule="evenodd" clip-rule="evenodd" d="M6.68832 15.8949C7.75255 14.7914 9.45418 14.25 12 14.25C14.5459 14.25 16.2475 14.7914 17.3118 15.8949C18.3669 16.989 18.637 18.4784 18.7189 19.9586C18.7418 20.3722 18.4251 20.726 18.0115 20.7489C17.5979 20.7717 17.2441 20.455 17.2212 20.0414C17.1431 18.6296 16.8907 17.619 16.2321 16.9361C15.5826 16.2626 14.3792 15.75 12 15.75C9.62092 15.75 8.41755 16.2626 7.76803 16.9361C7.10943 17.619 6.85702 18.6296 6.7789 20.0414C6.75602 20.455 6.4022 20.7717 5.98862 20.7489C5.57504 20.726 5.25831 20.3722 5.28119 19.9586C5.36308 18.4784 5.63317 16.989 6.68832 15.8949Z" fill="#141414"/>
</svg>
