<svg width="20" height="20" viewBox="0 0 20 20" fill="none" xmlns="http://www.w3.org/2000/svg">
<path fill-rule="evenodd" clip-rule="evenodd" d="M9.58341 2.29166C8.62586 2.29166 7.67768 2.48026 6.79301 2.8467C5.90835 3.21314 5.10452 3.75024 4.42743 4.42734C3.75033 5.10443 3.21323 5.90826 2.84679 6.79292C2.48035 7.67759 2.29175 8.62577 2.29175 9.58332C2.29175 10.5409 2.48035 11.4891 2.84679 12.3737C3.21323 13.2584 3.75033 14.0622 4.42743 14.7393C5.10452 15.4164 5.90835 15.9535 6.79301 16.3199C7.67768 16.6864 8.62586 16.875 9.58341 16.875C11.5173 16.875 13.3719 16.1068 14.7394 14.7393C16.1069 13.3719 16.8751 11.5172 16.8751 9.58332C16.8751 7.64945 16.1069 5.79479 14.7394 4.42734C13.3719 3.05988 11.5173 2.29166 9.58341 2.29166ZM1.04175 9.58332C1.04175 4.86666 4.86675 1.04166 9.58341 1.04166C14.3001 1.04166 18.1251 4.86666 18.1251 9.58332C18.1251 11.7167 17.3426 13.6683 16.0492 15.165L18.7751 17.8917C18.8365 17.9489 18.8857 18.0179 18.9199 18.0945C18.9541 18.1712 18.9724 18.254 18.9739 18.3379C18.9754 18.4218 18.9599 18.5052 18.9285 18.583C18.8971 18.6608 18.8503 18.7315 18.7909 18.7909C18.7316 18.8502 18.6609 18.897 18.5831 18.9284C18.5053 18.9599 18.4219 18.9753 18.338 18.9738C18.2541 18.9723 18.1713 18.954 18.0946 18.9198C18.018 18.8856 17.949 18.8364 17.8917 18.775L15.1651 16.0492C13.6153 17.3909 11.6333 18.128 9.58341 18.125C4.86675 18.125 1.04175 14.3 1.04175 9.58332Z" fill="#141414"/>
</svg>
