<?xml version="1.0" encoding="utf-8"?>
<!-- Generator: Adobe Illustrator 24.0.1, SVG Export Plug-In . SVG Version: 6.00 Build 0)  -->
<svg version="1.1" id="Layer_1" xmlns="http://www.w3.org/2000/svg" xmlns:xlink="http://www.w3.org/1999/xlink" x="0px" y="0px"
	 viewBox="0 0 24 24" style="enable-background:new 0 0 24 24;" xml:space="preserve">
<path d="M14.6,22.7c-0.6,0-1.2-0.2-1.7-0.5c-1.1-0.7-1.7-2.4-3-6.4c-0.2-0.5-0.3-0.8-0.4-0.9c-0.1-0.2-0.2-0.3-0.4-0.4
	c-0.2-0.1-0.4-0.2-0.9-0.4c-3.9-1.3-5.7-1.9-6.4-3C1.4,10.6,1.3,10,1.3,9.4c0-0.6,0.2-1.2,0.5-1.7c0.7-1.1,2.4-1.7,6.4-3l5.1-1.7
	c4.8-1.6,7.2-2.4,8.7-0.9c1.5,1.5,0.7,3.9-0.9,8.7l-1.7,5.1l-0.7-0.2l0.7,0.2c-1.3,3.9-1.9,5.7-3,6.4C15.8,22.6,15.2,22.7,14.6,22.7
	z M19.8,2.7c-1.2,0-3.2,0.7-6,1.6L8.6,6.1C5.5,7.1,3.4,7.8,3,8.4c-0.2,0.3-0.3,0.6-0.3,1s0.1,0.7,0.3,1c0.4,0.6,2.4,1.3,5.5,2.4
	c0.6,0.2,1,0.3,1.3,0.5c0.3,0.2,0.6,0.5,0.8,0.8c0.2,0.3,0.3,0.7,0.5,1.3c1,3.1,1.7,5.2,2.4,5.5c0.6,0.3,1.4,0.3,2,0
	c0.6-0.4,1.3-2.5,2.4-5.6l0.7,0.2l-0.7-0.2l1.7-5.1C21,6.2,21.7,4,20.9,3.1C20.6,2.9,20.3,2.7,19.8,2.7z M14.1,10.9l4.2-4.2
	c0.3-0.3,0.3-0.8,0-1.1c-0.3-0.3-0.8-0.3-1.1,0l-4.2,4.2c-0.3,0.3-0.3,0.8,0,1.1c0.1,0.1,0.3,0.2,0.5,0.2
	C13.8,11.1,14,11.1,14.1,10.9z"/>
</svg>
