<svg width="24" height="24" viewBox="0 0 24 24" fill="none" xmlns="http://www.w3.org/2000/svg">
<path fill-rule="evenodd" clip-rule="evenodd" d="M2.75 6C2.75 5.58579 3.08579 5.25 3.5 5.25H20.5C20.9142 5.25 21.25 5.58579 21.25 6C21.25 6.41421 20.9142 6.75 20.5 6.75H3.5C3.08579 6.75 2.75 6.41421 2.75 6ZM5.11711 7.75166C5.53041 7.72411 5.88779 8.03681 5.91534 8.45011L6.37534 15.3501C6.46468 16.6974 6.52863 17.6351 6.66916 18.3403C6.80548 19.0243 6.99587 19.3865 7.2693 19.6422C7.54269 19.8982 7.91724 20.0645 8.60923 20.1551C9.32264 20.2485 10.2625 20.25 11.613 20.25H12.387C13.7375 20.25 14.6774 20.2485 15.3908 20.1551C16.0828 20.0645 16.457 19.8986 16.7304 19.6426C17.0037 19.3869 17.1942 19.0246 17.3304 18.3404C17.4709 17.635 17.5348 16.6976 17.6247 15.3501L18.0847 8.45011C18.1122 8.03681 18.4696 7.72411 18.8829 7.75166C19.2962 7.77921 19.6089 8.13659 19.5813 8.54989L19.1213 15.4499L19.1175 15.5068C19.0322 16.787 18.9632 17.8215 18.8016 18.6333C18.6333 19.4783 18.3471 20.1841 17.7556 20.7374C17.164 21.2914 16.4402 21.5305 15.5855 21.6424C14.7634 21.75 13.7249 21.75 12.4398 21.75H11.5602C10.2751 21.75 9.23664 21.75 8.41452 21.6424C7.55976 21.5305 6.83597 21.2914 6.24436 20.7374C5.65302 20.1842 5.36649 19.4785 5.19809 18.6335C5.03572 17.8187 4.96686 16.7801 4.88157 15.4937L4.41866 8.54989C4.39111 8.13659 4.70381 7.77921 5.11711 7.75166ZM9.42537 10.2537C9.83753 10.2125 10.2051 10.5132 10.2463 10.9254L10.7463 15.9254C10.7875 16.3375 10.4868 16.7051 10.0746 16.7463C9.66247 16.7875 9.29494 16.4868 9.25372 16.0746L8.75372 11.0746C8.71251 10.6625 9.01321 10.2949 9.42537 10.2537ZM14.5746 10.2537C14.9868 10.2949 15.2875 10.6625 15.2463 11.0746L14.7463 16.0746C14.7051 16.4868 14.3375 16.7875 13.9254 16.7463C13.5132 16.7051 13.2125 16.3375 13.2537 15.9254L13.7537 10.9254C13.7949 10.5132 14.1625 10.2125 14.5746 10.2537Z" fill="#3D3D3D"/>
<path fill-rule="evenodd" clip-rule="evenodd" d="M10.355 3.75004C10.0662 3.75004 10.008 3.7524 9.96522 3.75934L9.96308 3.75969C9.84749 3.77812 9.73781 3.82335 9.64282 3.89177C9.54804 3.96004 9.47051 4.04951 9.41642 4.15304C9.39488 4.1947 9.37226 4.25396 9.28251 4.52321L9.1862 4.81214L9.18551 4.81421L9.14894 4.92501L9.14541 4.9348C8.95738 5.45543 8.61662 5.9072 8.16768 6.23103C7.71874 6.55485 7.18252 6.73566 6.62916 6.7498L6.61958 6.75004H6.5V5.25004H6.5993C6.84783 5.24201 7.08839 5.16002 7.29017 5.01448C7.49175 4.86908 7.64535 4.66693 7.73144 4.43391L7.76248 4.33987L7.85949 4.04887C7.86291 4.0386 7.86631 4.0284 7.86968 4.01829C7.94094 3.80431 8.0009 3.62423 8.08528 3.46162L8.08592 3.46039C8.24823 3.14898 8.48118 2.87988 8.76613 2.67463C9.05079 2.4696 9.37945 2.33396 9.72585 2.27857C9.90406 2.24975 10.0932 2.24988 10.3086 2.25002C10.3239 2.25003 10.3394 2.25004 10.355 2.25004H13.645C13.6606 2.25004 13.6761 2.25003 13.6914 2.25002C13.9068 2.24988 14.0959 2.24975 14.2741 2.27856C14.2745 2.27862 14.2749 2.27868 14.2752 2.27874L14.155 3.01904L14.2731 2.2784C14.2734 2.27845 14.2738 2.27851 14.2741 2.27856C14.6205 2.33396 14.9492 2.46959 15.2339 2.67463C15.5188 2.87988 15.7518 3.14898 15.9141 3.46039L15.9147 3.46162C15.9991 3.62424 16.0591 3.80431 16.1303 4.0183C16.1337 4.02841 16.1371 4.0386 16.1405 4.04887L16.241 4.35038L16.2442 4.36099C16.3234 4.62429 16.4872 4.85412 16.7103 5.0149C16.9333 5.17569 17.2031 5.25845 17.478 5.25036L17.522 6.74972C16.9174 6.76749 16.3238 6.58542 15.8331 6.2317C15.3456 5.88031 14.9868 5.379 14.8113 4.80454L14.8145 4.81421L15.526 4.57704L14.8078 4.79309C14.8089 4.79691 14.8101 4.80073 14.8113 4.80454L14.7175 4.52321C14.6277 4.25386 14.6051 4.19466 14.5836 4.153C14.5295 4.04948 14.452 3.96003 14.3572 3.89177C14.2622 3.82335 14.1525 3.77812 14.0369 3.75969L14.0348 3.75934C13.992 3.7524 13.9338 3.75004 13.645 3.75004H10.355Z" fill="#3D3D3D"/>
</svg>
