<?xml version="1.0" encoding="utf-8"?>
<!-- Generator: Adobe Illustrator 24.0.1, SVG Export Plug-In . SVG Version: 6.00 Build 0)  -->
<svg version="1.1" id="Layer_1" xmlns="http://www.w3.org/2000/svg" xmlns:xlink="http://www.w3.org/1999/xlink" x="0px" y="0px"
	 viewBox="0 0 24 24" style="enable-background:new 0 0 24 24;" xml:space="preserve">
<style type="text/css">
	.st0{fill:#141414;}
</style>
<path class="st0" d="M21.2,13.4l-1.1-1.7c-0.4-0.6-0.6-1.3-0.6-2V9c0-4.3-3.4-7.8-7.5-7.8S4.5,4.7,4.5,9v0.7c0,0.7-0.2,1.4-0.6,2
	l-1.1,1.7c-0.6,1-0.7,2.2-0.3,3.2c0.4,1,1.2,1.8,2.3,2.1c0.7,0.2,1.3,0.3,2,0.5c0,0,0,0,0,0c0.8,2.1,2.9,3.5,5.2,3.5
	c2.3,0,4.4-1.4,5.2-3.5c0,0,0,0,0,0c0.7-0.1,1.4-0.3,2-0.5c1.1-0.3,1.9-1.1,2.3-2.1C21.9,15.6,21.8,14.4,21.2,13.4z M12,21.3
	c-1.4,0-2.6-0.7-3.4-1.7c1.1,0.1,2.2,0.2,3.4,0.2c1.1,0,2.2-0.1,3.4-0.2C14.6,20.6,13.4,21.3,12,21.3z M20.1,16.1
	c-0.2,0.6-0.7,1-1.3,1.2c-4.5,1.3-9.2,1.3-13.7,0c-0.6-0.2-1.1-0.6-1.3-1.2c-0.2-0.6-0.2-1.3,0.2-1.9l1.1-1.7C5.7,11.7,6,10.7,6,9.7
	V9c0-3.4,2.7-6.3,6-6.3s6,2.8,6,6.3v0.7l0.7,0l-0.8,0c0,1,0.3,1.9,0.8,2.8l1.1,1.7C20.3,14.8,20.4,15.5,20.1,16.1z"/>
</svg>
