<?xml version="1.0" encoding="utf-8"?>
<!-- Generator: Adobe Illustrator 24.0.1, SVG Export Plug-In . SVG Version: 6.00 Build 0)  -->
<svg version="1.1" id="Layer_1" xmlns="http://www.w3.org/2000/svg" xmlns:xlink="http://www.w3.org/1999/xlink" x="0px" y="0px"
	 viewBox="0 0 24 24" style="enable-background:new 0 0 24 24;" xml:space="preserve">
<style type="text/css">
	.st0{fill:#141414;}
</style>
<path class="st0" d="M5.2,22.8c-0.1,0-0.2,0-0.3,0c-0.6-0.1-1.2-0.3-1.7-0.8c-1-0.9-1-2.5-1-5.9v-5c0-4.5,0-6.7,1.5-8.3
	C5.3,1.3,7.6,1.3,12,1.3c4.4,0,6.7,0,8.2,1.6c1.5,1.6,1.5,3.8,1.5,8.3v5c0,3.4,0,5-1,5.9c-0.5,0.4-1.1,0.7-1.7,0.8
	c-1.3,0.1-2.5-0.9-5-3.1c-0.9-0.8-1.4-1.2-1.8-1.3c-0.2,0-0.4,0-0.6,0c-0.4,0.1-0.9,0.5-1.8,1.3C7.6,21.7,6.4,22.8,5.2,22.8z
	 M12,2.8c-4,0-6.1,0-7.1,1.1C3.8,5,3.8,7,3.8,11.1v5c0,2.6,0,4.3,0.5,4.8c0.2,0.2,0.5,0.4,0.8,0.4c0.7,0.1,1.9-1.1,3.9-2.8
	c1.1-1,1.7-1.5,2.5-1.6c0.4-0.1,0.8-0.1,1.2,0c0.8,0.2,1.4,0.7,2.5,1.6c1.9,1.7,3.2,2.8,3.9,2.8c0.3,0,0.6-0.2,0.8-0.4
	c0.5-0.5,0.5-2.2,0.5-4.8v-5c0-4.1,0-6.1-1.1-7.2C18.1,2.8,16,2.8,12,2.8z M15.8,6c0-0.4-0.3-0.8-0.8-0.8H9C8.6,5.3,8.3,5.6,8.3,6
	S8.6,6.8,9,6.8h6C15.4,6.8,15.8,6.4,15.8,6z"/>
</svg>
