<svg width="24" height="24" viewBox="0 0 24 24" fill="none" xmlns="http://www.w3.org/2000/svg">
<path fill-rule="evenodd" clip-rule="evenodd" d="M5.71097 4.88981C4.7049 5.02512 4.12544 5.27886 3.70256 5.7021C3.27932 6.12498 3.02512 6.7049 2.88981 7.71097C2.75159 8.73861 2.75 10.0933 2.75 12V14C2.75 15.9067 2.75159 17.2614 2.88981 18.289C3.02512 19.2951 3.27886 19.8746 3.7021 20.2974C4.12498 20.7207 4.7049 20.9749 5.71097 21.1102C6.73861 21.2484 8.09329 21.25 10 21.25H14C15.9067 21.25 17.2614 21.2484 18.289 21.1102C19.2951 20.9749 19.8746 20.7211 20.2974 20.2979C20.7207 19.875 20.9749 19.2951 21.1102 18.289C21.2484 17.2614 21.25 15.9067 21.25 14V12C21.25 10.0933 21.2484 8.73861 21.1102 7.71097C20.9749 6.7049 20.7211 6.12544 20.2979 5.70256C19.875 5.27932 19.2951 5.02512 18.289 4.88981C17.2614 4.75159 15.9067 4.75 14 4.75H10C8.09329 4.75 6.73861 4.75159 5.71097 4.88981ZM9.94357 3.25H14.0564C15.8941 3.24998 17.3497 3.24997 18.489 3.40319C19.6612 3.56085 20.6101 3.893 21.3581 4.64144C22.1069 5.38957 22.4391 6.3386 22.5968 7.51103C22.75 8.65025 22.75 10.1059 22.75 11.9435V14.0565C22.75 15.8941 22.75 17.3498 22.5968 18.489C22.4391 19.6613 22.1069 20.6102 21.3583 21.3583C20.6102 22.1069 19.6613 22.4391 18.489 22.5968C17.3497 22.75 15.8941 22.75 14.0565 22.75H9.94355C8.10593 22.75 6.65025 22.75 5.51103 22.5968C4.3386 22.4391 3.38957 22.1069 2.64144 21.3581C1.893 20.6101 1.56085 19.6612 1.40319 18.489C1.24997 17.3497 1.24998 15.8941 1.25 14.0564V11.9436C1.24998 10.1059 1.24997 8.65025 1.40319 7.51103C1.56086 6.33872 1.89307 5.38976 2.64167 4.64167C3.38976 3.89307 4.33872 3.56086 5.51103 3.40319C6.65025 3.24997 8.10594 3.24998 9.94357 3.25Z" fill="#141414"/>
<path fill-rule="evenodd" clip-rule="evenodd" d="M7 1.75C7.41421 1.75 7.75 2.08579 7.75 2.5V4C7.75 4.41421 7.41421 4.75 7 4.75C6.58579 4.75 6.25 4.41421 6.25 4V2.5C6.25 2.08579 6.58579 1.75 7 1.75ZM17 1.75C17.4142 1.75 17.75 2.08579 17.75 2.5V4C17.75 4.41421 17.4142 4.75 17 4.75C16.5858 4.75 16.25 4.41421 16.25 4V2.5C16.25 2.08579 16.5858 1.75 17 1.75ZM1.75 9C1.75 8.58579 2.08579 8.25 2.5 8.25H21.5C21.9142 8.25 22.25 8.58579 22.25 9C22.25 9.41421 21.9142 9.75 21.5 9.75H2.5C2.08579 9.75 1.75 9.41421 1.75 9Z" fill="#141414"/>
<path d="M18 17C18 17.2652 17.8946 17.5196 17.7071 17.7071C17.5196 17.8946 17.2652 18 17 18C16.7348 18 16.4804 17.8946 16.2929 17.7071C16.1054 17.5196 16 17.2652 16 17C16 16.7348 16.1054 16.4804 16.2929 16.2929C16.4804 16.1054 16.7348 16 17 16C17.2652 16 17.5196 16.1054 17.7071 16.2929C17.8946 16.4804 18 16.7348 18 17ZM18 13C18 13.2652 17.8946 13.5196 17.7071 13.7071C17.5196 13.8946 17.2652 14 17 14C16.7348 14 16.4804 13.8946 16.2929 13.7071C16.1054 13.5196 16 13.2652 16 13C16 12.7348 16.1054 12.4804 16.2929 12.2929C16.4804 12.1054 16.7348 12 17 12C17.2652 12 17.5196 12.1054 17.7071 12.2929C17.8946 12.4804 18 12.7348 18 13ZM13 17C13 17.2652 12.8946 17.5196 12.7071 17.7071C12.5196 17.8946 12.2652 18 12 18C11.7348 18 11.4804 17.8946 11.2929 17.7071C11.1054 17.5196 11 17.2652 11 17C11 16.7348 11.1054 16.4804 11.2929 16.2929C11.4804 16.1054 11.7348 16 12 16C12.2652 16 12.5196 16.1054 12.7071 16.2929C12.8946 16.4804 13 16.7348 13 17ZM13 13C13 13.2652 12.8946 13.5196 12.7071 13.7071C12.5196 13.8946 12.2652 14 12 14C11.7348 14 11.4804 13.8946 11.2929 13.7071C11.1054 13.5196 11 13.2652 11 13C11 12.7348 11.1054 12.4804 11.2929 12.2929C11.4804 12.1054 11.7348 12 12 12C12.2652 12 12.5196 12.1054 12.7071 12.2929C12.8946 12.4804 13 12.7348 13 13ZM8 17C8 17.2652 7.89464 17.5196 7.70711 17.7071C7.51957 17.8946 7.26522 18 7 18C6.73478 18 6.48043 17.8946 6.29289 17.7071C6.10536 17.5196 6 17.2652 6 17C6 16.7348 6.10536 16.4804 6.29289 16.2929C6.48043 16.1054 6.73478 16 7 16C7.26522 16 7.51957 16.1054 7.70711 16.2929C7.89464 16.4804 8 16.7348 8 17ZM8 13C8 13.2652 7.89464 13.5196 7.70711 13.7071C7.51957 13.8946 7.26522 14 7 14C6.73478 14 6.48043 13.8946 6.29289 13.7071C6.10536 13.5196 6 13.2652 6 13C6 12.7348 6.10536 12.4804 6.29289 12.2929C6.48043 12.1054 6.73478 12 7 12C7.26522 12 7.51957 12.1054 7.70711 12.2929C7.89464 12.4804 8 12.7348 8 13Z" fill="#141414"/>
</svg>
