<svg width="24" height="24" viewBox="0 0 24 24" fill="none" xmlns="http://www.w3.org/2000/svg">
<path d="M12 5.50002L11.46 6.02002C11.53 6.0926 11.6138 6.15034 11.7066 6.18978C11.7994 6.22921 11.8992 6.24954 12 6.24954C12.1008 6.24954 12.2006 6.22921 12.2934 6.18978C12.3862 6.15034 12.47 6.0926 12.54 6.02002L12 5.50002ZM9.426 18.322C7.91 17.127 6.253 15.96 4.938 14.48C3.65 13.028 2.75 11.334 2.75 9.13702H1.25C1.25 11.803 2.36 13.837 3.817 15.476C5.247 17.086 7.071 18.376 8.497 19.5L9.427 18.322H9.426ZM2.75 9.13702C2.75 6.98702 3.965 5.18302 5.624 4.42402C7.236 3.68702 9.402 3.88202 11.46 6.02002L12.54 4.98102C10.1 2.44402 7.264 2.02502 5 3.06002C2.786 4.07302 1.25 6.42502 1.25 9.13702H2.75ZM8.497 19.5C9.01 19.904 9.56 20.334 10.117 20.66C10.674 20.985 11.31 21.25 12 21.25V19.75C11.69 19.75 11.326 19.63 10.874 19.365C10.421 19.101 9.952 18.737 9.426 18.322L8.497 19.5ZM15.503 19.5C16.929 18.375 18.753 17.087 20.183 15.476C21.64 13.836 22.75 11.803 22.75 9.13702H21.25C21.25 11.334 20.35 13.028 19.062 14.48C17.747 15.96 16.09 17.127 14.574 18.322L15.503 19.5ZM22.75 9.13702C22.75 6.42502 21.215 4.07302 19 3.06002C16.736 2.02502 13.902 2.44402 11.46 4.98002L12.54 6.02002C14.598 3.88302 16.764 3.68702 18.376 4.42402C20.035 5.18302 21.25 6.98602 21.25 9.13702H22.75ZM14.574 18.322C14.048 18.737 13.579 19.101 13.126 19.365C12.674 19.629 12.31 19.75 12 19.75V21.25C12.69 21.25 13.326 20.985 13.883 20.66C14.441 20.334 14.99 19.904 15.503 19.5L14.574 18.322Z" fill="#141414"/>
</svg>
