<svg width="24" height="24" viewBox="0 0 24 24" fill="none" xmlns="http://www.w3.org/2000/svg">
<path fill-rule="evenodd" clip-rule="evenodd" d="M22 12C22 17.5228 17.5228 22 12 22C6.47715 22 2 17.5228 2 12C2 6.47715 6.47715 2 12 2C17.5228 2 22 6.47715 22 12ZM12 17.75C12.4142 17.75 12.75 17.4142 12.75 17V11C12.75 10.5858 12.4142 10.25 12 10.25C11.5858 10.25 11.25 10.5858 11.25 11V17C11.25 17.4142 11.5858 17.75 12 17.75ZM12 7C12.5523 7 13 7.44772 13 8C13 8.55229 12.5523 9 12 9C11.4477 9 11 8.55229 11 8C11 7.44772 11.4477 7 12 7Z" fill="#141414"/>
<path fill-rule="evenodd" clip-rule="evenodd" d="M12 21.4C17.1915 21.4 21.4 17.1915 21.4 12C21.4 6.80852 17.1915 2.6 12 2.6C6.80852 2.6 2.6 6.80852 2.6 12C2.6 17.1915 6.80852 21.4 12 21.4ZM13.35 17C13.35 17.7456 12.7456 18.35 12 18.35C11.2544 18.35 10.65 17.7456 10.65 17V11C10.65 10.2544 11.2544 9.65 12 9.65C12.7456 9.65 13.35 10.2544 13.35 11V17ZM12 6.4C12.8837 6.4 13.6 7.11634 13.6 8C13.6 8.88366 12.8837 9.6 12 9.6C11.1163 9.6 10.4 8.88366 10.4 8C10.4 7.11634 11.1163 6.4 12 6.4ZM12 22C17.5228 22 22 17.5228 22 12C22 6.47715 17.5228 2 12 2C6.47715 2 2 6.47715 2 12C2 17.5228 6.47715 22 12 22ZM12.75 17C12.75 17.4142 12.4142 17.75 12 17.75C11.5858 17.75 11.25 17.4142 11.25 17V11C11.25 10.5858 11.5858 10.25 12 10.25C12.4142 10.25 12.75 10.5858 12.75 11V17ZM13 8C13 7.44772 12.5523 7 12 7C11.4477 7 11 7.44772 11 8C11 8.55229 11.4477 9 12 9C12.5523 9 13 8.55229 13 8Z" fill="#141414"/>
</svg>
