<?xml version="1.0" encoding="utf-8"?>
<!-- Generator: Adobe Illustrator 24.0.1, SVG Export Plug-In . SVG Version: 6.00 Build 0)  -->
<svg version="1.1" id="Layer_1" xmlns="http://www.w3.org/2000/svg" xmlns:xlink="http://www.w3.org/1999/xlink" x="0px" y="0px"
	 viewBox="0 0 24 24" style="enable-background:new 0 0 24 24;" xml:space="preserve">
<style type="text/css">
	.st0{fill:#141414;}
</style>
<path class="st0" d="M10,14.8c-0.2,0-0.4-0.1-0.5-0.2c-1.8-1.8-1.7-4.9,0.3-6.8l4.8-4.9c1-1,2.3-1.6,3.7-1.6c0,0,0,0,0,0
	c1.2,0,2.3,0.5,3.1,1.3c1.8,1.8,1.7,4.9-0.3,6.8l-2.4,2.4c-0.3,0.3-0.8,0.3-1.1,0c-0.3-0.3-0.3-0.8,0-1.1l2.4-2.4
	c1.4-1.4,1.5-3.5,0.3-4.7c-0.5-0.5-1.3-0.8-2.1-0.8c0,0,0,0,0,0c-0.9,0-1.9,0.4-2.6,1.1l-4.8,4.9c-1.4,1.4-1.5,3.5-0.3,4.7
	c0.3,0.3,0.3,0.8,0,1.1C10.4,14.7,10.2,14.8,10,14.8z M5.6,22.8c1.3,0,2.7-0.6,3.7-1.6l4.8-4.9c2-2,2.1-5,0.3-6.8
	c-0.3-0.3-0.8-0.3-1.1,0c-0.3,0.3-0.3,0.8,0,1.1c1.2,1.2,1.1,3.3-0.3,4.7l-4.8,4.9c-0.7,0.7-1.7,1.1-2.6,1.1c0,0,0,0,0,0
	c-0.8,0-1.5-0.3-2.1-0.8c-1.2-1.2-1.1-3.3,0.3-4.7l2.4-2.4c0.3-0.3,0.3-0.8,0-1.1c-0.3-0.3-0.8-0.3-1.1,0l-2.4,2.4
	c-2,2-2.1,5-0.3,6.8C3.3,22.3,4.4,22.8,5.6,22.8C5.6,22.8,5.6,22.8,5.6,22.8z"/>
</svg>
