<svg width="24" height="24" viewBox="0 0 24 24" fill="none" xmlns="http://www.w3.org/2000/svg">
<path fill-rule="evenodd" clip-rule="evenodd" d="M11.8086 2.85318C11.0749 2.95186 10.6863 3.13235 10.4093 3.40933C10.166 3.65261 9.99878 3.98064 9.8946 4.54746C9.78648 5.13565 9.75797 5.91076 9.75194 7.00414C9.74966 7.41835 9.41202 7.75227 8.99782 7.74999C8.58361 7.7477 8.24968 7.41007 8.25196 6.99586C8.25793 5.91424 8.28392 5.01285 8.41931 4.27629C8.55862 3.51836 8.82391 2.87339 9.34862 2.34867C9.95064 1.74665 10.7085 1.48764 11.6086 1.36657C12.4755 1.24996 13.5777 1.24998 14.9451 1.25H16.0549C17.4227 1.24998 18.5251 1.24996 19.3922 1.36657C20.2924 1.48764 21.0503 1.74664 21.6523 2.34867C22.254 2.95038 22.5126 3.70843 22.6335 4.6084C22.75 5.47538 22.75 6.57776 22.75 7.94519V16.0548C22.75 17.4222 22.75 18.5246 22.6335 19.3916C22.5126 20.2916 22.254 21.0496 21.6523 21.6513C21.0499 22.253 20.2921 22.5123 19.3918 22.6334C18.5249 22.75 17.4227 22.75 16.0549 22.75H14.9451C13.5777 22.75 12.4755 22.75 11.6086 22.6334C10.7085 22.5124 9.95064 22.2534 9.34862 21.6513C8.82391 21.1266 8.55862 20.4816 8.41931 19.7237C8.28392 18.9872 8.25793 18.0858 8.25196 17.0041C8.24968 16.5899 8.58361 16.2523 8.99782 16.25C9.41202 16.2477 9.74966 16.5817 9.75194 16.9959C9.75797 18.0892 9.78648 18.8644 9.8946 19.4525C9.99878 20.0194 10.166 20.3474 10.4093 20.5907C10.6863 20.8677 11.0749 21.0481 11.8086 21.1468C12.5638 21.2484 13.5647 21.25 15 21.25H16C17.4357 21.25 18.4366 21.2484 19.1918 21.1468C19.9253 21.0482 20.3143 20.8677 20.5919 20.5904C20.5919 20.5904 20.5919 20.5904 20.5919 20.5904M20.5919 20.5904C20.868 20.3141 21.0483 19.9257 21.1469 19.1919C21.2484 18.4364 21.25 17.4352 21.25 16V8C21.25 6.56482 21.2484 5.56356 21.1469 4.8081C21.0483 4.07407 20.8679 3.68562 20.5916 3.40933C20.3147 3.13236 19.926 2.95186 19.1922 2.85318C18.4368 2.75159 17.4357 2.75 16 2.75H15C13.5647 2.75 12.5638 2.7516 11.8086 2.85318" fill="#141414"/>
<path fill-rule="evenodd" clip-rule="evenodd" d="M6.06944 8.51192C6.33901 8.82641 6.30259 9.29989 5.98809 9.56946L4.02744 11.25H15C15.4142 11.25 15.75 11.5858 15.75 12C15.75 12.4142 15.4142 12.75 15 12.75H4.02744L5.98809 14.4306C6.30259 14.7001 6.33901 15.1736 6.06944 15.4881C5.79988 15.8026 5.3264 15.839 5.01191 15.5695L1.51191 12.5695C1.34567 12.427 1.25 12.219 1.25 12C1.25 11.7811 1.34567 11.5731 1.51191 11.4306L5.01191 8.43057C5.3264 8.161 5.79988 8.19743 6.06944 8.51192Z" fill="#141414"/>
</svg>
