<svg width="24" height="24" viewBox="0 0 24 24" fill="none" xmlns="http://www.w3.org/2000/svg">
<path fill-rule="evenodd" clip-rule="evenodd" d="M2 16.1436V4.9978C2 3.89963 2.8863 3.00752 3.9824 3.07489C4.95877 3.1349 6.11349 3.25351 7 3.48744C8.04921 3.76431 9.29611 4.35401 10.2823 4.87546C10.5894 5.03785 10.9159 5.15048 11.2502 5.21397V20.3926C10.9472 20.3258 10.6516 20.218 10.3724 20.0692C9.37293 19.5365 8.08145 18.9187 7 18.6334C6.12329 18.402 4.98428 18.2835 4.01486 18.2228C2.90605 18.1535 2 17.2546 2 16.1436ZM5.18208 8.27239C4.78023 8.17193 4.37303 8.41625 4.27257 8.8181C4.17211 9.21994 4.41643 9.62715 4.81828 9.72761L8.81828 10.7276C9.22012 10.8281 9.62732 10.5837 9.72779 10.1819C9.82825 9.78006 9.58393 9.37285 9.18208 9.27239L5.18208 8.27239ZM5.18208 12.2724C4.78023 12.1719 4.37303 12.4163 4.27257 12.8181C4.17211 13.2199 4.41643 13.6271 4.81828 13.7276L8.81828 14.7276C9.22012 14.8281 9.62732 14.5837 9.72779 14.1819C9.82825 13.7801 9.58393 13.3729 9.18208 13.2724L5.18208 12.2724Z" fill="#141414"/>
<path fill-rule="evenodd" clip-rule="evenodd" d="M12.7502 20.3925C13.0531 20.3257 13.3485 20.218 13.6276 20.0692C14.6271 19.5365 15.9185 18.9187 17 18.6334C17.8767 18.402 19.0157 18.2835 19.9851 18.2228C21.094 18.1535 22 17.2546 22 16.1436V4.93319C22 3.86075 21.1538 2.98041 20.082 3.01775C18.9534 3.05706 17.5469 3.17403 16.5 3.48744C15.5924 3.75916 14.5353 4.30418 13.6738 4.80275C13.3824 4.97142 13.0709 5.0953 12.7502 5.17387V20.3925ZM19.1821 9.72761C19.5839 9.62715 19.8282 9.21994 19.7278 8.8181C19.6273 8.41625 19.2201 8.17193 18.8183 8.27239L14.8183 9.27239C14.4164 9.37285 14.1721 9.78006 14.2726 10.1819C14.373 10.5837 14.7802 10.8281 15.1821 10.7276L19.1821 9.72761ZM19.1821 13.7276C19.5839 13.6271 19.8282 13.2199 19.7278 12.8181C19.6273 12.4163 19.2201 12.1719 18.8183 12.2724L14.8183 13.2724C14.4164 13.3729 14.1721 13.7801 14.2726 14.1819C14.373 14.5837 14.7802 14.8281 15.1821 14.7276L19.1821 13.7276Z" fill="#141414"/>
<path fill-rule="evenodd" clip-rule="evenodd" d="M20.0663 2.56833C21.4123 2.52145 22.45 3.62654 22.45 4.93351V16.1439C22.45 17.51 21.3413 18.5892 20.0132 18.6723C19.0502 18.7325 17.9473 18.8491 17.1148 19.0688C16.0867 19.3401 14.8337 19.9366 13.8393 20.4667C13.5234 20.635 13.1892 20.7568 12.8471 20.8323L12.3002 20.9529V4.8211L12.6431 4.7371C12.9231 4.66852 13.1946 4.56047 13.4484 4.41359C14.3165 3.9112 15.4109 3.34408 16.3709 3.05666C17.4765 2.72569 18.9319 2.60785 20.0663 2.56833ZM21.55 4.93351C21.55 4.09558 20.8952 3.44001 20.0976 3.46779C18.9749 3.5069 17.6173 3.623 16.629 3.91885C15.7739 4.17487 14.7541 4.6978 13.8992 5.19254C13.6753 5.32216 13.441 5.42828 13.2002 5.51076V19.7765C13.2732 19.7448 13.3452 19.7102 13.4159 19.6725C14.4205 19.137 15.7504 18.498 16.8852 18.1986C17.8061 17.9555 18.9812 17.835 19.957 17.774C20.8466 17.7184 21.55 16.9997 21.55 16.1439V4.93351ZM1.54999 4.99812C1.54999 3.65935 2.63661 2.54164 4.01 2.62605C4.9926 2.68644 6.18371 2.80695 7.1148 3.05265C8.21627 3.34331 9.50085 3.95355 10.4926 4.47796C10.7591 4.61889 11.043 4.71688 11.3341 4.77219L11.7002 4.84171V20.9529L11.1533 20.8324C10.811 20.7569 10.4767 20.6351 10.1607 20.4667C9.16632 19.9366 7.91329 19.3401 6.88517 19.0688C6.0527 18.8491 4.94978 18.7325 3.98676 18.6723C2.65868 18.5892 1.54999 17.51 1.54999 16.1439V4.99812ZM3.95479 3.52436C3.13597 3.47403 2.44999 4.14054 2.44999 4.99812V16.1439C2.44999 16.9997 3.15339 17.7184 4.04294 17.774C5.01876 17.835 6.19386 17.9555 7.1148 18.1986C8.24959 18.498 9.57952 19.137 10.5841 19.6725C10.6549 19.7102 10.727 19.745 10.8002 19.7767V5.56851C10.5504 5.4957 10.3062 5.39749 10.0719 5.27358C9.09135 4.75509 7.88213 4.18594 6.88517 3.92286C6.04324 3.70069 4.92492 3.58398 3.95479 3.52436ZM5.07293 8.70927C4.91219 8.66909 4.74931 8.76681 4.70912 8.92755C4.66894 9.08829 4.76667 9.25117 4.9274 9.29136L8.92741 10.2914C9.08814 10.3315 9.25102 10.2338 9.29121 10.0731C9.33139 9.91234 9.23366 9.74946 9.07293 9.70927L5.07293 8.70927ZM3.83599 8.70927C3.99673 8.06632 4.64825 7.6754 5.29121 7.83614L9.29121 8.83614C9.93416 8.99688 10.3251 9.6484 10.1643 10.2914C10.0036 10.9343 9.35208 11.3252 8.70912 11.1645L4.70912 10.1645C4.06617 10.0037 3.67526 9.35223 3.83599 8.70927ZM19.2912 8.92755C19.251 8.76682 19.0881 8.66909 18.9274 8.70927L14.9274 9.70927C14.7667 9.74946 14.6689 9.91234 14.7091 10.0731C14.7493 10.2338 14.9122 10.3315 15.0729 10.2914L19.0729 9.29136C19.2337 9.25117 19.3314 9.08829 19.2912 8.92755ZM18.7091 7.83614C19.3521 7.6754 20.0036 8.06632 20.1643 8.70927C20.3251 9.35223 19.9342 10.0037 19.2912 10.1645L15.2912 11.1645C14.6483 11.3252 13.9967 10.9343 13.836 10.2914C13.6753 9.6484 14.0662 8.99688 14.7091 8.83614L18.7091 7.83614ZM5.07293 12.7093C4.91219 12.6691 4.74931 12.7668 4.70912 12.9276C4.66894 13.0883 4.76667 13.2512 4.9274 13.2914L8.92741 14.2914C9.08814 14.3315 9.25102 14.2338 9.29121 14.0731C9.33139 13.9123 9.23366 13.7495 9.07293 13.7093L5.07293 12.7093ZM3.83599 12.7093C3.99673 12.0663 4.64825 11.6754 5.29121 11.8361L9.29121 12.8361C9.93416 12.9969 10.3251 13.6484 10.1643 14.2914C10.0036 14.9343 9.35208 15.3252 8.70912 15.1645L4.70912 14.1645C4.06617 14.0037 3.67526 13.3522 3.83599 12.7093ZM19.2912 12.9276C19.251 12.7668 19.0881 12.6691 18.9274 12.7093L14.9274 13.7093C14.7667 13.7495 14.6689 13.9123 14.7091 14.0731C14.7493 14.2338 14.9122 14.3315 15.0729 14.2914L19.0729 13.2914C19.2337 13.2512 19.3314 13.0883 19.2912 12.9276ZM18.7091 11.8361C19.3521 11.6754 20.0036 12.0663 20.1643 12.7093C20.3251 13.3522 19.9342 14.0037 19.2912 14.1645L15.2912 15.1645C14.6483 15.3252 13.9967 14.9343 13.836 14.2914C13.6753 13.6484 14.0662 12.9969 14.7091 12.8361L18.7091 11.8361Z" fill="#141414"/>
</svg>
