<svg width="32" height="32" viewBox="0 0 32 32" fill="none" xmlns="http://www.w3.org/2000/svg">
<path fill-rule="evenodd" clip-rule="evenodd" d="M16.0013 3.66675C9.18979 3.66675 3.66797 9.18857 3.66797 16.0001C3.66797 22.8116 9.18979 28.3334 16.0013 28.3334C22.8128 28.3334 28.3346 22.8116 28.3346 16.0001C28.3346 9.18857 22.8128 3.66675 16.0013 3.66675ZM1.66797 16.0001C1.66797 8.084 8.08522 1.66675 16.0013 1.66675C23.9174 1.66675 30.3346 8.084 30.3346 16.0001C30.3346 23.9162 23.9174 30.3334 16.0013 30.3334C8.08522 30.3334 1.66797 23.9162 1.66797 16.0001Z" fill="#141414"/>
<path fill-rule="evenodd" clip-rule="evenodd" d="M16.002 22.3334C14.7414 22.3334 13.5681 22.7507 12.5975 23.4701C12.1538 23.799 11.5275 23.7059 11.1986 23.2622C10.8698 22.8185 10.9629 22.1922 11.4066 21.8633C12.7026 20.9027 14.2893 20.3334 16.002 20.3334C17.7148 20.3334 19.3015 20.9027 20.5975 21.8633C21.0412 22.1922 21.1343 22.8185 20.8054 23.2622C20.4765 23.7059 19.8503 23.799 19.4066 23.4701C18.4359 22.7507 17.2626 22.3334 16.002 22.3334Z" fill="#141414"/>
<path d="M20.0013 16.0001C20.7377 16.0001 21.3346 15.1047 21.3346 14.0001C21.3346 12.8956 20.7377 12.0001 20.0013 12.0001C19.2649 12.0001 18.668 12.8956 18.668 14.0001C18.668 15.1047 19.2649 16.0001 20.0013 16.0001Z" fill="#141414"/>
<path d="M12.0013 16.0001C12.7377 16.0001 13.3346 15.1047 13.3346 14.0001C13.3346 12.8956 12.7377 12.0001 12.0013 12.0001C11.2649 12.0001 10.668 12.8956 10.668 14.0001C10.668 15.1047 11.2649 16.0001 12.0013 16.0001Z" fill="#141414"/>
</svg>
