<?xml version="1.0" encoding="utf-8"?>
<!-- Generator: Adobe Illustrator 24.0.1, SVG Export Plug-In . SVG Version: 6.00 Build 0)  -->
<svg version="1.1" id="Layer_1" xmlns="http://www.w3.org/2000/svg" xmlns:xlink="http://www.w3.org/1999/xlink" x="0px" y="0px"
	 viewBox="0 0 24 24" style="enable-background:new 0 0 24 24;" xml:space="preserve">
<path d="M8.5,5c1.4-2.5,2.1-3.8,3.5-3.8s2.1,1.3,3.5,3.8l0.3,0.6c0.3,0.5,0.5,0.8,0.6,1c0.1,0.1,0.4,0.2,1,0.3L18.1,7
	c2.7,0.6,4.1,0.9,4.5,2.3c0.4,1.3-0.6,2.5-2.4,4.6l-0.4,0.5c-0.4,0.5-0.6,0.7-0.7,0.9c-0.1,0.2,0,0.5,0,1.2l0.1,0.7
	c0.3,2.9,0.4,4.3-0.7,5.2c-0.4,0.3-0.7,0.4-1.2,0.4c-0.9,0-2.1-0.5-3.8-1.3L13,21.2c-0.6-0.3-0.8-0.4-1-0.4s-0.5,0.1-1,0.4l-0.6,0.3
	c-2.5,1.1-3.9,1.8-5,0.9c-1.1-0.8-1-2.3-0.7-5.2l0.1-0.7c0.1-0.7,0.1-1,0-1.2c-0.1-0.2-0.3-0.4-0.7-0.9l-0.4-0.5
	c-1.8-2.1-2.8-3.3-2.4-4.6C1.8,8,3.2,7.6,5.9,7l0.6-0.1c0.6-0.1,0.9-0.2,1-0.3c0.2-0.1,0.3-0.4,0.6-0.9L8.5,5 M9.8,5.8L9.5,6.4
	c-0.4,0.7-0.6,1.1-1,1.4C8,8.1,7.6,8.2,6.8,8.4L6.2,8.5c-2,0.4-3.3,0.7-3.4,1.3c-0.2,0.5,0.7,1.6,2.1,3.2l0.4,0.5
	c0.5,0.6,0.8,1,1,1.4c0.2,0.5,0.1,0.9,0,1.7l-0.1,0.7c-0.2,2.1-0.3,3.5,0.1,3.8c0.4,0.3,1.6-0.2,3.5-1.1l0.6-0.3
	c0.7-0.3,1.1-0.5,1.6-0.5c0.5,0,0.9,0.2,1.6,0.5l0.6,0.3c1.8,0.8,3,1.4,3.5,1.1c0.4-0.3,0.3-1.7,0.1-3.8l-0.1-0.7
	c-0.1-0.8-0.1-1.3,0-1.8c0.2-0.5,0.5-0.9,1-1.4l0.4-0.5c1.4-1.6,2.2-2.6,2.1-3.2c-0.2-0.5-1.5-0.8-3.4-1.3l-0.6-0.1
	c-0.8-0.2-1.2-0.3-1.6-0.6c-0.4-0.3-0.6-0.7-1-1.4l-0.3-0.6c-1-1.8-1.7-3-2.2-3S10.8,4,9.8,5.8"/>
</svg>
