<?xml version="1.0" standalone="no"?>
<!DOCTYPE svg PUBLIC "-//W3C//DTD SVG 1.1//EN" "http://www.w3.org/Graphics/SVG/1.1/DTD/svg11.dtd" >
<svg xmlns="http://www.w3.org/2000/svg">
<metadata>Generated by IcoMoon</metadata>
<defs>
<font id="icomoon" horiz-adv-x="1024">
<font-face units-per-em="1024" ascent="960" descent="-64" />
<missing-glyph horiz-adv-x="1024" />
<glyph unicode="&#x20;" horiz-adv-x="512" d="" />
<glyph unicode="&#xe900;" glyph-name="arrow-down" d="M512 821.334c17.673 0 32-14.326 32-32v-605.411l201.37 201.372c12.499 12.497 32.762 12.497 45.261 0 12.493-12.497 12.493-32.758 0-45.255l-256.003-256.001c-12.497-12.493-32.758-12.493-45.254 0l-256 256.001c-12.497 12.497-12.497 32.758 0 45.255s32.758 12.497 45.254 0l201.373-201.372v605.411c0 17.674 14.327 32 32 32z" />
<glyph unicode="&#xe901;" glyph-name="arrow-left" d="M449.293 726.627c12.497-12.497 12.497-32.758 0-45.255l-201.371-201.373h605.412c17.673 0 32-14.327 32-32s-14.327-32-32-32h-605.412l201.371-201.374c12.497-12.497 12.497-32.755 0-45.252s-32.757-12.497-45.254 0l-256 256c-12.497 12.497-12.497 32.755 0 45.252l256 256.001c12.497 12.497 32.756 12.497 45.254 0z" />
<glyph unicode="&#xe902;" glyph-name="arrow-right" d="M138.667 448c0 17.673 14.327 32 32 32h605.41l-201.37 201.373c-12.497 12.497-12.497 32.758 0 45.255s32.755 12.497 45.252 0l256-256.001c12.497-12.497 12.497-32.755 0-45.252l-256-256c-12.497-12.497-32.755-12.497-45.252 0s-12.497 32.755 0 45.252l201.37 201.374h-605.41c-17.673 0-32 14.327-32 32z" />
<glyph unicode="&#xe903;" glyph-name="bell" d="M904.533 388.267l-46.933 72.533c-17.067 25.6-25.6 55.467-25.6 85.333v29.867c0 183.467-145.067 332.8-320 332.8s-320-149.333-320-332.8v-29.867c0-29.867-8.533-59.733-25.6-85.333l-46.933-72.533c-25.6-42.667-29.867-93.867-12.8-136.533s51.2-76.8 98.133-89.6c29.867-8.533 55.467-12.8 85.333-21.333 0 0 0 0 0 0 34.133-89.6 123.733-149.333 221.867-149.333s187.733 59.733 221.867 149.333c0 0 0 0 0 0 29.867 4.267 59.733 12.8 85.333 21.333 46.933 12.8 81.067 46.933 98.133 89.6s12.8 93.867-12.8 136.533zM512 51.2c-59.733 0-110.933 29.867-145.067 72.533 46.933-4.267 93.867-8.533 145.067-8.533 46.933 0 93.867 4.267 145.067 8.533-34.133-42.667-85.333-72.533-145.067-72.533zM857.6 273.067c-8.533-25.6-29.867-42.667-55.467-51.2-192-55.467-392.533-55.467-584.533 0-25.6 8.533-46.933 25.6-55.467 51.2s-8.533 55.467 8.533 81.067l46.933 72.533c25.6 34.133 38.4 76.8 38.4 119.467v29.867c0 145.067 115.2 268.8 256 268.8s256-119.467 256-268.8v-29.867h-4.267c0-42.667 12.8-81.067 34.133-119.467l46.933-72.533c21.333-25.6 25.6-55.467 12.8-81.067z" />
<glyph unicode="&#xe904;" glyph-name="bookmark" d="M221.867-12.8c-4.267 0-8.533 0-12.8 0-25.6 4.267-51.2 12.8-72.533 34.133-42.667 38.4-42.667 106.667-42.667 251.733v213.333c0 192 0 285.867 64 354.133 68.267 64 166.4 64 354.133 64s285.867 0 349.867-68.267c64-68.267 64-162.133 64-354.133v-213.333c0-145.067 0-213.333-42.667-251.733-21.333-17.067-46.933-29.867-72.533-34.133-55.467-4.267-106.667 38.4-213.333 132.267-38.4 34.133-59.733 51.2-76.8 55.467-8.533 0-17.067 0-25.6 0-17.067-4.267-38.4-21.333-76.8-55.467-93.867-81.067-145.067-128-196.267-128zM512 840.533c-170.667 0-260.267 0-302.933-46.933-46.933-46.933-46.933-132.267-46.933-307.2v-213.333c0-110.933 0-183.467 21.333-204.8 8.533-8.533 21.333-17.067 34.133-17.067 29.867-4.267 81.067 46.933 166.4 119.467 46.933 42.667 72.533 64 106.667 68.267 17.067 4.267 34.133 4.267 51.2 0 34.133-8.533 59.733-29.867 106.667-68.267 81.067-72.533 136.533-119.467 166.4-119.467 12.8 0 25.6 8.533 34.133 17.067 21.333 21.333 21.333 93.867 21.333 204.8v213.333c0 174.933 0 260.267-46.933 307.2-51.2 46.933-140.8 46.933-311.467 46.933zM674.133 704c0 17.067-12.8 34.133-34.133 34.133h-256c-17.067-4.267-29.867-17.067-29.867-34.133s12.8-34.133 29.867-34.133h256c17.067 0 34.133 17.067 34.133 34.133z" />
<glyph unicode="&#xe905;" glyph-name="calendar" d="M243.668 751.368c-42.926-5.773-67.649-16.599-85.692-34.658-18.058-18.043-28.904-42.786-34.677-85.712-5.897-43.846-5.965-101.646-5.965-182.999v-85.333c0-81.353 0.068-139.153 5.965-182.997 5.773-42.927 16.599-67.652 34.658-85.692 18.043-18.061 42.786-28.907 85.712-34.679 43.846-5.897 101.646-5.965 182.999-5.965h170.667c81.353 0 139.153 0.068 182.997 5.965 42.927 5.773 67.652 16.602 85.692 34.658 18.061 18.044 28.907 42.786 34.679 85.713 5.897 43.844 5.965 101.645 5.965 182.997v85.333c0 81.353-0.068 139.153-5.965 182.999-5.773 42.926-16.602 67.649-34.658 85.692-18.044 18.058-42.786 28.904-85.713 34.677-43.844 5.897-101.645 5.965-182.997 5.965h-170.667c-81.353 0-139.153-0.068-182.999-5.965zM424.259 821.333h175.481c78.409 0.001 140.514 0.001 189.124-6.536 50.014-6.727 90.5-20.899 122.415-52.832 31.949-31.92 46.123-72.412 52.851-122.436 6.537-48.607 6.537-110.714 6.537-189.119v-90.155c0-78.404 0-140.514-6.537-189.12-6.729-50.018-20.902-90.505-52.843-122.423-31.919-31.94-72.405-46.114-122.423-52.843-48.61-6.537-110.716-6.537-189.12-6.537h-175.486c-78.405 0-140.514 0-189.121 6.537-50.024 6.729-90.516 20.902-122.436 52.851-31.933 31.915-46.105 72.401-52.832 122.415-6.537 48.61-6.537 110.716-6.536 189.124v90.146c-0.001 78.409-0.001 140.516 6.536 189.123 6.727 50.019 20.902 90.508 52.842 122.426 31.919 31.94 72.407 46.115 122.426 52.842 48.607 6.537 110.716 6.537 189.122 6.536zM298.667 885.333c17.673 0 32-14.327 32-32v-64c0-17.673-14.327-32-32-32s-32 14.327-32 32v64c0 17.673 14.327 32 32 32zM725.333 885.333c17.673 0 32-14.327 32-32v-64c0-17.673-14.327-32-32-32s-32 14.327-32 32v64c0 17.673 14.327 32 32 32zM74.667 576c0 17.673 14.327 32 32 32h810.667c17.673 0 32-14.327 32-32s-14.327-32-32-32h-810.667c-17.673 0-32 14.327-32 32zM768 234.667c0-11.315-4.497-22.17-12.497-30.17s-18.854-12.497-30.17-12.497c-11.315 0-22.17 4.497-30.17 12.497s-12.497 18.854-12.497 30.17c0 11.315 4.497 22.17 12.497 30.17s18.854 12.497 30.17 12.497c11.315 0 22.17-4.497 30.17-12.497s12.497-18.854 12.497-30.17zM768 405.333c0-11.315-4.497-22.17-12.497-30.17s-18.854-12.497-30.17-12.497c-11.315 0-22.17 4.497-30.17 12.497s-12.497 18.854-12.497 30.17c0 11.315 4.497 22.17 12.497 30.17s18.854 12.497 30.17 12.497c11.315 0 22.17-4.497 30.17-12.497s12.497-18.854 12.497-30.17zM554.667 234.667c0-11.315-4.497-22.17-12.497-30.17s-18.854-12.497-30.17-12.497c-11.315 0-22.17 4.497-30.17 12.497s-12.497 18.854-12.497 30.17c0 11.315 4.497 22.17 12.497 30.17s18.854 12.497 30.17 12.497c11.315 0 22.17-4.497 30.17-12.497s12.497-18.854 12.497-30.17zM554.667 405.333c0-11.315-4.497-22.17-12.497-30.17s-18.854-12.497-30.17-12.497c-11.315 0-22.17 4.497-30.17 12.497s-12.497 18.854-12.497 30.17c0 11.315 4.497 22.17 12.497 30.17s18.854 12.497 30.17 12.497c11.315 0 22.17-4.497 30.17-12.497s12.497-18.854 12.497-30.17zM341.333 234.667c0-11.315-4.495-22.17-12.497-30.17s-18.854-12.497-30.17-12.497c-11.316 0-22.168 4.497-30.17 12.497s-12.497 18.854-12.497 30.17c0 11.315 4.495 22.17 12.497 30.17s18.854 12.497 30.17 12.497c11.316 0 22.168-4.497 30.17-12.497s12.497-18.854 12.497-30.17zM341.333 405.333c0-11.315-4.495-22.17-12.497-30.17s-18.854-12.497-30.17-12.497c-11.316 0-22.168 4.497-30.17 12.497s-12.497 18.854-12.497 30.17c0 11.315 4.495 22.17 12.497 30.17s18.854 12.497 30.17 12.497c11.316 0 22.168-4.497 30.17-12.497s12.497-18.854 12.497-30.17z" />
<glyph unicode="&#xe906;" glyph-name="checklist" d="M282.193 835.144c-54.533-7.33-87.432-21.27-111.774-45.574-24.293-24.316-38.234-57.208-45.563-111.747-7.455-55.469-7.523-128.353-7.523-229.823s0.068-174.366 7.523-229.833c7.332-54.554 21.275-87.424 45.561-111.693 24.318-24.32 57.218-38.276 111.763-45.615 55.468-7.458 128.35-7.526 229.82-7.526s174.362 0.068 229.833 7.526c54.545 7.339 87.415 21.291 111.684 45.594 24.311 24.294 38.285 57.19 45.623 111.731 7.458 55.462 7.526 128.346 7.526 229.815s-0.068 174.342-7.526 229.804c-7.339 54.537-21.286 87.436-45.615 111.779-24.294 24.289-57.169 38.23-111.71 45.561-55.462 7.455-128.346 7.523-229.815 7.523s-174.343-0.068-229.807-7.523zM509.551 906.667h4.898c98.487 0 175.676 0.001 235.895-8.093 61.636-8.285 110.272-25.574 148.442-63.744 38.182-38.205 55.492-86.85 63.782-148.495 8.098-60.221 8.098-137.396 8.098-235.886v-4.898c0-98.492 0-175.676-8.098-235.895-8.29-61.632-25.587-110.268-63.774-148.433-38.148-38.199-86.793-55.501-148.433-63.791-60.228-8.098-137.421-8.098-235.913-8.098h-4.898c-98.49 0-175.675 0-235.901 8.098-61.643 8.29-110.285 25.591-148.472 63.774-38.173 38.153-55.468 86.801-63.751 148.437-8.094 60.224-8.093 137.421-8.093 235.908v4.898c0 98.49-0.001 175.674 8.093 235.899 8.285 61.643 25.573 110.285 63.736 148.474 38.206 38.154 86.865 55.466 148.506 63.751 60.22 8.094 137.394 8.093 235.883 8.093zM125.178 61.205c-0.003 0 0.003-0.004 0 0zM266.667 576c0 17.673 14.327 32 32 32h21.333c17.673 0 32-14.327 32-32s-14.327-32-32-32h-21.333c-17.673 0-32 14.327-32 32zM416 576c0 17.673 14.327 32 32 32h277.333c17.673 0 32-14.327 32-32s-14.327-32-32-32h-277.333c-17.673 0-32 14.327-32 32zM266.667 426.667c0 17.673 14.327 32 32 32h21.333c17.673 0 32-14.327 32-32s-14.327-32-32-32h-21.333c-17.673 0-32 14.327-32 32zM416 426.667c0 17.673 14.327 32 32 32h277.333c17.673 0 32-14.327 32-32s-14.327-32-32-32h-277.333c-17.673 0-32 14.327-32 32zM266.667 277.333c0 17.673 14.327 32 32 32h21.333c17.673 0 32-14.327 32-32s-14.327-32-32-32h-21.333c-17.673 0-32 14.327-32 32zM416 277.333c0 17.673 14.327 32 32 32h277.333c17.673 0 32-14.327 32-32s-14.327-32-32-32h-277.333c-17.673 0-32 14.327-32 32z" />
<glyph unicode="&#xe907;" glyph-name="checkmark" d="M683.959 577.294c12.497-12.497 12.497-32.758 0-45.254l-213.333-213.333c-12.497-12.497-32.755-12.497-45.254 0l-85.333 85.333c-12.497 12.497-12.497 32.755 0 45.252s32.758 12.497 45.255 0l62.706-62.703 190.707 190.704c12.497 12.497 32.755 12.497 45.252 0z" />
<glyph unicode="&#xe908;" glyph-name="chevron-down" d="M189.010 596.821c2.736 3.193 6.074 5.815 9.824 7.716s7.838 3.046 12.030 3.366c4.192 0.321 8.407-0.187 12.402-1.496s7.694-3.392 10.884-6.131l277.844-238.123 277.845 238.123c6.481 5.2 14.724 7.677 22.997 6.908 8.269-0.769 15.919-4.725 21.325-11.030 5.41-6.305 8.154-14.467 7.654-22.758-0.503-8.292-4.207-16.064-10.334-21.674l-298.667-256c-5.798-4.971-13.184-7.701-20.821-7.701s-15.019 2.731-20.821 7.701l-298.665 256c-6.435 5.525-10.413 13.378-11.061 21.834s2.088 16.824 7.605 23.264h-0.043z" />
<glyph unicode="&#xe909;" glyph-name="chevron-left" d="M634.607 681.589c11.187-13.679 9.169-33.84-4.51-45.030-90.274-73.843-138.044-120.404-204.729-200.954 66.694-80.542 114.549-127.108 204.742-200.969 13.675-11.196 15.68-31.36 4.484-45.030-11.196-13.675-31.36-15.684-45.030-4.484-100.638 82.406-151.765 133.402-230.412 230.319-9.536 11.75-9.536 28.574 0 40.324 78.638 96.908 129.655 147.907 230.425 230.332 13.679 11.19 33.839 9.171 45.030-4.509z" />
<glyph unicode="&#xe90a;" glyph-name="chevron-right" d="M389.395 214.413c-11.189 13.679-9.171 33.839 4.509 45.026 90.274 73.843 138.043 120.405 204.727 200.956-66.692 80.544-114.547 127.11-204.741 200.969-13.673 11.197-15.681 31.359-4.484 45.032s31.359 15.681 45.030 4.483c100.638-82.409 151.765-133.402 230.413-230.32 9.536-11.75 9.536-28.574 0-40.324-78.639-96.909-129.655-147.908-230.426-230.332-13.679-11.191-33.839-9.173-45.029 4.51z" />
<glyph unicode="&#xe90b;" glyph-name="clock" d="M511.995 842.666c-217.969 0-394.667-176.698-394.667-394.667 0-217.971 176.698-394.668 394.667-394.668 217.97 0 394.668 176.698 394.668 394.668s-176.698 394.667-394.668 394.667zM53.328 447.999c0 253.315 205.352 458.667 458.667 458.667 253.317 0 458.668-205.352 458.668-458.667 0-253.318-205.35-458.668-458.668-458.668-253.315 0-458.667 205.35-458.667 458.668zM512 650.666c17.673 0 32-14.327 32-32v-157.412l97.293-97.294c12.499-12.497 12.499-32.758 0-45.253-12.495-12.499-32.756-12.499-45.254 0l-106.666 106.665c-6.001 6.001-9.373 14.14-9.373 22.627v170.667c0 17.673 14.327 32 32 32z" />
<glyph unicode="&#xe90c;" glyph-name="close" d="M318.706 641.294c12.497 12.497 32.758 12.497 45.255 0l148.039-148.038 148.041 148.038c12.497 12.497 32.755 12.497 45.252 0s12.497-32.758 0-45.255l-148.036-148.039 148.036-148.041c12.497-12.497 12.497-32.755 0-45.252s-32.755-12.497-45.252 0l-148.041 148.036-148.039-148.036c-12.497-12.497-32.758-12.497-45.255 0s-12.497 32.755 0 45.252l148.038 148.041-148.038 148.039c-12.497 12.497-12.497 32.758 0 45.255z" />
<glyph unicode="&#xe90d;" glyph-name="course-up" d="M668.493 661.333c0 17.673 14.323 32 32 32h238.17c17.67 0 32-14.327 32-32v-236.622c0-17.673-14.33-32-32-32-17.677 0-32 14.327-32 32v159.7l-261.798-260.2c-20.007-19.891-37.253-37.030-52.915-48.915-16.789-12.736-35.443-22.368-58.406-22.368-22.964 0.006-41.615 9.645-58.401 22.381-15.66 11.885-32.902 29.037-52.906 48.929l-11.7 11.634c-21.937 21.814-36.16 35.861-48.003 44.849-11.103 8.426-16.294 9.366-19.731 9.365s-8.628-0.945-19.725-9.38c-11.836-8.996-26.049-23.054-47.971-44.884l-167.197-166.497c-12.523-12.467-32.784-12.429-45.255 0.096s-12.428 32.781 0.095 45.254l168.685 167.979c20.008 19.926 37.252 37.1 52.915 49.005 16.79 12.761 35.449 22.419 58.429 22.427s41.647-9.636 58.445-22.384c15.672-11.894 32.928-29.055 52.95-48.966l11.701-11.636c21.919-21.795 36.128-35.828 47.96-44.81 11.092-8.421 16.28-9.362 19.716-9.362s8.624 0.941 19.718 9.357c11.834 8.978 26.047 23.009 47.971 44.799l259.83 258.249h-160.576c-17.677 0-32 14.327-32 32z" />
<glyph unicode="&#xe90e;" glyph-name="dialog" d="M373.815 736h105.702c54.468 0 97.626 0 132.207-3.287 35.405-3.366 65.109-10.404 91.503-26.577 27.268-16.711 50.197-39.639 66.906-66.909 16.175-26.393 23.215-56.096 26.581-91.501 3.285-34.581 3.285-77.739 3.285-132.207v-36.954c0-38.771 0-69.5-1.698-94.391-1.737-25.429-5.35-47.1-13.73-67.332-20.57-49.66-60.023-89.114-109.683-109.683-25.463-10.547-53.555-13.636-88.879-14.767-19.004-0.61-31.155-1.028-40.384-2.155-8.721-1.062-11.998-2.483-13.769-3.533-1.967-1.161-4.681-3.294-9.417-9.813-5.111-7.044-10.906-16.759-20.075-32.256l-11.072-18.701c-28.881-48.798-100.375-48.798-129.257 0l-11.069 18.701c-9.172 15.497-14.963 25.212-20.077 32.256-4.735 6.519-7.45 8.653-9.417 9.813-1.77 1.050-5.044 2.47-13.769 3.533-9.229 1.126-21.378 1.545-40.384 2.155-35.323 1.131-63.412 4.22-88.878 14.767-49.659 20.57-89.113 60.023-109.682 109.683-8.38 20.233-11.994 41.903-13.729 67.332-1.699 24.892-1.698 55.62-1.698 94.391v36.954c0 54.464 0 97.626 3.287 132.207 3.366 35.406 10.404 65.108 26.577 91.501 16.711 27.27 39.639 50.198 66.909 66.909 26.393 16.174 56.096 23.211 91.501 26.577 34.58 3.288 77.74 3.288 132.207 3.287zM247.666 669c-30.721-2.921-49.472-8.458-64.119-17.434-18.658-11.434-34.346-27.121-45.78-45.78-8.976-14.647-14.513-33.398-17.434-64.119-2.966-31.199-3-71.314-3-127.8v-34.133c0-40.201 0.017-68.745 1.55-91.204 1.513-22.174 4.394-36.062 9.006-47.198 14.074-33.975 41.069-60.971 75.046-75.046 14.258-5.905 32.629-8.845 66.432-9.929l1.327-0.043c17.297-0.55 32.342-1.033 44.76-2.547 13.238-1.613 26.244-4.668 38.604-11.977 12.162-7.194 20.947-16.734 28.615-27.29 7.093-9.766 14.402-22.114 22.687-36.113l11.753-19.857c1.937-3.273 5.32-5.197 9.554-5.197s7.617 1.924 9.554 5.197l11.755 19.857c8.282 13.999 15.59 26.347 22.686 36.113 7.667 10.556 16.452 20.096 28.617 27.29 12.356 7.309 25.365 10.364 38.601 11.977 12.42 1.515 27.465 1.997 44.762 2.547l1.327 0.043c33.805 1.084 52.173 4.023 66.432 9.929 33.98 14.076 60.975 41.071 75.046 75.046 4.612 11.136 7.492 25.024 9.007 47.198 1.532 22.46 1.549 51.004 1.549 91.204v34.133c0 56.486-0.034 96.602-2.999 127.8-2.923 30.721-8.461 49.472-17.434 64.119-11.435 18.659-27.123 34.346-45.781 45.78-14.647 8.976-33.395 14.513-64.119 17.434-31.198 2.966-71.313 3-127.799 3h-102.4c-56.486 0-96.604-0.034-127.801-3zM569.020 906.667h99.285c50.982 0 91.524 0 124.041-3.091 33.34-3.17 61.525-9.815 86.639-25.202 25.835-15.831 47.552-37.553 63.386-63.387 15.386-25.111 22.033-53.299 25.203-86.639 3.089-32.515 3.089-73.057 3.089-124.040v-34.804c0-36.29 0-65.158-1.596-88.561-1.634-23.945-5.043-44.501-13.018-63.753-19.49-47.044-56.866-84.425-103.91-103.91-24.009-9.946-50.368-12.877-83.076-13.965l-2.125 63.962c31.091 1.037 47.825 3.793 60.71 9.131 31.36 12.992 56.282 37.909 69.269 69.274 4.207 10.155 6.886 22.933 8.299 43.618 1.429 20.971 1.446 47.654 1.446 85.366v32c0 52.995-0.034 90.494-2.803 119.625-2.726 28.655-7.868 45.891-16.060 59.256-10.551 17.223-25.033 31.704-42.257 42.258-13.363 8.19-30.601 13.334-59.255 16.058-29.133 2.77-66.628 2.804-119.625 2.804h-96c-52.992 0-90.492-0.034-119.625-2.804-28.653-2.724-45.89-7.869-59.255-16.058-17.223-10.554-31.704-25.035-42.258-42.258-10.025-16.36-15.355-38.232-17.487-79.209l-63.913 3.325c2.272 43.685 8.18 78.889 26.831 109.324 15.831 25.835 37.553 47.556 63.387 63.388 25.11 15.388 53.299 22.032 86.636 25.202 32.516 3.091 73.058 3.091 124.041 3.091zM235.042 405.333c0 23.565 19.102 42.667 42.667 42.667h0.384c23.564 0 42.667-19.102 42.667-42.667s-19.103-42.667-42.667-42.667h-0.384c-23.564 0-42.667 19.102-42.667 42.667zM383.979 405.333c0 23.565 19.103 42.667 42.667 42.667h0.384c23.565 0 42.667-19.102 42.667-42.667s-19.102-42.667-42.667-42.667h-0.384c-23.564 0-42.667 19.102-42.667 42.667zM532.928 405.333c0 23.565 19.102 42.667 42.667 42.667h0.384c23.565 0 42.667-19.102 42.667-42.667s-19.102-42.667-42.667-42.667h-0.384c-23.565 0-42.667 19.102-42.667 42.667z" />
<glyph unicode="&#xe90f;" glyph-name="doc" d="M286.335 836.701c-42.926-5.773-67.649-16.599-85.692-34.658-18.058-18.043-28.904-42.786-34.677-85.712-5.897-43.846-5.965-101.646-5.965-182.999v-170.667c0-81.353 0.068-139.153 5.965-182.997 5.773-42.927 16.599-67.652 34.658-85.692 18.043-18.061 42.786-28.907 85.712-34.679 43.846-5.897 101.646-5.965 182.999-5.965h85.333c81.353 0 139.153 0.068 182.997 5.965 42.927 5.773 67.652 16.602 85.692 34.658 18.061 18.044 28.907 42.786 34.679 85.713 5.897 43.844 5.965 101.645 5.965 182.997v170.667c0 81.353-0.068 139.153-5.965 182.999-5.773 42.926-16.602 67.649-34.658 85.692-18.044 18.058-42.786 28.904-85.713 34.677-43.844 5.897-101.645 5.965-182.997 5.965h-85.333c-81.353 0-139.153-0.068-182.999-5.965zM466.927 906.667h90.146c78.409 0.001 140.514 0.001 189.124-6.536 50.014-6.727 90.5-20.899 122.415-52.832 31.949-31.92 46.123-72.412 52.851-122.436 6.537-48.607 6.537-110.716 6.537-189.121v-175.486c0-78.404 0-140.51-6.537-189.12-6.729-50.018-20.902-90.505-52.843-122.423-31.919-31.94-72.405-46.114-122.423-52.843-48.606-6.537-110.716-6.537-189.12-6.537h-90.155c-78.403 0-140.512 0-189.119 6.537-50.024 6.729-90.516 20.902-122.436 52.851-31.933 31.915-46.105 72.401-52.832 122.415-6.537 48.61-6.537 110.716-6.536 189.124v175.481c-0.001 78.406-0.001 140.515 6.536 189.122 6.727 50.019 20.902 90.508 52.842 122.426 31.919 31.94 72.407 46.115 122.426 52.842 48.607 6.537 110.716 6.537 189.123 6.536zM309.333 618.667c0 17.673 14.327 32 32 32h341.333c17.673 0 32-14.327 32-32s-14.327-32-32-32h-341.333c-17.673 0-32 14.327-32 32zM309.333 448c0 17.673 14.327 32 32 32h341.333c17.673 0 32-14.327 32-32s-14.327-32-32-32h-341.333c-17.673 0-32 14.327-32 32zM309.333 277.333c0 17.673 14.327 32 32 32h213.333c17.673 0 32-14.327 32-32s-14.327-32-32-32h-213.333c-17.673 0-32 14.327-32 32z" />
<glyph unicode="&#xe910;" glyph-name="download" d="M512 864c17.673 0 32-14.327 32-32v-472.243l115.051 125.837c11.925 13.043 32.166 13.948 45.21 2.022s13.948-32.166 2.022-45.21l-170.667-186.667c-6.063-6.63-14.63-10.406-23.616-10.406s-17.553 3.776-23.616 10.406l-170.668 186.667c-11.925 13.043-11.019 33.284 2.024 45.21s33.284 11.021 45.21-2.022l115.050-125.837v472.243c0 17.673 14.327 32 32 32zM128 352c17.673 0 32-14.327 32-32 0-61.235 0.068-103.953 4.402-136.183 4.211-31.313 11.913-47.881 23.716-59.674 11.79-11.802 28.387-19.529 59.699-23.74 32.23-4.335 74.947-4.403 136.183-4.403h256c61.235 0 103.953 0.068 136.183 4.403 31.313 4.211 47.881 11.913 59.674 23.714 11.802 11.793 19.529 28.386 23.74 59.699 4.335 32.23 4.403 74.948 4.403 136.183 0 17.673 14.327 32 32 32s32-14.327 32-32v-2.342c0-58.342 0-105.378-4.975-142.37-5.163-38.4-16.209-70.741-41.903-96.41-25.668-25.694-58.010-36.74-96.41-41.903-36.992-4.975-84.028-4.975-142.37-4.975h-260.685c-58.341 0-105.377 0-142.371 4.975-38.392 5.163-70.73 16.205-96.398 41.89-25.701 25.668-36.751 58.018-41.916 96.422-4.975 36.992-4.975 84.028-4.974 142.37v2.342c0 17.673 14.327 32 32 32z" />
<glyph unicode="&#xe911;" glyph-name="heart" d="M512 725.332l-23.040-22.187c2.987-3.097 6.562-5.56 10.522-7.243s8.218-2.55 12.518-2.55c4.301 0 8.559 0.867 12.518 2.55s7.535 4.146 10.522 7.243l-23.040 22.187zM402.176 178.261c-64.683 50.987-135.381 100.779-191.488 163.925-54.955 61.952-93.355 134.229-93.355 227.967h-64c0-113.748 47.36-200.532 109.525-270.463 61.013-68.693 138.837-123.733 199.68-171.691l39.68 50.261h-0.043zM117.333 570.154c0 91.733 51.84 168.704 122.624 201.088 68.779 31.445 161.195 23.125 249.003-68.096l46.080 44.331c-104.107 108.245-225.109 126.123-321.707 81.963-94.464-43.221-160-143.573-160-259.285h64zM362.539 128c21.888-17.237 45.355-35.584 69.12-49.493 23.765-13.867 50.901-25.173 80.341-25.173v64c-13.227 0-28.757 5.12-48.043 16.427-19.328 11.264-39.339 26.795-61.781 44.501l-39.637-50.261zM661.461 128c60.843 48 138.667 102.955 199.68 171.691 62.165 69.973 109.525 156.715 109.525 270.463h-64c0-93.738-38.4-166.015-93.355-227.967-56.107-63.147-126.805-112.939-191.488-163.925l39.637-50.261zM970.667 570.154c0 115.712-65.493 216.064-160 259.285-96.597 44.16-217.515 26.283-321.707-81.92l46.080-44.373c87.808 91.179 180.224 99.541 249.003 68.096 70.784-32.384 122.624-109.312 122.624-201.088h64zM621.824 178.261c-22.443-17.707-42.453-33.237-61.781-44.501-19.285-11.264-34.816-16.427-48.043-16.427v-64c29.44 0 56.576 11.307 80.341 25.173 23.808 13.909 47.232 32.256 69.12 49.493l-39.637 50.261z" />
<glyph unicode="&#xe912;" glyph-name="hidden" d="M504.747 576l135.253-134.827v6.827c0 33.946-13.487 66.505-37.491 90.51s-56.563 37.49-90.509 37.49h-7.253zM321.28 541.867l66.133-66.133c-2.133-8.96-3.413-17.92-3.413-27.733 0-33.946 13.486-66.505 37.49-90.509s56.564-37.491 90.51-37.491c9.387 0 18.773 1.28 27.733 3.413l66.133-66.133c-28.587-14.080-60.16-22.613-93.867-22.613-56.58 0-110.842 22.477-150.849 62.485-40.008 40.004-62.484 94.268-62.484 150.848 0 33.707 8.533 65.28 22.613 93.867zM85.333 777.813l116.48-116.48c-70.4-55.467-125.867-128-159.147-213.333 73.813-187.307 256-320 469.333-320 66.133 0 129.28 12.8 186.88 35.84l18.347-17.92 124.587-124.587 54.187 54.187-756.48 756.48zM512 661.333c56.58 0 110.844-22.476 150.848-62.484 40.009-40.008 62.485-94.269 62.485-150.849 0-27.307-5.547-53.76-15.36-77.653l125.013-125.013c64 53.333 115.2 123.307 146.347 202.667-73.813 187.307-256 320-469.333 320-59.733 0-116.907-10.667-170.667-29.867l92.587-91.733c24.32 9.387 50.347 14.933 78.080 14.933z" />
<glyph unicode="&#xe913;" glyph-name="info" d="M938.667 448c0-235.639-191.027-426.667-426.667-426.667-235.642 0-426.667 191.027-426.667 426.667 0 235.642 191.025 426.667 426.667 426.667 235.639 0 426.667-191.025 426.667-426.667zM512 202.667c17.673 0 32 14.327 32 32v256c0 17.673-14.327 32-32 32s-32-14.327-32-32v-256c0-17.673 14.327-32 32-32zM512 661.333c23.565 0 42.667-19.103 42.667-42.667s-19.102-42.667-42.667-42.667c-23.565 0-42.667 19.102-42.667 42.667s19.102 42.667 42.667 42.667zM512 46.933c221.504 0 401.067 179.563 401.067 401.067s-179.563 401.067-401.067 401.067c-221.503 0-401.067-179.564-401.067-401.067s179.564-401.067 401.067-401.067zM569.6 234.667c0-31.812-25.788-57.6-57.6-57.6s-57.6 25.788-57.6 57.6v256c0 31.812 25.788 57.6 57.6 57.6s57.6-25.788 57.6-57.6v-256zM512 686.933c37.705 0 68.267-30.564 68.267-68.267s-30.562-68.267-68.267-68.267c-37.705 0-68.267 30.564-68.267 68.267s30.562 68.267 68.267 68.267zM512 21.333c235.639 0 426.667 191.027 426.667 426.667 0 235.642-191.027 426.667-426.667 426.667-235.642 0-426.667-191.025-426.667-426.667 0-235.639 191.025-426.667 426.667-426.667zM544 234.667c0-17.673-14.327-32-32-32s-32 14.327-32 32v256c0 17.673 14.327 32 32 32s32-14.327 32-32v-256zM554.667 618.667c0 23.564-19.102 42.667-42.667 42.667s-42.667-19.103-42.667-42.667c0-23.564 19.102-42.667 42.667-42.667s42.667 19.102 42.667 42.667z" />
<glyph unicode="&#xe914;" glyph-name="library" d="M275.115 885.333h4.437c38.335 0.001 70.302 0.002 95.679-3.409 26.786-3.601 50.97-11.523 70.401-30.957 19.435-19.433 27.358-43.617 30.959-70.403 3.413-25.378 3.409-57.344 3.409-95.68v-4.437c0-38.335 0.004-70.302-3.409-95.679-3.601-26.786-11.524-50.97-30.959-70.401-19.431-19.435-43.615-27.358-70.401-30.959-25.377-3.413-57.344-3.409-95.679-3.409h-4.437c-38.335 0-70.302-0.004-95.68 3.409-26.786 3.601-50.969 11.524-70.403 30.959-19.433 19.431-27.355 43.615-30.957 70.401-3.412 25.377-3.411 57.344-3.409 95.679v4.437c-0.001 38.335-0.002 70.302 3.409 95.679 3.601 26.786 11.523 50.969 30.957 70.403s43.617 27.355 70.403 30.957c25.377 3.412 57.344 3.411 95.679 3.409zM187.963 818.494c-19.689-2.647-28.115-7.222-33.676-12.782s-10.135-13.987-12.782-33.676c-2.771-20.61-2.839-48.239-2.839-89.37s0.068-68.76 2.839-89.37c2.647-19.689 7.222-28.116 12.782-33.676s13.987-10.135 33.676-12.782c20.61-2.771 48.239-2.839 89.37-2.839s68.76 0.068 89.37 2.839c19.689 2.647 28.116 7.222 33.676 12.782s10.135 13.987 12.782 33.676c2.771 20.61 2.839 48.239 2.839 89.37s-0.068 68.76-2.839 89.37c-2.647 19.689-7.222 28.115-12.782 33.676s-13.987 10.135-33.676 12.782c-20.61 2.771-48.239 2.839-89.37 2.839s-68.76-0.068-89.37-2.839zM744.448 416h4.437c38.336 0 70.302 0.004 95.68-3.409 26.786-3.601 50.97-11.524 70.4-30.959 19.435-19.43 27.358-43.614 30.959-70.4 3.413-25.378 3.409-57.344 3.409-95.68v-4.437c0-38.336 0.004-70.302-3.409-95.68-3.601-26.786-11.524-50.97-30.959-70.4-19.43-19.435-43.614-27.358-70.4-30.959-25.378-3.413-57.344-3.409-95.68-3.409h-4.437c-38.336 0-70.302-0.004-95.68 3.409-26.786 3.601-50.97 11.524-70.4 30.959-19.435 19.43-27.358 43.614-30.959 70.4-3.413 25.378-3.409 57.344-3.409 95.68v4.437c0 38.336-0.004 70.302 3.409 95.68 3.601 26.786 11.524 50.97 30.959 70.4 19.43 19.435 43.614 27.358 70.4 30.959 25.378 3.413 57.344 3.409 95.68 3.409zM657.297 349.163c-19.691-2.65-28.117-7.223-33.677-12.783s-10.133-13.986-12.783-33.677c-2.769-20.608-2.837-48.239-2.837-89.37s0.068-68.762 2.837-89.37c2.65-19.691 7.223-28.117 12.783-33.677s13.986-10.133 33.677-12.783c20.608-2.769 48.239-2.837 89.37-2.837s68.762 0.068 89.37 2.837c19.691 2.65 28.117 7.223 33.677 12.783s10.133 13.986 12.783 33.677c2.769 20.608 2.837 48.239 2.837 89.37s-0.068 68.762-2.837 89.37c-2.65 19.691-7.223 28.117-12.783 33.677s-13.986 10.133-33.677 12.783c-20.608 2.769-48.239 2.837-89.37 2.837s-68.762-0.068-89.37-2.837zM275.115 416h4.437c38.335 0 70.302 0.004 95.679-3.409 26.786-3.601 50.97-11.524 70.401-30.959 19.435-19.43 27.358-43.614 30.959-70.4 3.413-25.378 3.409-57.344 3.409-95.68v-4.437c0-38.336 0.004-70.302-3.409-95.68-3.601-26.786-11.524-50.97-30.959-70.4-19.431-19.435-43.615-27.358-70.401-30.959-25.377-3.413-57.344-3.409-95.679-3.409h-4.437c-38.335 0-70.302-0.004-95.68 3.409-26.786 3.601-50.969 11.524-70.403 30.959-19.433 19.43-27.355 43.614-30.957 70.4-3.412 25.378-3.411 57.344-3.409 95.68v4.437c-0.001 38.336-0.002 70.302 3.409 95.68 3.601 26.786 11.523 50.97 30.957 70.4 19.433 19.435 43.617 27.358 70.403 30.959 25.377 3.413 57.344 3.409 95.679 3.409zM187.963 349.163c-19.689-2.65-28.115-7.223-33.676-12.783s-10.135-13.986-12.782-33.677c-2.771-20.608-2.839-48.239-2.839-89.37s0.068-68.762 2.839-89.37c2.647-19.691 7.222-28.117 12.782-33.677s13.987-10.133 33.676-12.783c20.61-2.769 48.239-2.837 89.37-2.837s68.76 0.068 89.37 2.837c19.689 2.65 28.116 7.223 33.676 12.783s10.135 13.986 12.782 33.677c2.771 20.608 2.839 48.239 2.839 89.37s-0.068 68.762-2.839 89.37c-2.647 19.691-7.222 28.117-12.782 33.677s-13.987 10.133-33.676 12.783c-20.61 2.769-48.239 2.837-89.37 2.837s-68.76-0.068-89.37-2.837zM744.448 885.333h4.437c38.336 0.001 70.302 0.002 95.68-3.409 26.786-3.601 50.97-11.523 70.4-30.957 19.435-19.433 27.358-43.617 30.959-70.403 3.413-25.378 3.409-57.344 3.409-95.68v-4.437c0-38.335 0.004-70.302-3.409-95.679-3.601-26.786-11.524-50.97-30.959-70.401-19.43-19.435-43.614-27.358-70.4-30.959-25.378-3.413-57.344-3.409-95.68-3.409h-4.437c-38.336 0-70.302-0.004-95.68 3.409-26.786 3.601-50.97 11.524-70.4 30.959-19.435 19.431-27.358 43.615-30.959 70.401-3.413 25.377-3.409 57.344-3.409 95.679v4.437c0 38.335-0.004 70.302 3.409 95.679 3.601 26.786 11.524 50.969 30.959 70.403 19.43 19.433 43.614 27.355 70.4 30.957 25.378 3.412 57.344 3.411 95.68 3.409zM657.297 818.494c-19.691-2.647-28.117-7.222-33.677-12.782s-10.133-13.987-12.783-33.676c-2.769-20.61-2.837-48.239-2.837-89.37s0.068-68.76 2.837-89.37c2.65-19.689 7.223-28.116 12.783-33.676s13.986-10.135 33.677-12.782c20.608-2.771 48.239-2.839 89.37-2.839s68.762 0.068 89.37 2.839c19.691 2.647 28.117 7.222 33.677 12.782s10.133 13.987 12.783 33.676c2.769 20.61 2.837 48.239 2.837 89.37s-0.068 68.76-2.837 89.37c-2.65 19.689-7.223 28.115-12.783 33.676s-13.986 10.135-33.677 12.782c-20.608 2.771-48.239 2.839-89.37 2.839s-68.762-0.068-89.37-2.839z" />
<glyph unicode="&#xe915;" glyph-name="library-filled" d="M85.333 682.667c0 90.51 0 135.764 28.118 163.882s73.373 28.118 163.882 28.118c90.51 0 135.764 0 163.883-28.118s28.117-73.373 28.117-163.882c0-90.51 0-135.764-28.117-163.883s-73.373-28.117-163.883-28.117c-90.51 0-135.764 0-163.882 28.117s-28.118 73.373-28.118 163.883zM554.667 213.333c0 90.509 0 135.765 28.117 163.883s73.374 28.117 163.883 28.117c90.509 0 135.765 0 163.883-28.117s28.117-73.374 28.117-163.883c0-90.509 0-135.765-28.117-163.883s-73.374-28.117-163.883-28.117c-90.509 0-135.765 0-163.883 28.117s-28.117 73.374-28.117 163.883zM85.333 213.333c0 90.509 0 135.765 28.118 163.883s73.373 28.117 163.882 28.117c90.51 0 135.764 0 163.883-28.117s28.117-73.374 28.117-163.883c0-90.509 0-135.765-28.117-163.883s-73.373-28.117-163.883-28.117c-90.51 0-135.764 0-163.882 28.117s-28.118 73.374-28.118 163.883zM554.667 682.667c0 90.51 0 135.764 28.117 163.882s73.374 28.118 163.883 28.118c90.509 0 135.765 0 163.883-28.118s28.117-73.373 28.117-163.882c0-90.51 0-135.764-28.117-163.883s-73.374-28.117-163.883-28.117c-90.509 0-135.765 0-163.883 28.117s-28.117 73.373-28.117 163.883z" />
<glyph unicode="&#xe916;" glyph-name="link" d="M426.667 328.533c-8.533 0-17.067 4.267-21.333 8.533-76.8 76.8-72.533 209.067 12.8 290.133l204.8 209.067c42.667 42.667 98.133 68.267 157.867 68.267 0 0 0 0 0 0 51.2 0 98.133-21.333 132.267-55.467 76.8-76.8 72.533-209.067-12.8-290.133l-102.4-102.4c-12.8-12.8-34.133-12.8-46.933 0s-12.8 34.133 0 46.933l102.4 102.4c59.733 59.733 64 149.333 12.8 200.533-21.333 21.333-55.467 34.133-89.6 34.133 0 0 0 0 0 0-38.4 0-81.067-17.067-110.933-46.933l-204.8-209.067c-59.733-59.733-64-149.333-12.8-200.533 12.8-12.8 12.8-34.133 0-46.933-4.267-4.267-12.8-8.533-21.333-8.533zM238.933-12.8c55.467 0 115.2 25.6 157.867 68.267l204.8 209.067c85.333 85.333 89.6 213.333 12.8 290.133-12.8 12.8-34.133 12.8-46.933 0s-12.8-34.133 0-46.933c51.2-51.2 46.933-140.8-12.8-200.533l-204.8-209.067c-29.867-29.867-72.533-46.933-110.933-46.933 0 0 0 0 0 0-34.133 0-64 12.8-89.6 34.133-51.2 51.2-46.933 140.8 12.8 200.533l102.4 102.4c12.8 12.8 12.8 34.133 0 46.933s-34.133 12.8-46.933 0l-102.4-102.4c-85.333-85.333-89.6-213.333-12.8-290.133 38.4-34.133 85.333-55.467 136.533-55.467 0 0 0 0 0 0z" />
<glyph unicode="&#xe917;" glyph-name="logout" d="M503.834 838.264c-31.305-4.21-47.885-11.911-59.703-23.729-10.381-10.38-17.516-24.376-21.961-48.56-4.613-25.096-5.83-58.167-6.087-104.818-0.097-17.673-14.503-31.92-32.176-31.823s-31.921 14.503-31.823 32.176c0.255 46.149 1.364 84.608 7.14 116.035 5.944 32.338 17.263 59.857 39.651 82.245 25.686 25.686 58.022 36.737 96.426 41.903 36.988 4.975 84.015 4.975 142.357 4.974h47.351c58.359 0.001 105.395 0.002 142.391-4.974 38.409-5.166 70.746-16.216 96.431-41.903 25.673-25.673 36.706-58.016 41.865-96.415 4.971-36.991 4.971-84.026 4.971-142.37v-346.010c0-58.342 0-105.378-4.971-142.37-5.158-38.4-16.192-70.741-41.865-96.414-25.702-25.673-58.035-36.736-96.448-41.903-36.988-4.975-84.015-4.975-142.374-4.975h-47.351c-58.342 0-105.37 0-142.357 4.975-38.404 5.163-70.74 16.213-96.426 41.903-22.388 22.387-33.707 49.907-39.651 82.244-5.777 31.424-6.886 69.884-7.14 116.036-0.097 17.673 14.15 32.077 31.823 32.175s32.079-14.153 32.176-31.825c0.257-46.647 1.474-79.723 6.087-104.815 4.445-24.188 11.58-38.182 21.961-48.563 11.819-11.819 28.399-19.516 59.703-23.727 32.222-4.335 74.927-4.403 136.166-4.403h42.667c61.257 0 103.962 0.068 136.183 4.403 31.296 4.207 47.893 11.908 59.738 23.74 0 0 0 0 0 0zM878.588 81.476c11.78 11.789 19.473 28.361 23.68 59.669 4.331 32.235 4.399 74.953 4.399 136.188v341.333c0 61.234-0.068 103.955-4.399 136.188-4.207 31.319-11.904 47.892-23.693 59.681-11.814 11.817-28.399 19.519-59.708 23.729-32.23 4.335-74.944 4.402-136.201 4.402h-42.667c-61.239 0-103.945-0.068-136.166-4.402zM258.963 596.825c11.502-13.418 9.948-33.62-3.471-45.122l-83.654-71.703h468.163c17.673 0 32-14.327 32-32s-14.327-32-32-32h-468.163l83.654-71.706c13.419-11.499 14.973-31.701 3.471-45.12s-31.703-14.972-45.121-3.473l-149.333 128c-7.093 6.080-11.175 14.955-11.175 24.299 0 9.34 4.082 18.214 11.175 24.294l149.333 128.001c13.418 11.502 33.62 9.947 45.121-3.471z" />
<glyph unicode="&#xe918;" glyph-name="message" d="M424.277 821.333h175.445c78.421 0 140.544 0 189.141-6.528 50.005-6.741 90.496-20.907 122.453-52.821 31.915-31.957 46.080-72.448 52.821-122.453 6.528-48.64 6.528-110.72 6.528-189.141v-4.779c0-78.421 0-140.544-6.528-189.141-6.741-50.005-20.907-90.496-52.821-122.453-31.957-31.915-72.448-46.080-122.453-52.821-48.64-6.528-110.72-6.528-189.141-6.528h-175.445c-78.421 0-140.544 0-189.141 6.528-50.005 6.741-90.496 20.907-122.453 52.821-31.915 31.957-46.080 72.448-52.821 122.453-6.528 48.64-6.528 110.72-6.528 189.141v4.779c0 78.421 0 140.544 6.528 189.141 6.741 50.005 20.907 90.496 52.821 122.453 31.957 31.915 72.448 46.080 122.453 52.821 48.64 6.528 110.72 6.528 189.141 6.528zM243.627 751.36c-42.923-5.76-67.669-16.597-85.76-34.645-18.005-18.048-28.843-42.795-34.603-85.717-5.888-43.861-5.973-101.632-5.973-182.997s0.085-139.136 5.973-183.040c5.76-42.88 16.597-67.627 34.645-85.675s42.795-28.885 85.717-34.645c43.861-5.888 101.632-5.973 182.997-5.973h170.667c81.365 0 139.179 0.085 183.040 5.973 42.88 5.76 67.627 16.597 85.675 34.645s28.885 42.795 34.645 85.717c5.888 43.861 5.973 101.632 5.973 182.997s-0.085 139.136-5.973 183.040c-5.76 42.88-16.597 67.627-34.645 85.675s-42.795 28.885-85.717 34.645c-43.819 5.888-101.632 5.973-182.997 5.973h-170.667c-81.365 0-139.093-0.085-182.997-5.973zM231.381 639.147c5.433 6.516 13.231 10.607 21.68 11.376s16.857-1.85 23.376-7.28l92.203-76.757c39.808-33.152 67.413-56.107 90.795-71.125 22.571-14.507 37.888-19.413 52.608-19.413s30.037 4.864 52.608 19.413c23.339 15.019 50.987 37.973 90.795 71.125l92.117 76.8c3.23 2.689 6.959 4.716 10.974 5.965 4.011 1.249 8.23 1.695 12.416 1.312s8.256-1.585 11.977-3.54c3.721-1.955 7.023-4.624 9.711-7.854s4.715-6.959 5.965-10.972c1.25-4.014 1.694-8.234 1.314-12.42-0.384-4.186-1.587-8.255-3.541-11.976s-4.625-7.020-7.855-9.71l-93.696-78.080c-37.845-31.573-68.48-57.088-95.573-74.496-28.16-18.133-55.595-29.568-87.211-29.568s-59.051 11.477-87.253 29.568c-27.051 17.408-57.685 42.965-95.531 74.453l-93.739 78.080c-3.232 2.691-5.903 5.992-7.858 9.716s-3.158 7.796-3.538 11.985c-0.381 4.189 0.068 8.411 1.321 12.426s3.242 7.744 5.937 10.973z" />
<glyph unicode="&#xe919;" glyph-name="notebook" d="M855.718 863.219c65.229 2.272 114.948-51.272 114.948-113.706v-478.311c0-65.545-53.069-116.715-115.968-120.653-40.909-2.556-86.942-7.475-121.199-16.516-42.351-11.179-94.72-36.023-137.003-58.564-52.621-28.049-116.373-28.049-168.994 0-42.283 22.541-94.652 47.386-137.001 58.564-34.26 9.041-80.292 13.961-121.199 16.516-62.902 3.938-115.97 55.108-115.97 120.653v475.554c0 63.964 52.061 118.070 118.545 113.984 42.102-2.587 93.958-7.783 134.953-18.601 48.482-12.794 104.363-39.415 146.835-61.874 35.366-18.699 78.818-17.691 113.724 2.51v0c37.222 21.544 84.979 46.37 127.433 59.079 48.841 14.621 112.324 19.674 160.896 21.365zM906.667 749.513c0 29.081-22.49 50.659-48.721 49.745-47.74-1.663-104.269-6.592-144.768-18.715-34.995-10.477-77.444-32.16-113.732-53.161-53.696-31.077-120.559-32.849-175.694-3.695-41.677 22.038-92.199 45.737-133.249 56.57-34.654 9.145-81.334 14.071-122.549 16.604-27.049 1.662-50.619-20.358-50.619-50.105v-475.554c0-29.257 24.248-54.793 55.965-56.777 41.817-2.615 92.981-7.812 133.533-18.513 49.935-13.175 107.772-41.041 150.777-63.966 33.805-18.018 74.978-18.018 108.783 0 43.004 22.925 100.843 50.79 150.775 63.966 40.555 10.701 91.716 15.898 133.534 18.513 31.718 1.984 55.966 27.52 55.966 56.777v478.311zM512 742.229c17.673 0 32-14.327 32-32v-646.225c0-17.673-14.327-32-32-32s-32 14.327-32 32v646.225c0 17.673 14.327 32 32 32zM182.296 583.761c4.286 17.145 21.66 27.569 38.806 23.283l170.667-42.667c17.146-4.286 27.57-21.66 23.283-38.806-4.286-17.143-21.66-27.571-38.805-23.283l-170.667 42.667c-17.146 4.286-27.57 21.66-23.284 38.806zM841.702 583.761c-4.284 17.145-21.658 27.569-38.805 23.283l-170.667-42.667c-17.143-4.286-27.567-21.66-23.283-38.806 4.288-17.143 21.662-27.571 38.805-23.283l170.667 42.667c17.148 4.286 27.571 21.66 23.283 38.806zM182.296 413.094c4.286 17.148 21.66 27.571 38.806 23.283l170.667-42.667c17.146-4.284 27.57-21.658 23.283-38.805-4.286-17.143-21.66-27.571-38.805-23.283l-170.667 42.667c-17.146 4.288-27.57 21.662-23.284 38.805zM841.702 413.094c-4.284 17.148-21.658 27.571-38.805 23.283l-170.667-42.667c-17.143-4.284-27.567-21.658-23.283-38.805 4.288-17.143 21.662-27.571 38.805-23.283l170.667 42.667c17.148 4.288 27.571 21.662 23.283 38.805z" />
<glyph unicode="&#xe91a;" glyph-name="notebook-filled" d="M85.333 271.206v475.554c0 46.855 37.815 84.919 84.582 82.044 41.658-2.56 90.927-7.621 128.751-17.602 44.766-11.813 97.967-36.974 140.045-59.222 13.103-6.929 27.034-11.734 41.297-14.443v-647.622c-12.928 2.85-25.54 7.45-37.453 13.798-42.644 22.729-97.747 49.088-143.889 61.261-37.406 9.873-86.004 14.929-127.366 17.519-47.309 2.957-85.967 41.31-85.967 88.713zM221.102 607.045c-17.146 4.286-34.519-6.138-38.806-23.284s6.138-34.519 23.284-38.806l170.667-42.666c17.145-4.288 34.519 6.14 38.806 23.283 4.286 17.145-6.138 34.519-23.284 38.806l-170.667 42.667zM221.102 436.378c-17.146 4.288-34.519-6.14-38.806-23.283s6.138-34.517 23.284-38.805l170.667-42.667c17.145-4.288 34.519 6.14 38.806 23.283s-6.138 34.517-23.284 38.805l-170.667 42.667zM544.009 89.92v649.328c13.683 3.352 26.974 8.638 39.407 15.834 36.757 21.272 81.86 44.527 120.585 56.12 44.668 13.372 104.678 18.363 152.832 20.040 45.73 1.593 81.835-35.968 81.835-81.725v-478.311c0-47.403-38.656-85.756-85.969-88.713-41.361-2.59-89.958-7.646-127.364-17.519-46.144-12.173-101.244-38.532-143.889-61.261-11.908-6.349-24.512-10.944-37.436-13.794zM818.436 544.955c17.143 4.286 27.567 21.661 23.283 38.806-4.288 17.146-21.662 27.57-38.805 23.284l-170.667-42.667c-17.148-4.286-27.571-21.661-23.283-38.806 4.284-17.143 21.658-27.571 38.805-23.283l170.667 42.666zM818.436 374.289c17.143 4.288 27.567 21.662 23.283 38.805-4.288 17.143-21.662 27.571-38.805 23.283l-170.667-42.667c-17.148-4.288-27.571-21.662-23.283-38.805 4.284-17.143 21.658-27.571 38.805-23.283l170.667 42.667zM856.162 850.418c57.429 2 101.705-45.15 101.705-100.914v-478.31c0-58.287-47.305-104.333-103.97-107.878-41.088-2.569-88.145-7.543-123.665-16.917-43.866-11.575-97.327-37.026-139.755-59.644-13.478-7.181-27.738-12.378-42.334-15.599l-23.334-5.146v688.29l14.63 3.584c11.947 2.926 23.531 7.536 34.359 13.803 37.039 21.435 83.733 45.632 124.693 57.896 47.172 14.121 109.269 19.149 157.67 20.835zM919.467 749.504c0 35.752-27.938 63.723-61.969 62.537-47.902-1.669-105.826-6.622-147.994-19.245-36.484-10.924-79.996-33.235-116.471-54.344-9.553-5.53-19.55-10.058-29.824-13.577v-608.672c3.115 1.353 6.187 2.829 9.203 4.437 42.863 22.848 99.605 50.112 148.023 62.886 39.292 10.372 89.429 15.514 131.063 18.116 37.956 2.372 67.968 33.037 67.968 69.551v478.31zM66.133 746.747c0 57.121 46.362 104.81 104.96 101.208 41.924-2.577 92.745-7.718 132.471-18.202 46.996-12.401 101.805-38.438 144.119-60.813 11.371-6.013 23.484-10.194 35.904-12.554l15.62-2.966v-687.411l-23.334 5.141c-14.605 3.221-28.868 8.418-42.351 15.603-42.427 22.618-95.889 48.068-139.756 59.644-35.519 9.374-82.577 14.349-123.665 16.917-56.665 3.546-103.969 49.591-103.969 107.878v475.553zM168.738 809.627c-34.936 2.147-64.205-26.29-64.205-62.88v-475.553c0-36.514 30.012-67.179 67.966-69.551 41.635-2.603 91.773-7.744 131.066-18.116 48.418-12.774 105.161-40.038 148.023-62.886 3.021-1.609 6.097-3.093 9.22-4.446v606.216c-10.658 3.107-21.077 7.297-31.074 12.584-41.837 22.122-93.43 46.406-135.967 57.631-35.922 9.479-83.637 14.459-125.030 17.003zM216.445 588.404c-6.858 1.714-13.808-2.455-15.523-9.313s2.455-13.808 9.313-15.523l170.667-42.668c6.858-1.711 13.807 2.458 15.522 9.314 1.714 6.859-2.455 13.809-9.313 15.523l-170.667 42.667zM163.669 588.404c6.858 27.433 34.656 44.112 62.089 37.254l170.667-42.667c27.433-6.858 44.113-34.656 37.252-62.091-6.857-27.43-34.655-44.109-62.088-37.252l-170.667 42.667c-27.433 6.861-44.111 34.657-37.254 62.090zM823.091 579.091c-1.715 6.858-8.666 11.028-15.522 9.313l-170.667-42.667c-6.857-1.715-11.029-8.664-9.314-15.523 1.715-6.857 8.666-11.025 15.522-9.314l170.667 42.668c6.861 1.715 11.029 8.664 9.314 15.523zM798.255 625.658c27.435 6.858 55.232-9.821 62.089-37.254 6.861-27.433-9.818-55.229-37.252-62.090l-170.667-42.667c-27.43-6.857-55.232 9.822-62.089 37.252-6.857 27.435 9.822 55.233 37.252 62.091l170.667 42.667zM216.445 417.737c-6.858 1.715-13.808-2.453-15.523-9.314-1.714-6.857 2.455-13.807 9.313-15.522l170.667-42.667c6.858-1.711 13.807 2.458 15.522 9.314 1.714 6.861-2.455 13.807-9.313 15.522l-170.667 42.667zM163.669 417.737c6.858 27.435 34.656 44.113 62.089 37.257l170.667-42.667c27.433-6.861 44.113-34.658 37.252-62.093-6.857-27.43-34.655-44.109-62.088-37.252l-170.667 42.667c-27.433 6.861-44.111 34.658-37.254 62.089zM823.091 408.422c-1.715 6.861-8.666 11.029-15.522 9.314l-170.667-42.667c-6.857-1.715-11.029-8.661-9.314-15.522 1.715-6.857 8.666-11.025 15.522-9.314l170.667 42.667c6.861 1.715 11.029 8.666 9.314 15.522zM798.255 454.993c27.435 6.857 55.232-9.822 62.089-37.257 6.861-27.43-9.818-55.228-37.252-62.089l-170.667-42.667c-27.43-6.857-55.232 9.822-62.089 37.252-6.857 27.435 9.822 55.232 37.252 62.093l170.667 42.667z" />
<glyph unicode="&#xe91b;" glyph-name="play" d="M913.434 560.957c90.534-49.234 90.534-176.679 0-225.912l-546.644-297.263c-87.99-47.851-196.122 14.43-196.122 112.956v594.526c0 98.527 108.132 160.806 196.122 112.957l546.645-297.263z" />
<glyph unicode="&#xe91c;" glyph-name="properties" horiz-adv-x="768" d="M448 672c0-35.346-28.654-64-64-64s-64 28.654-64 64c0 35.346 28.654 64 64 64s64-28.654 64-64zM448 448c0-35.346-28.654-64-64-64s-64 28.654-64 64c0 35.346 28.654 64 64 64s64-28.654 64-64zM448 224c0-35.346-28.654-64-64-64s-64 28.654-64 64c0 35.346 28.654 64 64 64s64-28.654 64-64z" />
<glyph unicode="&#xe91d;" glyph-name="sad" d="M512.042 842.664c-217.968 0-394.667-176.698-394.667-394.667s176.698-394.666 394.667-394.666c217.968 0 394.666 176.698 394.666 394.666s-176.698 394.667-394.666 394.667zM53.375 447.997c0 253.315 205.352 458.667 458.667 458.667s458.666-205.352 458.666-458.667c0-253.315-205.35-458.666-458.666-458.666s-458.667 205.35-458.667 458.666zM512.064 245.331c-40.339 0-77.885-13.354-108.944-36.374-14.198-10.525-34.24-7.546-44.765 6.653-10.522 14.198-7.542 34.24 6.656 44.765 41.472 30.739 92.246 48.957 147.053 48.957 54.81 0 105.584-18.218 147.056-48.957 14.198-10.525 17.178-30.566 6.653-44.765s-30.563-17.178-44.762-6.653c-31.062 23.021-68.608 36.374-108.947 36.374zM640.042 447.997c23.565 0 42.666 28.653 42.666 64 0 35.344-19.101 64-42.666 64s-42.666-28.656-42.666-64c0-35.347 19.101-64 42.666-64zM384.042 447.997c23.565 0 42.666 28.653 42.666 64 0 35.344-19.101 64-42.666 64s-42.666-28.656-42.666-64c0-35.347 19.101-64 42.666-64z" />
<glyph unicode="&#xe91e;" glyph-name="search" d="M490.671 842.667c-49.027 0-97.573-9.656-142.868-28.418s-86.451-46.261-121.118-80.929c-34.668-34.667-62.167-75.823-80.929-121.118s-28.418-93.842-28.418-142.868c0-49.028 9.656-97.576 28.418-142.867 18.762-45.297 46.261-86.451 80.929-121.119s75.823-62.167 121.118-80.927c45.295-18.765 93.842-28.421 142.868-28.421 99.015 0 193.971 39.332 263.987 109.348 70.016 70.011 109.348 164.972 109.348 263.986s-39.332 193.973-109.348 263.986c-70.016 70.014-164.972 109.347-263.987 109.347zM53.338 469.334c0 241.493 195.84 437.333 437.333 437.333 241.495 0 437.335-195.84 437.335-437.333 0-109.229-40.064-209.151-106.286-285.782l139.566-139.607c3.144-2.929 5.663-6.461 7.414-10.383 1.751-3.927 2.688-8.166 2.765-12.462s-0.717-8.566-2.324-12.549c-1.608-3.983-4.004-7.603-7.045-10.644-3.036-3.036-6.656-5.432-10.639-7.040-3.983-1.613-8.253-2.401-12.549-2.324s-8.535 1.014-12.462 2.765c-3.922 1.751-7.455 4.27-10.388 7.414l-139.602 139.561c-79.35-68.695-180.828-106.435-285.783-106.281-241.493 0-437.333 195.84-437.333 437.334z" />
<glyph unicode="&#xe91f;" glyph-name="send" d="M622.933-8.533c-25.6 0-51.2 8.533-72.533 21.333-46.933 29.867-72.533 102.4-128 273.067-8.533 21.333-12.8 34.133-17.067 38.4-4.267 8.533-8.533 12.8-17.067 17.067s-17.067 8.533-38.4 17.067c-166.4 55.467-243.2 81.067-273.067 128-17.067 21.333-21.333 46.933-21.333 72.533s8.533 51.2 21.333 72.533c29.867 46.933 102.4 72.533 273.067 128l217.6 72.533c204.8 68.267 307.2 102.4 371.2 38.4s29.867-166.4-38.4-371.2l-72.533-217.6c-55.467-166.4-81.067-243.2-128-273.067-25.6-12.8-51.2-17.067-76.8-17.067zM844.8 844.8c-51.2 0-136.533-29.867-256-68.267l-221.867-76.8c-132.267-42.667-221.867-72.533-238.933-98.133-8.533-12.8-12.8-25.6-12.8-42.667s4.267-29.867 12.8-42.667c17.067-25.6 102.4-55.467 234.667-102.4 25.6-8.533 42.667-12.8 55.467-21.333s25.6-21.333 34.133-34.133c8.533-12.8 12.8-29.867 21.333-55.467 42.667-132.267 72.533-221.867 102.4-234.667 25.6-12.8 59.733-12.8 85.333 0 25.6 17.067 55.467 106.667 102.4 238.933v0l72.533 217.6c59.733 170.667 89.6 264.533 55.467 302.933-12.8 8.533-25.6 17.067-46.933 17.067zM601.6 494.933l179.2 179.2c12.8 12.8 12.8 34.133 0 46.933s-34.133 12.8-46.933 0l-179.2-179.2c-12.8-12.8-12.8-34.133 0-46.933 4.267-4.267 12.8-8.533 21.333-8.533 12.8 0 21.333 0 25.6 8.533z" />
<glyph unicode="&#xe920;" glyph-name="settings" d="M512 285.867c-89.6 0-162.133 72.533-162.133 162.133s72.533 162.133 162.133 162.133c89.6 0 162.133-72.533 162.133-162.133s-72.533-162.133-162.133-162.133zM512 541.867c-51.2 0-98.133-42.667-98.133-98.133 0-51.2 42.667-98.133 98.133-98.133 51.2 0 98.133 42.667 98.133 98.133s-46.933 98.133-98.133 98.133zM512-12.8c-42.667 0-64 0-89.6 8.533-12.8 4.267-25.6 12.8-38.4 25.6s-21.333 25.6-25.6 38.4c-8.533 17.067-8.533 34.133-8.533 46.933s-8.533 25.6-17.067 29.867c-4.267 4.267-12.8 4.267-17.067 4.267s-12.8 0-17.067-4.267c-12.8-8.533-29.867-12.8-46.933-17.067-17.067 0-29.867 0-46.933 4.267-12.8 4.267-29.867 12.8-42.667 21.333-17.067 12.8-29.867 34.133-51.2 72.533s-34.133 59.733-38.4 81.067c0 17.067 0 29.867 4.267 46.933s12.8 29.867 21.333 42.667c8.533 12.8 21.333 21.333 38.4 29.867 12.8 8.533 17.067 17.067 17.067 29.867s-8.533 25.6-17.067 29.867c-12.8 8.533-25.6 17.067-38.4 29.867-8.533 12.8-17.067 25.6-21.333 42.667 0 17.067 0 29.867 0 46.933 4.267 21.333 12.8 42.667 34.133 81.067 25.6 34.133 38.4 55.467 55.467 68.267 25.6 17.067 55.467 25.6 85.333 21.333 17.067 0 34.133-4.267 46.933-12.8 4.267-4.267 12.8-4.267 17.067-4.267 0 0 0 0 0 0 4.267 0 12.8 0 17.067 4.267 8.533 4.267 12.8 8.533 12.8 12.8 4.267 4.267 4.267 12.8 4.267 17.067 0 21.333 4.267 34.133 8.533 46.933s12.8 25.6 25.6 38.4c12.8 12.8 25.6 21.333 38.4 25.6 25.6 8.533 46.933 8.533 89.6 8.533s64 0 89.6-8.533v0c12.8-4.267 25.6-12.8 38.4-25.6s21.333-25.6 25.6-38.4c8.533-17.067 8.533-34.133 8.533-46.933 0-8.533 0-12.8 4.267-17.067s8.533-8.533 12.8-12.8c4.267-4.267 12.8-4.267 17.067-4.267s12.8 0 17.067 4.267c17.067 8.533 34.133 17.067 46.933 17.067 17.067 0 29.867 0 46.933-4.267s29.867-12.8 42.667-21.333c17.067-12.8 29.867-34.133 51.2-72.533s34.133-55.467 34.133-81.067c0-17.067 0-29.867-4.267-46.933s-12.8-29.867-21.333-42.667c-8.533-12.8-25.6-21.333-38.4-29.867s-17.067-17.067-17.067-29.867c0-4.267 0-12.8 4.267-17.067s8.533-8.533 12.8-12.8c12.8-8.533 25.6-17.067 38.4-29.867 8.533-12.8 17.067-25.6 21.333-42.667s4.267-29.867 4.267-46.933c-4.267-21.333-12.8-42.667-34.133-81.067s-34.133-59.733-51.2-72.533c-12.8-8.533-25.6-17.067-42.667-21.333s-29.867-4.267-46.933-4.267c-17.067 4.267-29.867 8.533-46.933 17.067-4.267 4.267-12.8 4.267-17.067 4.267 0 0 0 0 0 0-4.267 0-12.8 0-17.067-4.267-8.533-4.267-17.067-17.067-17.067-29.867 0-17.067 0-34.133-8.533-46.933-4.267-12.8-12.8-25.6-25.6-38.4s-25.6-21.333-38.4-25.6c-25.6-4.267-46.933-4.267-89.6-4.267zM315.733 209.067c17.067 0 34.133-4.267 51.2-12.8 29.867-17.067 46.933-51.2 51.2-85.333 0-12.8 0-21.333 4.267-25.6 4.267-8.533 8.533-12.8 12.8-17.067s12.8-8.533 17.067-12.8c8.533-4.267 29.867-4.267 64-4.267s51.2 0 64 4.267c8.533 4.267 12.8 8.533 17.067 12.8s8.533 12.8 12.8 17.067c0 4.267 4.267 12.8 4.267 25.6 0 34.133 21.333 68.267 51.2 85.333 17.067 8.533 34.133 12.8 51.2 12.8s34.133-4.267 46.933-12.8c12.8-4.267 17.067-8.533 25.6-8.533s12.8 0 21.333 0c8.533 0 12.8 4.267 17.067 8.533 8.533 8.533 17.067 21.333 34.133 51.2s25.6 46.933 29.867 55.467c0 8.533 0 12.8 0 21.333s-4.267 12.8-8.533 17.067c-4.267 4.267-8.533 8.533-21.333 17.067s-25.6 21.333-34.133 34.133c-8.533 12.8-12.8 29.867-12.8 46.933 0 34.133 17.067 68.267 46.933 85.333 12.8 8.533 17.067 12.8 21.333 17.067s8.533 12.8 8.533 17.067c0 8.533 4.267 12.8 0 21.333 0 8.533-12.8 25.6-29.867 55.467s-25.6 46.933-34.133 51.2c-12.8 17.067-21.333 17.067-25.6 21.333-8.533 0-12.8 4.267-21.333 0-4.267 0-12.8-4.267-25.6-8.533-12.8-8.533-29.867-12.8-46.933-12.8 0 0 0 0 0 0-17.067 0-34.133 4.267-46.933 12.8-17.067 8.533-25.6 21.333-38.4 34.133-8.533 12.8-12.8 29.867-12.8 46.933 0 12.8 0 21.333-4.267 25.6-4.267 8.533-8.533 12.8-12.8 17.067s-12.8 8.533-17.067 12.8v0c-8.533 4.267-29.867 4.267-64 4.267s-51.2 0-64-4.267c-8.533-4.267-12.8-8.533-17.067-12.8-4.267 0-8.533-8.533-12.8-12.8 0-4.267-4.267-12.8-4.267-25.6 0-17.067-4.267-34.133-12.8-46.933-8.533-17.067-21.333-29.867-34.133-38.4-17.067-8.533-34.133-12.8-51.2-12.8s-34.133 4.267-46.933 12.8c-12.8 4.267-17.067 8.533-25.6 8.533-12.8 0-29.867 0-38.4-8.533s-17.067-25.6-34.133-55.467c-17.067-29.867-25.6-46.933-29.867-55.467 0-8.533 0-12.8 0-21.333s4.267-12.8 8.533-17.067c8.533-4.267 12.8-8.533 25.6-17.067 29.867-17.067 46.933-51.2 46.933-85.333s-17.067-68.267-46.933-85.333c-12.8-8.533-17.067-12.8-21.333-17.067s-8.533-12.8-8.533-17.067c0-8.533-4.267-12.8 0-21.333 0-8.533 12.8-25.6 29.867-55.467s25.6-46.933 34.133-51.2c0-8.533 8.533-8.533 12.8-12.8 8.533 0 12.8-4.267 21.333 0 4.267 0 12.8 4.267 25.6 8.533 12.8 8.533 29.867 12.8 46.933 12.8z" />
<glyph unicode="&#xe921;" glyph-name="show" d="M512 72.533c-192 0-324.267 115.2-396.8 213.333-38.4 46.933-59.733 81.067-59.733 162.133s21.333 110.933 59.733 162.133c76.8 98.133 204.8 213.333 396.8 213.333s324.267-115.2 396.8-213.333c38.4-51.2 59.733-81.067 59.733-162.133s-21.333-110.933-59.733-162.133c-72.533-93.867-204.8-213.333-396.8-213.333zM512 755.2c-166.4 0-281.6-102.4-345.6-187.733-34.133-46.933-46.933-64-46.933-119.467 0-59.733 12.8-76.8 46.933-119.467v0c64-85.333 179.2-187.733 345.6-187.733s281.6 102.4 345.6 187.733c34.133 46.933 46.933 64 46.933 119.467 0 59.733-12.8 76.8-46.933 119.467-64 89.6-179.2 187.733-345.6 187.733zM512 285.867c-42.667 0-81.067 17.067-115.2 46.933s-42.667 72.533-42.667 115.2 17.067 81.067 46.933 115.2c59.733 59.733 166.4 59.733 226.133 0 29.867-29.867 46.933-68.267 46.933-115.2 0-42.667-17.067-81.067-46.933-115.2s-72.533-46.933-115.2-46.933zM512 541.867c-25.6 0-51.2-8.533-68.267-29.867-17.067-17.067-29.867-42.667-29.867-68.267s8.533-51.2 29.867-68.267c34.133-34.133 98.133-34.133 136.533 0 17.067 17.067 29.867 42.667 29.867 68.267s-8.533 51.2-29.867 68.267c-17.067 21.333-42.667 29.867-68.267 29.867z" />
<glyph unicode="&#xe922;" glyph-name="star" d="M362.667 746.667c59.733 106.667 89.6 162.133 149.333 162.133s89.6-55.467 149.333-162.133l12.8-25.6c12.8-21.333 21.333-34.133 25.6-42.667 4.267-4.267 17.067-8.533 42.667-12.8l29.867-4.267c115.2-25.6 174.933-38.4 192-98.133 17.067-55.467-25.6-106.667-102.4-196.267l-17.067-21.333c-17.067-21.333-25.6-29.867-29.867-38.4s0-21.333 0-51.2l4.267-29.867c12.8-123.733 17.067-183.467-29.867-221.867-17.067-12.8-29.867-17.067-51.2-17.067-38.4 0-89.6 21.333-162.133 55.467l-21.333 12.8c-25.6 12.8-34.133 17.067-42.667 17.067s-21.333-4.267-42.667-17.067l-25.6-12.8c-106.667-46.933-166.4-76.8-213.333-38.4-46.933 34.133-42.667 98.133-29.867 221.867l4.267 29.867c4.267 29.867 4.267 42.667 0 51.2s-12.8 17.067-29.867 38.4l-17.067 21.333c-76.8 89.6-119.467 140.8-102.4 196.267 21.333 55.467 81.067 72.533 196.267 98.133l25.6 4.267c25.6 4.267 38.4 8.533 42.667 12.8 8.533 4.267 12.8 17.067 25.6 38.4l17.067 29.867zM418.133 712.533l-12.8-25.6c-17.067-29.867-25.6-46.933-42.667-59.733-21.333-12.8-38.4-17.067-72.533-25.6l-25.6-4.267c-85.333-17.067-140.8-29.867-145.067-55.467-8.533-21.333 29.867-68.267 89.6-136.533l17.067-21.333c21.333-25.6 34.133-42.667 42.667-59.733 8.533-21.333 4.267-38.4 0-72.533l-4.267-29.867c-8.533-89.6-12.8-149.333 4.267-162.133s68.267 8.533 149.333 46.933l25.6 12.8c29.867 12.8 46.933 21.333 68.267 21.333s38.4-8.533 68.267-21.333l25.6-12.8c76.8-34.133 128-59.733 149.333-46.933 17.067 12.8 12.8 72.533 4.267 162.133l-4.267 29.867c-4.267 34.133-4.267 55.467 0 76.8 8.533 21.333 21.333 38.4 42.667 59.733l17.067 21.333c59.733 68.267 93.867 110.933 89.6 136.533-8.533 21.333-64 34.133-145.067 55.467l-25.6 4.267c-34.133 8.533-51.2 12.8-68.267 25.6s-25.6 29.867-42.667 59.733l-12.8 25.6c-42.667 76.8-72.533 128-93.867 128s-55.467-55.467-98.133-132.267z" />
<glyph unicode="&#xe923;" glyph-name="stopwatch" d="M512 21.333c212.079 0 384 171.921 384 384 0 212.077-171.921 384-384 384-212.077 0-384-171.923-384-384 0-212.079 171.923-384 384-384zM512 608c17.673 0 32-14.327 32-32v-170.667c0-17.673-14.327-32-32-32s-32 14.327-32 32v170.667c0 17.673 14.327 32 32 32zM394.667 874.667c0 17.673 14.327 32 32 32h170.667c17.673 0 32-14.327 32-32s-14.327-32-32-32h-170.667c-17.673 0-32 14.327-32 32z" />
<glyph unicode="&#xe924;" glyph-name="trash" d="M117.333 704c0 17.673 14.327 32 32 32h725.333c17.673 0 32-14.327 32-32s-14.327-32-32-32h-725.333c-17.673 0-32 14.327-32 32zM218.33 629.263c17.634 1.175 32.882-12.166 34.058-29.801l19.627-294.4c3.812-57.485 6.54-97.493 12.536-127.582 5.816-29.184 13.94-44.638 25.606-55.548 11.665-10.923 27.645-18.018 57.17-21.884 30.439-3.985 70.54-4.049 128.161-4.049h33.024c57.621 0 97.724 0.064 128.162 4.049 29.525 3.866 45.491 10.944 57.156 21.867 11.661 10.91 19.789 26.368 25.6 55.561 5.995 30.097 8.721 70.093 12.557 127.586l19.627 294.4c1.173 17.634 16.422 30.976 34.057 29.801s30.976-16.424 29.798-34.058l-19.789-296.828c-3.639-54.622-6.583-98.761-13.478-133.397-7.181-36.053-19.392-66.167-44.629-89.775-25.242-23.637-56.124-33.839-92.591-38.613-35.076-4.591-79.386-4.591-134.217-4.591h-37.53c-54.831 0-99.139 0-134.216 4.591-36.47 4.774-67.351 14.976-92.593 38.613-25.231 23.603-37.456 53.713-44.641 89.766-6.928 34.765-9.866 79.078-13.505 133.965l-19.751 296.269c-1.175 17.634 12.166 32.882 29.801 34.058zM402.149 522.509c17.585 1.758 33.268-11.072 35.026-28.659l21.333-213.333c1.758-17.583-11.072-33.267-28.659-35.025-17.584-1.758-33.265 11.072-35.024 28.659l-21.333 213.333c-1.758 17.583 11.072 33.267 28.657 35.025zM621.85 522.509c17.587-1.758 30.417-17.442 28.659-35.025l-21.333-213.333c-1.758-17.587-17.442-30.417-35.025-28.659-17.587 1.758-30.417 17.442-28.659 35.025l21.333 213.333c1.758 17.587 17.442 30.417 35.025 28.659zM441.813 799.998c-12.322 0-14.805-0.101-16.631-0.397l-0.091-0.015c-4.932-0.786-9.612-2.716-13.664-5.635-4.044-2.913-7.352-6.73-9.66-11.148-0.919-1.777-1.884-4.306-5.713-15.794l-4.139-12.416-1.56-4.727-0.151-0.418c-8.023-22.214-22.562-41.489-41.716-55.306s-42.033-21.531-65.644-22.134l-0.409-0.010h-5.102v64h4.237c10.604 0.343 20.868 3.841 29.477 10.051 8.601 6.204 15.154 14.829 18.828 24.771l1.324 4.012 4.139 12.416c0.146 0.438 0.291 0.873 0.435 1.305 3.040 9.13 5.599 16.813 9.199 23.751l0.027 0.052c6.925 13.287 16.864 24.768 29.022 33.526 12.145 8.748 26.168 14.535 40.948 16.899 7.604 1.23 15.674 1.224 24.864 1.218 0.653 0 1.314-0.001 1.98-0.001h140.373c0.666 0 1.327 0 1.98 0.001 9.19 0.006 17.259 0.012 24.862-1.218 0.017-0.003 0.034-0.005 0.047-0.008l-5.129-31.586 5.039 31.601c0.013-0.002 0.030-0.005 0.043-0.007 14.78-2.364 28.804-8.151 40.951-16.899 12.156-8.757 22.097-20.239 29.022-33.526l0.026-0.052c3.601-6.938 6.161-14.621 9.199-23.752 0.145-0.431 0.29-0.866 0.435-1.304l4.288-12.864 0.137-0.453c3.379-11.234 10.368-21.040 19.887-27.9 9.515-6.86 21.026-10.391 32.755-10.046l1.877-63.973c-25.796-0.758-51.123 7.010-72.060 22.102-20.8 14.993-36.109 36.382-43.597 60.892l0.137-0.413 30.357 10.119-30.643-9.218c0.047-0.163 0.098-0.326 0.149-0.489l-4.002 12.003c-3.831 11.492-4.796 14.018-5.713 15.796-2.308 4.417-5.615 8.233-9.66 11.146-4.053 2.919-8.734 4.849-13.666 5.635l-0.090 0.015c-1.826 0.296-4.309 0.397-16.631 0.397h-140.373z" />
<glyph unicode="&#xe925;" glyph-name="profile" d="M512 672c-53.018 0-96-42.981-96-96s42.982-96 96-96 96 42.982 96 96c0 53.019-42.982 96-96 96zM352 576c0 88.366 71.634 160 160 160s160-71.634 160-160c0-88.367-71.633-160-160-160s-160 71.633-160 160zM512 842.667c-217.968 0-394.667-176.698-394.667-394.667 0-217.967 176.698-394.667 394.667-394.667 217.967 0 394.667 176.7 394.667 394.667 0 217.968-176.7 394.667-394.667 394.667zM53.333 448c0 253.315 205.352 458.667 458.667 458.667s458.667-205.352 458.667-458.667c0-253.316-205.35-458.667-458.667-458.667-253.315 0-458.667 205.35-458.667 458.667zM285.368 281.818c45.407 47.083 118.010 70.182 226.632 70.182 108.625 0 181.227-23.1 226.637-70.182 45.018-46.682 56.542-110.229 60.036-173.385 0.977-17.647-12.535-32.742-30.182-33.719-17.647-0.973-32.742 12.54-33.719 30.187-3.332 60.237-14.101 103.356-42.202 132.493-27.712 28.736-79.057 50.607-180.57 50.607-101.507 0-152.851-21.871-180.564-50.607-28.1-29.137-38.87-72.256-42.203-132.493-0.976-17.647-16.073-31.159-33.719-30.187-17.646 0.977-31.16 16.073-30.184 33.719 3.494 63.155 15.018 126.703 60.038 173.385z" />
</font>
</defs>
</svg>
