<svg width="107" height="62" viewBox="0 0 107 62" fill="none" xmlns="http://www.w3.org/2000/svg">
<path d="M36.0864 34.0012H41.8037V4.20318H36.0864V34.0012Z" fill="white"/>
<path d="M2.06396 17.4315C2.06396 8.36301 9.75589 0.972206 19.1939 0.972206C24.951 0.972206 29.4812 3.19409 32.7371 7.04806L27.0271 11.5371C24.998 9.08856 22.7802 7.95499 19.1939 7.95499C13.7673 7.95499 9.6613 12.2626 9.6613 17.4315C9.6613 22.6008 13.7673 26.9081 19.1939 26.9081C21.9309 26.9081 24.0071 26.4548 25.659 25.3213V20.8322H17.5895L20.7983 14.0308H32.9729V28.6311C29.67 32.2584 24.8568 33.8909 19.1939 33.8909C9.75589 33.8909 2.06396 26.5001 2.06396 17.4315Z" fill="white"/>
<path d="M46.5186 3.70349H66.338V10.8677H54.0692V16.3085H63.5068V23.2912H54.0692V36.6768H46.5186V3.70349Z" fill="white"/>
<path d="M39.2593 44.1469C39.2593 42.6326 40.476 41.4788 42.0365 41.4788C42.7328 41.4788 43.3523 41.6843 43.8346 42.0374L43.5666 42.4048C43.1761 42.1033 42.6642 41.9122 42.0365 41.9122C40.7281 41.9122 39.7489 42.8827 39.7489 44.1469C39.7489 45.4112 40.7281 46.3817 42.0365 46.3817C42.5261 46.3817 43.0462 46.2713 43.429 46.0653V44.2866H41.853L42.0593 43.8458H43.9032V46.3083C43.3981 46.6243 42.6946 46.8154 42.0365 46.8154C40.476 46.8154 39.2593 45.6612 39.2593 44.1469Z" fill="white"/>
<path d="M45.2251 41.5378H45.6607V46.7571H45.2251V41.5378Z" fill="white"/>
<path d="M50.2656 44.9189C50.2656 44.0954 49.6615 43.412 48.7355 43.412C47.8249 43.412 47.2054 44.0954 47.2054 44.9189C47.2054 45.7419 47.8249 46.4257 48.7355 46.4257C49.6615 46.4257 50.2656 45.7419 50.2656 44.9189ZM46.7544 44.9189C46.7544 43.875 47.5728 43.0223 48.7355 43.0223C49.8986 43.0223 50.7171 43.875 50.7171 44.9189C50.7171 45.9627 49.8986 46.8154 48.7355 46.8154C47.5728 46.8154 46.7544 45.9627 46.7544 44.9189Z" fill="white"/>
<path d="M52.2442 44.1543V45.6904C52.4817 46.1024 52.979 46.4257 53.6594 46.4257C54.5396 46.4257 55.1514 45.7419 55.1514 44.9189C55.1514 44.0954 54.5396 43.412 53.6594 43.412C52.979 43.412 52.4817 43.7428 52.2442 44.1543ZM51.8086 41.5373H52.2442V43.5957C52.6116 43.2135 53.0858 43.0223 53.6594 43.0223C54.7998 43.0223 55.6028 43.875 55.6028 44.9189C55.6028 45.9627 54.7998 46.8154 53.6594 46.8154C53.0858 46.8154 52.6116 46.6317 52.2442 46.2494V46.7565H51.8086V41.5373Z" fill="white"/>
<path d="M59.7342 45.6908V44.1399C59.4894 43.7354 58.9998 43.412 58.3267 43.412C57.4469 43.412 56.8347 44.0958 56.8347 44.9189C56.8347 45.7423 57.4469 46.4257 58.3267 46.4257C59.0075 46.4257 59.4971 46.1024 59.7342 45.6908ZM59.7342 46.2568C59.3672 46.6317 58.8849 46.8154 58.3267 46.8154C57.1871 46.8154 56.3833 45.9627 56.3833 44.9189C56.3833 43.875 57.1871 43.0223 58.3267 43.0223C58.8849 43.0223 59.3672 43.206 59.7342 43.5883V43.0812H60.1702V46.7565H59.7342V46.2568Z" fill="white"/>
<path d="M61.5767 41.5378H62.0123V46.7571H61.5767V41.5378Z" fill="white"/>
<path d="M65.4458 41.5378H65.92V46.7571H65.4458V41.5378Z" fill="white"/>
<path d="M67.4033 43.0818H67.8393V43.6111C68.1454 43.1699 68.6501 43.0229 69.1551 43.0229C69.9585 43.0229 70.5553 43.5522 70.5553 44.4342V46.7571H70.1189V44.4931C70.1189 43.7948 69.6833 43.4126 69.0406 43.4126C68.3825 43.4126 67.9851 43.7948 67.8393 44.3168V46.7571H67.4033V43.0818Z" fill="white"/>
<path d="M71.8799 43.0818H72.3155V43.6111C72.6216 43.1699 73.1266 43.0229 73.6316 43.0229C74.4351 43.0229 75.0318 43.5522 75.0318 44.4342V46.7571H74.5954V44.4931C74.5954 43.7948 74.1594 43.4126 73.5168 43.4126C72.8591 43.4126 72.4612 43.7948 72.3155 44.3168V46.7571H71.8799V43.0818Z" fill="white"/>
<path d="M79.5502 44.9189C79.5502 44.0954 78.9457 43.412 78.0197 43.412C77.1095 43.412 76.49 44.0954 76.49 44.9189C76.49 45.7419 77.1095 46.4257 78.0197 46.4257C78.9457 46.4257 79.5502 45.7419 79.5502 44.9189ZM76.0386 44.9189C76.0386 43.875 76.857 43.0223 78.0197 43.0223C79.1828 43.0223 80.0013 43.875 80.0013 44.9189C80.0013 45.9627 79.1828 46.8154 78.0197 46.8154C76.857 46.8154 76.0386 45.9627 76.0386 44.9189Z" fill="white"/>
<path d="M80.2354 43.0815H80.725L82.1787 45.9337L83.6248 43.0815H84.1144L82.1787 46.8157L80.2354 43.0815Z" fill="white"/>
<path d="M87.7015 45.6908V44.1399C87.4567 43.7354 86.9671 43.412 86.294 43.412C85.4142 43.412 84.802 44.0958 84.802 44.9189C84.802 45.7423 85.4142 46.4257 86.294 46.4257C86.9748 46.4257 87.4644 46.1024 87.7015 45.6908ZM87.7015 46.2568C87.3345 46.6317 86.8522 46.8154 86.294 46.8154C85.1544 46.8154 84.3506 45.9627 84.3506 44.9189C84.3506 43.875 85.1544 43.0223 86.294 43.0223C86.8522 43.0223 87.3345 43.206 87.7015 43.5883V43.0812H88.1375V46.7565H87.7015V46.2568Z" fill="white"/>
<path d="M88.8794 43.0813H89.6446V42.1845L90.0807 41.9785V43.0813H91.2206L91.1208 43.4858H90.0807V45.7716C90.0807 46.1762 90.2337 46.3525 90.7002 46.3525H91.167V46.7566H90.6929C90.0116 46.7566 89.6446 46.4847 89.6446 45.7865V43.4858H88.9789L88.8794 43.0813Z" fill="white"/>
<path d="M92.259 43.0808H92.695V46.7561H92.259V43.0808ZM92.0986 41.8458C92.0986 41.6476 92.2744 41.4787 92.4811 41.4787C92.6877 41.4787 92.8635 41.6476 92.8635 41.8458C92.8635 41.971 92.7949 42.081 92.695 42.1473H92.2671C92.1677 42.081 92.0986 41.971 92.0986 41.8458Z" fill="white"/>
<path d="M97.293 44.9189C97.293 44.0954 96.6889 43.412 95.7629 43.412C94.8523 43.412 94.2328 44.0954 94.2328 44.9189C94.2328 45.7419 94.8523 46.4257 95.7629 46.4257C96.6889 46.4257 97.293 45.7419 97.293 44.9189ZM93.7817 44.9189C93.7817 43.875 94.6002 43.0223 95.7629 43.0223C96.926 43.0223 97.7444 43.875 97.7444 44.9189C97.7444 45.9627 96.926 46.8154 95.7629 46.8154C94.6002 46.8154 93.7817 45.9627 93.7817 44.9189Z" fill="white"/>
<path d="M98.8389 43.0818H99.2745V43.6111C99.5806 43.1699 100.086 43.0229 100.591 43.0229C101.394 43.0229 101.991 43.5522 101.991 44.4342V46.7571H101.554V44.4931C101.554 43.7948 101.118 43.4126 100.476 43.4126C99.8181 43.4126 99.4202 43.7948 99.2745 44.3168V46.7571H98.8389V43.0818Z" fill="white"/>
<path d="M39.7261 48.376H42.6637V48.8097H40.2002V50.6841H42.1282V51.1252H40.2002V53.5952H39.7261V48.376Z" fill="white"/>
<path d="M46.2284 51.7575C46.2284 50.934 45.624 50.2506 44.6979 50.2506C43.7877 50.2506 43.1682 50.934 43.1682 51.7575C43.1682 52.5806 43.7877 53.2644 44.6979 53.2644C45.624 53.2644 46.2284 52.5806 46.2284 51.7575ZM42.7168 51.7575C42.7168 50.7136 43.5352 49.8609 44.6979 49.8609C45.861 49.8609 46.6795 50.7136 46.6795 51.7575C46.6795 52.8013 45.861 53.6541 44.6979 53.6541C43.5352 53.6541 42.7168 52.8013 42.7168 51.7575Z" fill="white"/>
<path d="M47.77 49.9206H48.206V50.4792C48.4663 50.1044 48.8868 49.8984 49.3537 49.8984C49.4377 49.8984 49.5218 49.9058 49.6058 49.9206V50.3544C49.5064 50.3322 49.4073 50.3177 49.3078 50.3177C48.8105 50.3177 48.3745 50.6115 48.206 51.0823V53.5959H47.77V49.9206Z" fill="white"/>
<path d="M52.9865 53.0806C52.6731 53.507 52.1681 53.6541 51.6785 53.6541C50.8751 53.6541 50.271 53.1247 50.271 52.2428V49.9198H50.707V52.1839C50.707 52.8821 51.1507 53.2644 51.7934 53.2644C52.436 53.2644 52.8489 52.8895 52.9865 52.3676V49.9198H53.4225V53.5952H52.9865V53.0806Z" fill="white"/>
<path d="M59.811 51.3319C59.811 50.6411 59.3977 50.2514 58.8241 50.2514C58.2501 50.2514 57.8908 50.6189 57.7531 51.1408C57.7605 51.1849 57.7605 51.229 57.7605 51.273V53.5959H57.3244V51.3319C57.3244 50.6411 56.9039 50.2514 56.3302 50.2514C55.7943 50.2514 55.4196 50.5748 55.2666 51.0452V53.5959H54.8306V49.9206H55.2666V50.3985C55.5727 50.0014 56.0314 49.8617 56.4447 49.8617C56.9343 49.8617 57.363 50.1044 57.5847 50.5381C57.9212 50.0162 58.4567 49.8617 58.8854 49.8617C59.6884 49.8617 60.247 50.3911 60.247 51.273V53.5959H59.811V51.3319Z" fill="white"/>
<path d="M35.3718 60.437H34.9658V2.14301H35.3718V60.437Z" fill="white"/>
<path d="M37.3122 60.437H36.9062V2.54519H37.3122V60.437Z" fill="white"/>
<path d="M39.1486 35.3025H38.7427V3.34967H39.1486V35.3025Z" fill="white"/>
<path d="M41.0085 36.6768H40.6025V2.14319H41.0085V36.6768Z" fill="white"/>
<path d="M17.5722 2.33721C8.2385 2.33721 0.645228 9.63322 0.645228 18.6015C0.645228 27.5698 8.2385 34.8658 17.5722 34.8658C23.4445 34.8658 28.0117 33.137 31.1482 29.7277V15.3958H19.3073L16.2824 21.8072H24.2402V26.5915L24.1554 26.6496C22.5412 27.7574 20.4493 28.2731 17.5722 28.2731C12.1131 28.2731 7.83699 24.0247 7.83699 18.6015C7.83699 13.1782 12.1131 8.92991 17.5722 8.92991C21.027 8.92991 23.3195 9.94684 25.435 12.4316L30.8295 8.19071C27.4778 4.30632 23.0187 2.33721 17.5722 2.33721ZM17.5722 35.2559C8.01481 35.2559 0.239258 27.7847 0.239258 18.6015C0.239258 9.41829 8.01481 1.94713 17.5722 1.94713C23.2168 1.94713 27.8266 4.01571 31.2733 8.09514L31.4007 8.24571L25.3749 12.9832L25.2462 12.8287C23.1815 10.3365 20.958 9.31999 17.5722 9.31999C12.3404 9.31999 8.24297 13.3971 8.24297 18.6015C8.24297 23.8063 12.3404 27.883 17.5722 27.883C20.3478 27.883 22.2851 27.4219 23.8343 26.3898V22.1972H15.6527L19.0458 15.0058H31.5542V29.8743L31.5039 29.9293C28.2857 33.4638 23.5984 35.2559 17.5722 35.2559Z" fill="white"/>
<path d="M44.6916 34.921H51.8363V21.5354H61.2739V14.9427H51.8363V9.11186H64.1051V2.33777H44.6916V34.921ZM52.2423 35.311H44.2856V1.94769H64.5111V9.50193H52.2423V14.5527H61.6799V21.9255H52.2423V35.311Z" fill="white"/>
<path d="M62.9929 49.0019H61.4551V48.3547H65.2343V49.0019H63.6891V53.574H62.9929V49.0019Z" fill="white"/>
<path d="M65.4399 49.8982H66.098V50.3319C66.3582 50.016 66.7252 49.8615 67.1539 49.8615C67.2453 49.8615 67.3374 49.8689 67.4215 49.8834V50.5379C67.3143 50.5083 67.1917 50.4934 67.0545 50.4934C66.6412 50.4934 66.2661 50.692 66.098 51.0743V53.5735H65.4399V49.8982Z" fill="white"/>
<path d="M70.9409 52.4414V51.0301C70.7192 50.6845 70.2905 50.4345 69.74 50.4345C68.9902 50.4345 68.4547 51.0079 68.4547 51.7358C68.4547 52.4633 68.9902 53.0367 69.74 53.0367C70.2905 53.0367 70.7192 52.7866 70.9409 52.4414ZM70.9409 53.2056C70.6198 53.4853 70.1911 53.6323 69.7246 53.6323C68.6001 53.6323 67.7739 52.8015 67.7739 51.7358C67.7739 50.6697 68.6001 49.8392 69.7246 49.8392C70.1911 49.8392 70.6198 49.9863 70.9409 50.2656V49.8977H71.599V53.5734H70.9409V53.2056Z" fill="white"/>
<path d="M72.7754 49.8982H73.4331V50.3171C73.7237 49.9641 74.1752 49.8393 74.6189 49.8393C75.4836 49.8393 76.0954 50.4201 76.0954 51.3317V53.5735H75.4377V51.3684C75.4377 50.832 75.0703 50.4345 74.474 50.4345C73.9381 50.4345 73.5707 50.7216 73.4331 51.1991V53.5735H72.7754V49.8982Z" fill="white"/>
<path d="M76.8145 52.897L77.3345 52.5588C77.5334 52.8822 77.7782 53.0663 78.1838 53.0663C78.5585 53.0663 78.8646 52.8822 78.8646 52.6033C78.8646 52.3236 78.6661 52.1695 78.2142 52.0151L77.9163 51.9047C77.2428 51.662 77.0057 51.2579 77.0057 50.8167C77.0057 50.2656 77.5026 49.8392 78.1988 49.8392C78.6884 49.8392 79.1094 50.0526 79.3465 50.5008L78.8342 50.7875C78.7116 50.5449 78.4976 50.4052 78.1988 50.4052C77.9081 50.4052 77.6556 50.5523 77.6556 50.8093C77.6556 51.0371 77.7705 51.2138 78.2142 51.3683L78.5281 51.4783C79.178 51.7061 79.5227 52.0369 79.5227 52.5811C79.5227 53.1689 79.0026 53.6323 78.1684 53.6323C77.602 53.6323 77.1206 53.3897 76.8145 52.897Z" fill="white"/>
<path d="M79.9722 49.8987H80.6148C80.4386 49.7368 80.3319 49.5016 80.3319 49.2519C80.3319 48.737 80.7756 48.3547 81.4487 48.3547H82.3512V48.9285H81.5555C81.2266 48.9285 80.9745 49.0756 80.9745 49.3916C80.9745 49.7149 81.2494 49.8838 81.5023 49.8987H82.3512V50.4721H81.2879V53.574H80.6298V50.4721H79.9722V49.8987Z" fill="white"/>
<path d="M86.0776 51.7358C86.0776 51.0079 85.5571 50.4345 84.7769 50.4345C83.9966 50.4345 83.4684 51.0079 83.4684 51.7358C83.4684 52.4633 83.9966 53.0367 84.7769 53.0367C85.5571 53.0367 86.0776 52.4633 86.0776 51.7358ZM82.7876 51.7358C82.7876 50.6771 83.6215 49.8392 84.7769 49.8392C85.9245 49.8392 86.7584 50.6771 86.7584 51.7358C86.7584 52.794 85.9245 53.6323 84.7769 53.6323C83.6215 53.6323 82.7876 52.794 82.7876 51.7358Z" fill="white"/>
<path d="M87.6768 49.8982H88.3348V50.3319C88.5951 50.016 88.9621 49.8615 89.3908 49.8615C89.4821 49.8615 89.5743 49.8689 89.6583 49.8834V50.5379C89.5511 50.5083 89.4285 50.4934 89.2913 50.4934C88.878 50.4934 88.5029 50.692 88.3348 51.0743V53.5735H87.6768V49.8982Z" fill="white"/>
<path d="M95.3579 51.3684C95.3579 50.832 95.0364 50.4345 94.4859 50.4345C94.0113 50.4345 93.6902 50.7142 93.5444 51.1847C93.5526 51.2361 93.5526 51.2872 93.5526 51.3317V53.5735H92.8945V51.3684C92.8945 50.832 92.5652 50.4345 92.0147 50.4345C91.571 50.4345 91.2345 50.692 91.0814 51.1257V53.5735H90.4233V49.8982H91.0814V50.3027C91.3644 49.9641 91.7777 49.8393 92.1597 49.8393C92.6647 49.8393 93.078 50.0601 93.3151 50.4419C93.6748 49.9641 94.2025 49.8393 94.5927 49.8393C95.4651 49.8393 96.0156 50.4201 96.0156 51.3317V53.5735H95.3579V51.3684Z" fill="white"/>
<path d="M97.1126 49.8984H97.7707V53.5737H97.1126V49.8984ZM96.9673 48.759C96.9673 48.5016 97.1739 48.296 97.4419 48.296C97.7094 48.296 97.916 48.5016 97.916 48.759C97.916 48.8986 97.8625 49.0161 97.7707 49.0968H97.1126C97.0213 49.0161 96.9673 48.8986 96.9673 48.759Z" fill="white"/>
<path d="M98.9502 49.8982H99.6083V50.3171C99.8989 49.9641 100.35 49.8393 100.794 49.8393C101.658 49.8393 102.271 50.4201 102.271 51.3317V53.5735H101.613V51.3684C101.613 50.832 101.245 50.4345 100.649 50.4345C100.113 50.4345 99.7459 50.7216 99.6083 51.1991V53.5735H98.9502V49.8982Z" fill="white"/>
<path d="M106.194 52.2722V51.0298C105.987 50.6846 105.559 50.4346 105.016 50.4346C104.289 50.4346 103.791 50.9565 103.791 51.6547C103.791 52.3456 104.289 52.8749 105.016 52.8749C105.559 52.8749 105.987 52.6178 106.194 52.2722ZM103.378 54.5655L103.723 54.0291C104.044 54.2569 104.526 54.4114 105.031 54.4114C105.696 54.4114 106.316 54.1762 106.316 53.485C106.316 53.3602 106.285 53.1542 106.217 53.022C105.911 53.3087 105.49 53.4631 105 53.4631C103.868 53.4631 103.11 52.6767 103.11 51.6547C103.11 50.6257 103.868 49.8389 105 49.8389C105.482 49.8389 105.88 49.9934 106.194 50.2727V49.8978H106.851V52.8234C106.951 53.0735 106.997 53.3305 106.997 53.5439C106.997 54.6026 105.987 54.9993 105.008 54.9993C104.457 54.9993 103.837 54.8522 103.378 54.5655Z" fill="white"/>
<path d="M39.6025 55.2178H40.2988V60.437H39.6025V55.2178Z" fill="white"/>
<path d="M41.5459 56.7617H42.204V57.1806C42.4947 56.8276 42.9457 56.7028 43.3898 56.7028C44.2541 56.7028 44.8663 57.2836 44.8663 58.1952V60.437H44.2083V58.2319C44.2083 57.6955 43.8408 57.2981 43.2445 57.2981C42.7086 57.2981 42.3416 57.5852 42.204 58.0626V60.437H41.5459V56.7617Z" fill="white"/>
<path d="M45.377 56.7612H46.1345V55.9748L46.7922 55.6585V56.7612H47.9476L47.8022 57.3346H46.7922V59.2753C46.7922 59.6501 46.9379 59.8635 47.3585 59.8635H47.8712V60.4365H47.2895C46.5551 60.4365 46.1345 60.0691 46.1345 59.3708V57.3346H45.5223L45.377 56.7612Z" fill="white"/>
<path d="M49.1961 58.2016H51.5296C51.4375 57.5989 50.9479 57.2752 50.3669 57.2826C49.8083 57.2826 49.3337 57.6426 49.1961 58.2016ZM48.4849 58.5987C48.4849 57.5326 49.3337 56.7018 50.4051 56.7018C51.4761 56.7018 52.2563 57.4445 52.2713 58.7528H49.1657C49.2266 59.4069 49.7547 59.8996 50.451 59.8996C50.9329 59.8996 51.323 59.6937 51.5678 59.4584L51.9884 59.8996C51.6596 60.2304 51.1164 60.4949 50.451 60.4949C49.3187 60.4949 48.4849 59.657 48.4849 58.5987Z" fill="white"/>
<path d="M53.1572 55.2178H53.8149V60.437H53.1572V55.2178Z" fill="white"/>
<path d="M54.9941 55.2178H55.6518V60.437H54.9941V55.2178Z" fill="white"/>
<path d="M56.8284 56.7612H57.486V60.4365H56.8284V56.7612ZM56.6826 55.6218C56.6826 55.3643 56.8893 55.1588 57.1568 55.1588C57.4251 55.1588 57.6314 55.3643 57.6314 55.6218C57.6314 55.7614 57.5782 55.8792 57.486 55.96H56.8284C56.7362 55.8792 56.6826 55.7614 56.6826 55.6218Z" fill="white"/>
<path d="M61.4852 59.136V57.8936C61.2786 57.5484 60.8503 57.2983 60.3071 57.2983C59.5804 57.2983 59.0827 57.8203 59.0827 58.5185C59.0827 59.2093 59.5804 59.7387 60.3071 59.7387C60.8503 59.7387 61.2786 59.4816 61.4852 59.136ZM58.6694 61.4293L59.0141 60.8929C59.3352 61.1207 59.8175 61.2752 60.3225 61.2752C60.9875 61.2752 61.6074 61.04 61.6074 60.3488C61.6074 60.2239 61.577 60.018 61.5083 59.8857C61.2022 60.1724 60.7812 60.3269 60.2916 60.3269C59.1594 60.3269 58.4019 59.5405 58.4019 58.5185C58.4019 57.4895 59.1594 56.7027 60.2916 56.7027C60.7735 56.7027 61.1714 56.8572 61.4852 57.1365V56.7616H62.1429V59.6872C62.2423 59.9372 62.2886 60.1943 62.2886 60.4077C62.2886 61.4663 61.2786 61.863 60.2994 61.863C59.7485 61.863 59.1285 61.716 58.6694 61.4293Z" fill="white"/>
<path d="M63.7801 58.2019H66.1136C66.0215 57.5992 65.5319 57.2754 64.9509 57.2828C64.3923 57.2828 63.9177 57.6429 63.7801 58.2019ZM63.0688 58.5989C63.0688 57.5329 63.9177 56.702 64.9891 56.702C66.06 56.702 66.8403 57.4447 66.8553 58.753H63.7497C63.8106 59.4072 64.3387 59.8999 65.035 59.8999C65.5168 59.8999 65.907 59.6939 66.1518 59.4587L66.5724 59.8999C66.2435 60.2306 65.7003 60.4951 65.035 60.4951C63.9027 60.4951 63.0688 59.6572 63.0688 58.5989Z" fill="white"/>
<path d="M67.7427 56.7617H68.4003V57.1806C68.691 56.8276 69.1425 56.7028 69.5862 56.7028C70.4509 56.7028 71.0627 57.2836 71.0627 58.1952V60.437H70.405V58.2319C70.405 57.6955 70.0376 57.2981 69.4413 57.2981C68.9054 57.2981 68.538 57.5852 68.4003 58.0626V60.437H67.7427V56.7617Z" fill="white"/>
<path d="M71.9028 58.599C71.9028 57.5404 72.7367 56.7025 73.8689 56.7025C74.5039 56.7025 74.9935 56.9525 75.33 57.2829L74.9094 57.7241C74.6646 57.4889 74.3204 57.2977 73.8689 57.2977C73.1191 57.2977 72.5836 57.8712 72.5836 58.599C72.5836 59.3265 73.1191 59.9 73.8689 59.9C74.3204 59.9 74.6646 59.7088 74.9094 59.4736L75.33 59.9148C74.9935 60.2456 74.5039 60.4956 73.8689 60.4956C72.7367 60.4956 71.9028 59.6573 71.9028 58.599Z" fill="white"/>
<path d="M76.4998 58.2019H78.8329C78.7411 57.5992 78.2515 57.2754 77.6702 57.2828C77.1115 57.2828 76.6374 57.6429 76.4998 58.2019ZM75.7881 58.5989C75.7881 57.5329 76.6374 56.702 77.7087 56.702C78.7793 56.702 79.5596 57.4447 79.575 58.753H76.4689C76.5302 59.4072 77.058 59.8999 77.7542 59.8999C78.2361 59.8999 78.6262 59.6939 78.8714 59.4587L79.292 59.8999C78.9628 60.2306 78.4196 60.4951 77.7542 60.4951C76.6219 60.4951 75.7881 59.6572 75.7881 58.5989Z" fill="white"/>
</svg>
