<svg width="16" height="8" viewBox="0 0 16 8" fill="none" xmlns="http://www.w3.org/2000/svg">
<path d="M7.91915 7.34431L0.949211 1.80043C0.801031 1.68257 0.884373 1.44391 1.07371 1.44391H14.9334C15.1222 1.44391 15.2058 1.68139 15.0588 1.79973L8.16903 7.3436C8.09615 7.40224 7.99236 7.40254 7.91915 7.34431Z" fill="#7FCDC1"/>
<path d="M0.949211 1.80043L1.26046 1.40912L0.949211 1.80043ZM7.91915 7.34431L7.60791 7.73562L7.60791 7.73562L7.91915 7.34431ZM8.16903 7.3436L7.85558 6.95405L7.85558 6.95405L8.16903 7.3436ZM15.0588 1.79973L14.7453 1.41018L14.7453 1.41018L15.0588 1.79973ZM0.637963 2.19174L7.60791 7.73562L8.2304 6.953L1.26046 1.40912L0.637963 2.19174ZM8.48249 7.73315L15.3722 2.18928L14.7453 1.41018L7.85558 6.95405L8.48249 7.73315ZM14.9334 0.943909H1.07371V1.94391H14.9334V0.943909ZM15.3722 2.18928C15.887 1.77508 15.5941 0.943909 14.9334 0.943909V1.94391C14.6502 1.94391 14.5247 1.58769 14.7453 1.41018L15.3722 2.18928ZM7.60791 7.73562C7.86413 7.93942 8.22741 7.9384 8.48249 7.73315L7.85558 6.95405C7.9649 6.86609 8.12059 6.86565 8.2304 6.953L7.60791 7.73562ZM1.26046 1.40912C1.48273 1.58591 1.35772 1.94391 1.07371 1.94391V0.943909C0.41103 0.943909 0.119333 1.77923 0.637963 2.19174L1.26046 1.40912Z" fill="#7FCDC1"/>
</svg>
