<svg width="162" height="32" viewBox="0 0 162 32" fill="none" xmlns="http://www.w3.org/2000/svg">
<mask id="mask0_3001_1602" style="mask-type:luminance" maskUnits="userSpaceOnUse" x="0" y="0" width="162" height="32">
<path d="M162 0H0V32H162V0Z" fill="white"/>
</mask>
<g mask="url(#mask0_3001_1602)">
<path d="M42.0411 6.07993C37.2996 6.07993 33.4275 9.99993 33.4275 14.7999C33.4275 19.5999 37.2996 23.5199 42.0411 23.5199C43.9377 23.5199 45.7552 22.8799 47.1777 21.8399V23.4399H50.7338V14.7999C50.6548 9.99993 46.7826 6.07993 42.0411 6.07993ZM42.0411 19.9999C39.1962 19.9999 36.9046 17.6799 36.9046 14.7999C36.9046 11.9199 39.1962 9.59993 42.0411 9.59993C44.886 9.59993 47.1777 11.9199 47.1777 14.7999C47.1777 17.6799 44.886 19.9999 42.0411 19.9999Z" fill="white"/>
<path d="M103.996 6.07993C99.2548 6.07993 95.3826 9.99993 95.3826 14.7999C95.3826 19.5999 99.2548 23.5199 103.996 23.5199C106.762 23.5199 109.37 22.1599 110.951 19.9199L108.105 17.8399C107.157 19.1999 105.577 19.9999 103.996 19.9999C101.783 19.9999 99.8868 18.5599 99.1757 16.5599H112.61V14.7999C112.61 9.99993 108.738 6.07993 103.996 6.07993ZM99.1757 13.0399C99.8868 11.0399 101.783 9.59993 103.996 9.59993C106.209 9.59993 108.105 11.0399 108.817 13.0399H99.1757Z" fill="white"/>
<path d="M85.8213 6.08008C81.4749 6.08008 77.9978 10.0001 77.9978 14.8001V23.4401H81.5539V14.8001C81.5539 11.9201 83.5295 9.60008 85.9002 9.60008C88.2709 9.60008 90.2466 11.9201 90.2466 14.8001V23.4401H93.8027V14.8001C93.7237 10.0001 90.1675 6.08008 85.8213 6.08008Z" fill="white"/>
<path d="M24.6556 6.07993C22.5221 6.07993 20.6255 7.03993 19.282 8.55993C18.0176 7.03993 16.042 6.07993 13.9084 6.07993C9.95708 6.07993 6.79614 9.27993 6.79614 13.2799V23.4399H10.3522V13.2799C10.3522 11.2799 11.9327 9.67993 13.9084 9.67993C15.884 9.67993 17.4645 11.2799 17.4645 13.2799V23.4399H21.0205V13.2799C21.0205 11.2799 22.601 9.67993 24.5767 9.67993C26.5522 9.67993 28.1327 11.2799 28.1327 13.2799V23.4399H31.6889V13.2799C31.7679 9.27993 28.5279 6.07993 24.6556 6.07993Z" fill="white"/>
<path d="M61.0067 6.07993C56.2652 6.07993 52.3931 9.99993 52.3931 14.7999C52.3931 19.5999 56.2652 23.5199 61.0067 23.5199C62.9033 23.5199 64.7209 22.8799 66.1433 21.8399V23.1999C66.1433 26.0799 63.8517 28.3999 61.0067 28.3999C59.4262 28.3999 57.9248 27.6799 56.8975 26.3199L54.1316 28.4799C55.7911 30.7199 58.3199 31.9199 61.0067 31.9199C65.7482 31.9199 69.6204 27.9999 69.6204 23.1999V14.7999C69.6204 9.99993 65.7482 6.07993 61.0067 6.07993ZM61.0067 19.9999C58.1619 19.9999 55.8702 17.6799 55.8702 14.7999C55.8702 11.9199 58.1619 9.59993 61.0067 9.59993C63.8517 9.59993 66.1433 11.9199 66.1433 14.7999C66.1433 17.6799 63.8517 19.9999 61.0067 19.9999Z" fill="white"/>
<path d="M75.5468 7.28006H71.9907V23.4401H75.5468V7.28006Z" fill="white"/>
<path d="M73.7295 0.320038C72.3071 0.320038 71.2007 1.52004 71.2007 2.88004C71.2007 4.24004 72.386 5.44004 73.7295 5.44004C75.1519 5.44004 76.2583 4.24004 76.2583 2.88004C76.2583 1.52004 75.1519 0.320038 73.7295 0.320038Z" fill="white"/>
<path d="M4.34712 7.28015H0.791016V23.4402H4.34712V7.28015Z" fill="white"/>
<path d="M2.52879 0.32019C1.18536 0.32019 0 1.52019 0 2.96019C0 4.40019 1.18536 5.52019 2.52879 5.52019C3.95122 5.52019 5.05757 4.32019 5.05757 2.96019C5.05757 1.60019 3.95122 0.32019 2.52879 0.32019Z" fill="white"/>
<path d="M161.446 14.8C161.446 9.99996 157.574 6.07996 152.833 6.07996C148.091 6.07996 144.219 9.99996 144.219 14.8C144.219 19.6 148.091 23.52 152.833 23.52C155.599 23.52 158.207 22.16 159.787 19.92L156.942 17.84C155.994 19.2 154.414 20 152.833 20C150.62 20 148.723 18.56 148.012 16.56H161.446V14.8ZM148.012 13.04C148.723 11.04 150.62 9.59996 152.833 9.59996C155.045 9.59996 156.942 11.04 157.653 13.04H148.012Z" fill="#B3B3B3"/>
<path d="M125.57 7.27997H122.015V23.44H125.57V7.27997Z" fill="#B3B3B3"/>
<path d="M119.485 -0.000518799H115.929V23.4395H119.485V-0.000518799Z" fill="#B3B3B3"/>
<path d="M123.832 0.319946C122.409 0.319946 121.302 1.51995 121.302 2.87995C121.302 4.23995 122.488 5.43995 123.832 5.43995C125.254 5.43995 126.361 4.23995 126.361 2.87995C126.361 1.51995 125.254 0.319946 123.832 0.319946Z" fill="#B3B3B3"/>
<path d="M140.427 7.27972L135.766 18.7197L131.103 7.27972H127.231L133.869 23.4397H137.661L144.3 7.27972H140.427Z" fill="#B3B3B3"/>
</g>
</svg>
