<svg width="24" height="25" viewBox="0 0 24 25" fill="none" xmlns="http://www.w3.org/2000/svg">
<path d="M19 3.42749H5C3.89543 3.42749 3 4.32292 3 5.42749V19.4275C3 20.5321 3.89543 21.4275 5 21.4275H19C20.1046 21.4275 21 20.5321 21 19.4275V5.42749C21 4.32292 20.1046 3.42749 19 3.42749Z" stroke="white" stroke-width="2" stroke-linecap="round" stroke-linejoin="round"/>
<path d="M16.3452 8.12428C15.3626 7.14165 13.7638 7.14161 12.7817 8.12361L8.16962 12.7255C8.07167 12.8233 7.99942 12.9437 7.95918 13.076L6.95475 16.3828C6.8657 16.676 6.94328 16.9943 7.15725 17.2136C7.31753 17.3779 7.53528 17.4671 7.75861 17.4671C7.83334 17.4671 7.90878 17.4571 7.98283 17.4365L11.3736 16.4973C11.5131 16.4586 11.6403 16.3846 11.7428 16.2823L16.3453 11.6885C17.3279 10.7058 17.3279 9.107 16.3452 8.12428ZM10.7122 14.9371L9.00633 15.4096L9.50555 13.7661L12.6176 10.661L13.8058 11.8492L10.7122 14.9371ZM15.1578 10.4999L14.995 10.6624L14.401 10.0683L13.807 9.47428L13.9692 9.3124C14.2967 8.98485 14.8297 8.98485 15.1572 9.3124C15.4848 9.63994 15.4848 10.1729 15.1578 10.4999Z" fill="white"/>
</svg>
