<svg width="46" height="41" viewBox="0 0 46 41" fill="none" xmlns="http://www.w3.org/2000/svg">
<path fill-rule="evenodd" clip-rule="evenodd" d="M22.8338 0.0461247C35.442 0.0461247 45.6676 10.2801 45.6676 22.8992C45.6676 29.641 42.7486 35.7005 38.1074 39.8839C38.301 39.0661 38.3902 38.2439 38.3902 37.4376C38.3902 30.1752 31.6733 30.1752 28.6144 30.1752C25.5561 30.1752 24.8368 30.2949 22.558 30.2949C20.6385 30.2949 18.7791 30.1151 18.7791 27.7142C18.7791 26.1537 20.0387 25.0733 20.0387 25.0733C20.0387 25.0733 21.1187 25.2534 22.6776 25.2534C30.7135 25.2534 34.3444 20.9185 34.7315 15.2898C35.616 2.43004 10.089 2.17574 10.3838 15.11C10.5628 22.9704 17.3999 24.353 17.3999 24.353C17.3999 24.353 12.7822 26.2136 12.7822 30.7154C12.7822 33.7763 15.2413 34.7968 15.2413 34.7968C15.2413 34.7968 9.36014 35.9402 8.75533 40.8905C3.42583 36.7067 0 30.2029 0 22.8992C0 10.2801 10.225 0.0461247 22.8338 0.0461247Z" fill="#7FCDC1"/>
<path d="M31.6611 15.3997C31.6611 17.3989 31.2644 19.5982 28.8875 20.7477C28.0954 21.0977 27.0389 21.3475 25.8501 21.3475C21.4923 21.3475 20.0391 18.4987 20.0391 15.4497C20.0391 13.5005 20.4357 11.3512 22.7462 10.2017C23.539 9.85172 24.5955 9.55188 25.7843 9.55188C30.1421 9.55188 31.6611 12.3508 31.6611 15.3997Z" fill="#7FCDC1"/>
</svg>
